<svg width="24" height="24" viewBox="0 0 24 24" fill="none" xmlns="http://www.w3.org/2000/svg">
<rect x="0.676514" y="0.851562" width="22.5922" height="22.5922" rx="11.2961" fill="white"/>
<g clip-path="url(#clip0_26_1532)">
<path d="M3.82642 12.1477C3.82642 12.8992 3.93191 13.6247 4.11126 14.32H14.688C15.8877 14.32 16.8604 13.3473 16.8604 12.1477C16.8604 10.948 15.8877 9.97534 14.688 9.97534H4.11126C3.92461 10.6844 3.82889 11.4144 3.82642 12.1477Z" fill="#343741"/>
<path d="M18.4482 7.61934C18.752 7.33979 19.0346 7.03809 19.2937 6.71674C17.7005 4.73164 15.2582 3.45825 12.5157 3.45825C9.08279 3.45825 6.1287 5.45543 4.71899 8.34599H16.5943C17.2815 8.34556 17.9434 8.08609 18.4478 7.61934" fill="#FEC514"/>
<path d="M16.5942 15.9492H4.71936C6.1292 18.8398 9.08275 20.837 12.5157 20.837C15.2583 20.837 17.7005 19.563 19.2936 17.5785C19.0347 17.2569 18.7521 16.9552 18.4482 16.6759C17.9436 16.2091 17.2816 15.9497 16.5942 15.9492Z" fill="#00BFB3"/>
</g>
<defs>
<clipPath id="clip0_26_1532">
<rect width="17.3786" height="17.3786" fill="white" transform="translate(3.28333 3.45825)"/>
</clipPath>
</defs>
</svg>
