<svg width="24" height="25" viewBox="0 0 24 25" fill="none" xmlns="http://www.w3.org/2000/svg">
<g clip-path="url(#clip0_4_226)">
<path d="M0.946289 12.625C0.946289 13.6534 1.09065 14.6462 1.33608 15.5977H15.8096C17.4512 15.5977 18.7822 14.2666 18.7822 12.625C18.7822 10.9834 17.4512 9.65234 15.8096 9.65234H1.33608C1.08066 10.6227 0.949677 11.6216 0.946289 12.625Z" fill="#343741"/>
<path d="M20.9551 6.4285C21.3707 6.04595 21.7574 5.6331 22.112 5.19336C19.9319 2.47691 16.5898 0.734375 12.837 0.734375C8.13923 0.734375 4.09679 3.46736 2.16772 7.42285H18.4181C19.3586 7.42226 20.2643 7.06721 20.9545 6.4285" fill="#FEC514"/>
<path d="M18.4182 17.8271H2.16833C4.09759 21.7826 8.13929 24.5156 12.837 24.5156C16.59 24.5156 19.932 22.7723 22.1121 20.0566C21.7578 19.6167 21.371 19.2038 20.9551 18.8215C20.2646 18.1828 19.3588 17.8278 18.4182 17.8271Z" fill="#00BFB3"/>
</g>
<defs>
<clipPath id="clip0_4_226">
<rect width="23.7812" height="23.7812" fill="white" transform="translate(0.203125 0.734375)"/>
</clipPath>
</defs>
</svg>
