<svg width="43" height="44" viewBox="0 0 43 44" fill="none" xmlns="http://www.w3.org/2000/svg">
<path d="M7.27813 35.8781C6.29715 35.8781 5.45767 35.5291 4.75969 34.8312C4.06171 34.1332 3.71213 33.2931 3.71094 32.311V10.9078C3.71094 9.92685 4.06052 9.08737 4.75969 8.38939C5.45886 7.69141 6.29834 7.34183 7.27813 7.34064H35.8156C36.7966 7.34064 37.6367 7.69022 38.3358 8.38939C39.035 9.08856 39.384 9.92804 39.3828 10.9078V32.311C39.3828 33.2919 39.0338 34.132 38.3358 34.8312C37.6379 35.5303 36.7978 35.8793 35.8156 35.8781H7.27813ZM21.5469 23.393L35.8156 14.475V10.9078L21.5469 19.8258L7.27813 10.9078V14.475L21.5469 23.393Z" fill="white"/>
</svg>
