<svg width="24" height="24" viewBox="0 0 24 24" fill="none" xmlns="http://www.w3.org/2000/svg">
<rect x="0.481201" y="0.851562" width="22.5922" height="22.5922" rx="11.2961" fill="white"/>
<g clip-path="url(#clip0_26_1548)">
<path d="M10.883 5.79284C10.7139 5.62175 10.4781 5.51609 10.216 5.51609C9.95478 5.51609 9.7208 5.62175 9.55374 5.79284H9.5489C9.38039 5.96314 9.27549 6.2008 9.27549 6.46392C9.27549 6.72798 9.38039 6.96366 9.54894 7.13295L9.55374 7.13677C9.7208 7.30707 9.95478 7.41172 10.216 7.41172C10.4781 7.41172 10.714 7.30703 10.883 7.13677L10.8855 7.13299C11.0549 6.9637 11.1588 6.72802 11.1588 6.46392C11.1588 6.20084 11.0549 5.96314 10.8855 5.79287L10.883 5.79284ZM10.216 18.7669C10.4657 18.7671 10.7054 18.668 10.883 18.4911L10.8855 18.4861C11.0549 18.3182 11.1587 18.0805 11.1587 17.8193C11.1587 17.5552 11.0549 17.3185 10.8855 17.1474H10.883C10.7139 16.9743 10.4781 16.8697 10.216 16.8697C9.95478 16.8697 9.7208 16.9743 9.55374 17.1474H9.5489C9.38039 17.3185 9.27549 17.5552 9.27549 17.8193C9.27549 18.0805 9.38039 18.3182 9.54894 18.4861L9.55374 18.4911C9.64068 18.5787 9.74393 18.6482 9.85757 18.6955C9.97121 18.7428 10.093 18.7671 10.216 18.7669ZM15.3428 15.8954C15.5759 15.8338 15.7871 15.6831 15.9159 15.4552L15.9332 15.422C16.0478 15.2059 16.0686 14.9564 16.0075 14.7355C15.9458 14.4988 15.7944 14.2894 15.5686 14.1584L15.5556 14.1495C15.3357 14.0282 15.0851 14.0018 14.8549 14.0644C14.6209 14.1232 14.4108 14.2806 14.2826 14.5066C14.1529 14.7304 14.1257 14.9887 14.1879 15.2264C14.252 15.4601 14.402 15.6714 14.6262 15.8034H14.6277C14.8524 15.9335 15.107 15.957 15.3428 15.8954ZM11.1817 11.1702C10.9344 10.9218 10.5937 10.7662 10.216 10.7662C9.83982 10.7662 9.49989 10.9218 9.25316 11.1702C9.00755 11.4178 8.85609 11.7601 8.85609 12.1396C8.85609 12.52 9.00755 12.8634 9.25316 13.1138C9.49989 13.3601 9.83982 13.5147 10.216 13.5147C10.5937 13.5147 10.9344 13.3601 11.1817 13.1138C11.4278 12.8634 11.5793 12.52 11.5793 12.1396C11.5793 11.7602 11.4278 11.4178 11.1817 11.1702ZM10.6388 9.5547C11.186 9.6455 11.6783 9.90959 12.054 10.291H12.057C12.1173 10.3524 12.1747 10.4167 12.2289 10.4837L13.1684 9.93613C13.0421 9.55171 13.0363 9.14977 13.1377 8.77316C13.2718 8.26837 13.5966 7.8165 14.0835 7.53291L14.0996 7.52318C14.5811 7.24827 15.1287 7.19153 15.623 7.32657C15.8808 7.39591 16.1224 7.51585 16.334 7.67951C16.5457 7.84317 16.7231 8.04732 16.8562 8.28023V8.28121C17.1359 8.76834 17.1928 9.3277 17.0592 9.83047C16.9261 10.3349 16.5998 10.7898 16.1134 11.0714L15.9852 11.1479H15.9721C15.5221 11.3639 15.0273 11.3972 14.5729 11.2769C14.1997 11.1771 13.8573 10.9677 13.5893 10.6694L12.6513 11.2153C12.7622 11.5106 12.819 11.8238 12.8189 12.1396C12.8188 12.4569 12.762 12.7716 12.6513 13.0687L13.5893 13.6125C13.8573 13.3104 14.1997 13.1049 14.5729 13.0051C15.0734 12.8672 15.6284 12.926 16.1135 13.2106L16.1444 13.2253V13.2273C16.6131 13.5127 16.9276 13.9549 17.0592 14.4537C17.128 14.7124 17.1455 14.9822 17.1107 15.2477C17.0758 15.5133 16.9893 15.7693 16.8562 16.0011L16.8393 16.0353L16.8373 16.0323C16.5562 16.5029 16.1135 16.8217 15.6245 16.9566C15.1229 17.0896 14.568 17.0329 14.0835 16.7522V16.7483C13.5966 16.4646 13.2718 16.0118 13.1377 15.5082C13.0363 15.1326 13.0421 14.7304 13.1684 14.3462L12.2289 13.8003C12.175 13.8669 12.1166 13.9295 12.057 13.9901L12.054 13.993C11.6784 14.3726 11.186 14.6367 10.6388 14.7246V15.8181C11.0287 15.9003 11.3782 16.0969 11.6522 16.3727L11.6535 16.3757C12.0206 16.7434 12.2478 17.2559 12.2478 17.8193C12.2478 18.3808 12.0206 18.8901 11.6535 19.2598L11.6522 19.2657C11.2826 19.6354 10.7753 19.8643 10.216 19.8643C9.65967 19.8643 9.15172 19.6354 8.78319 19.2657H8.78185V19.2598C8.41424 18.8901 8.18657 18.3808 8.18657 17.8192C8.18621 17.5509 8.23863 17.2852 8.3408 17.0375C8.44297 16.7897 8.59288 16.5648 8.78185 16.3757V16.3727H8.78315C9.05663 16.0969 9.40663 15.9003 9.79556 15.8181V14.7246C9.24785 14.6367 8.75699 14.3726 8.38177 13.993L8.37779 13.9901C7.90878 13.5157 7.6156 12.8634 7.6156 12.1396C7.6156 11.4178 7.90878 10.7654 8.37775 10.291H8.38173C8.75695 9.90963 9.24781 9.6455 9.79552 9.5547V8.46603C9.41237 8.38187 9.06109 8.18912 8.78311 7.91048H8.78181V7.90749C8.4142 7.5359 8.18654 7.02725 8.18654 6.46389C8.18654 5.90336 8.4142 5.38989 8.78181 5.02013L8.78311 5.0183C9.15172 4.64757 9.65967 4.4187 10.2159 4.4187C10.7753 4.4187 11.2826 4.64757 11.6521 5.0183V5.02017H11.6534C12.0206 5.38989 12.2477 5.90336 12.2477 6.46389C12.2477 7.02725 12.0205 7.5359 11.6534 7.90749L11.6521 7.91048C11.3782 8.18442 11.0287 8.38088 10.6387 8.46603L10.6388 9.5547ZM15.9159 8.82889L15.9081 8.81722C15.7783 8.59706 15.5715 8.45031 15.3428 8.38672C15.107 8.32414 14.8524 8.35067 14.6262 8.4807H14.6277C14.402 8.60975 14.251 8.82107 14.1879 9.05777C14.1559 9.17812 14.1478 9.30366 14.1641 9.42717C14.1803 9.55069 14.2206 9.66975 14.2827 9.77755L14.287 9.78354C14.3487 9.8898 14.4306 9.98275 14.5281 10.0571C14.6256 10.1314 14.7366 10.1856 14.8549 10.2166C14.974 10.2501 15.0985 10.2591 15.2212 10.2432C15.3438 10.2272 15.462 10.1866 15.5687 10.1238L15.5808 10.1179C15.8002 9.98587 15.9464 9.77755 16.0075 9.54871C16.0697 9.31299 16.045 9.05477 15.9159 8.82889Z" fill="#1A1919"/>
</g>
<defs>
<clipPath id="clip0_26_1548">
<rect width="9.5125" height="15.4578" fill="white" transform="translate(7.6156 4.4187)"/>
</clipPath>
</defs>
</svg>
