<svg width="11" height="16" viewBox="0 0 11 16" fill="none" xmlns="http://www.w3.org/2000/svg">
<g clip-path="url(#clip0_26_1549)">
<path d="M3.883 1.79284C3.71393 1.62175 3.47812 1.51609 3.21597 1.51609C2.95478 1.51609 2.7208 1.62175 2.55374 1.79284H2.5489C2.38039 1.96314 2.27549 2.2008 2.27549 2.46392C2.27549 2.72798 2.38039 2.96366 2.54894 3.13295L2.55374 3.13677C2.7208 3.30707 2.95478 3.41172 3.21597 3.41172C3.47812 3.41172 3.71396 3.30703 3.883 3.13677L3.88552 3.13299C4.05489 2.9637 4.15878 2.72802 4.15878 2.46392C4.15878 2.20084 4.05489 1.96314 3.88552 1.79287L3.883 1.79284ZM3.21597 14.7669C3.4657 14.7671 3.70542 14.668 3.883 14.4911L3.88549 14.4861C4.05485 14.3182 4.15875 14.0805 4.15875 13.8193C4.15875 13.5552 4.05485 13.3185 3.88549 13.1474H3.883C3.71393 12.9743 3.47812 12.8697 3.21597 12.8697C2.95478 12.8697 2.7208 12.9743 2.55374 13.1474H2.5489C2.38039 13.3185 2.27549 13.5552 2.27549 13.8193C2.27549 14.0805 2.38039 14.3182 2.54894 14.4861L2.55374 14.4911C2.64068 14.5787 2.74393 14.6482 2.85757 14.6955C2.97121 14.7428 3.093 14.7671 3.21597 14.7669ZM8.34276 11.8954C8.57593 11.8338 8.78706 11.6831 8.91585 11.4552L8.93324 11.422C9.04776 11.2059 9.06865 10.9564 9.00748 10.7355C8.94584 10.4988 8.79438 10.2894 8.56864 10.1584L8.55556 10.1495C8.33566 10.0282 8.08507 10.0018 7.85487 10.0644C7.62089 10.1232 7.41076 10.2806 7.28264 10.5066C7.15288 10.7304 7.12572 10.9887 7.18788 11.2264C7.25198 11.4601 7.40195 11.6714 7.6262 11.8034H7.62769C7.85238 11.9335 8.10695 11.957 8.34276 11.8954ZM4.18167 7.17025C3.93442 6.92184 3.59368 6.76625 3.21601 6.76625C2.83982 6.76625 2.49989 6.92184 2.25316 7.17025C2.00755 7.4178 1.85609 7.76011 1.85609 8.13956C1.85609 8.52002 2.00755 8.86338 2.25316 9.11378C2.49989 9.36013 2.83982 9.51471 3.21601 9.51471C3.59368 9.51471 3.93442 9.36013 4.18167 9.11378C4.42777 8.86338 4.57927 8.52002 4.57927 8.13956C4.57927 7.76015 4.42777 7.4178 4.18167 7.17025ZM3.63879 5.5547C4.18598 5.6455 4.67833 5.90959 5.05404 6.29102H5.05701C5.11733 6.35243 5.17468 6.41671 5.22887 6.48367L6.16837 5.93613C6.04207 5.55171 6.03628 5.14977 6.13768 4.77316C6.27179 4.26837 6.59658 3.8165 7.08347 3.53291L7.09956 3.52318C7.58113 3.24827 8.12869 3.19153 8.62304 3.32657C8.88081 3.39591 9.12243 3.51585 9.33405 3.67951C9.54566 3.84317 9.7231 4.04732 9.85618 4.28023V4.28121C10.1359 4.76834 10.1928 5.3277 10.0592 5.83047C9.92615 6.33493 9.59982 6.78979 9.11342 7.0714L8.98515 7.14787H8.97207C8.52212 7.36386 8.02729 7.39725 7.57288 7.27688C7.19966 7.17706 6.85729 6.96772 6.5893 6.66942L5.65132 7.21531C5.76224 7.51064 5.81901 7.8238 5.81886 8.13956C5.81876 8.45688 5.762 8.7716 5.65128 9.06868L6.5893 9.61251C6.85729 9.31039 7.19966 9.10491 7.57288 9.00509C8.07336 8.8672 8.62836 8.92596 9.11346 9.21057L9.14441 9.22528V9.22726C9.61309 9.51272 9.92763 9.9549 10.0592 10.4537C10.128 10.7124 10.1455 10.9822 10.1107 11.2477C10.0758 11.5133 9.98935 11.7693 9.85618 12.0011L9.83931 12.0353L9.8373 12.0323C9.55624 12.5029 9.11346 12.8217 8.62453 12.9566C8.12289 13.0896 7.56805 13.0329 7.08347 12.7522V12.7483C6.59658 12.4646 6.27179 12.0118 6.13768 11.5082C6.03628 11.1326 6.04207 10.7304 6.16837 10.3462L5.22887 9.80032C5.17499 9.86694 5.11665 9.92952 5.05701 9.99012L5.05404 9.99296C4.67837 10.3726 4.18598 10.6367 3.63875 10.7246V11.8181C4.02869 11.9003 4.3782 12.0969 4.65217 12.3727L4.65347 12.3757C5.02059 12.7434 5.24778 13.2559 5.24778 13.8193C5.24778 14.3808 5.02056 14.8901 4.65347 15.2598L4.65217 15.2657C4.2826 15.6354 3.77531 15.8643 3.21601 15.8643C2.65967 15.8643 2.15172 15.6354 1.78319 15.2657H1.78185V15.2598C1.41424 14.8901 1.18657 14.3808 1.18657 13.8192C1.18621 13.5509 1.23863 13.2852 1.3408 13.0375C1.44297 12.7897 1.59288 12.5648 1.78185 12.3757V12.3727H1.78315C2.05663 12.0969 2.40663 11.9003 2.79556 11.8181V10.7246C2.24785 10.6367 1.75699 10.3726 1.38177 9.99296L1.37779 9.99012C0.908779 9.51572 0.615601 8.86338 0.615601 8.13956C0.615601 7.4178 0.908779 6.76542 1.37775 6.29102H1.38173C1.75695 5.90963 2.24781 5.6455 2.79552 5.5547V4.46603C2.41237 4.38187 2.06109 4.18912 1.78311 3.91048H1.78181V3.90749C1.4142 3.5359 1.18654 3.02725 1.18654 2.46389C1.18654 1.90336 1.4142 1.38989 1.78181 1.02013L1.78311 1.0183C2.15172 0.647574 2.65967 0.418701 3.21593 0.418701C3.77527 0.418701 4.28256 0.647574 4.6521 1.0183V1.02017H4.65343C5.02056 1.38989 5.24774 1.90336 5.24774 2.46389C5.24774 3.02725 5.02052 3.5359 4.65343 3.90749L4.65213 3.91048C4.37817 4.18442 4.02866 4.38088 3.63872 4.46603L3.63879 5.5547ZM8.91589 4.82889L8.90809 4.81722C8.77833 4.59706 8.57151 4.45031 8.3428 4.38672C8.10699 4.32414 7.85242 4.35067 7.62624 4.4807H7.62773C7.40199 4.60975 7.25102 4.82107 7.18788 5.05777C7.15589 5.17812 7.1478 5.30366 7.16407 5.42717C7.18033 5.55069 7.22064 5.66975 7.28267 5.77755L7.28698 5.78354C7.34871 5.8898 7.43065 5.98275 7.5281 6.05706C7.62556 6.13137 7.73662 6.18558 7.85491 6.21658C7.974 6.25007 8.09855 6.25911 8.22117 6.24317C8.34379 6.22722 8.46198 6.18661 8.56872 6.12376L8.5808 6.11792C8.80021 5.98587 8.94636 5.77755 9.00752 5.54871C9.06969 5.31299 9.04498 5.05477 8.91589 4.82889Z" fill="#1A1919"/>
</g>
<defs>
<clipPath id="clip0_26_1549">
<rect width="9.5125" height="15.4578" fill="white" transform="translate(0.615601 0.418701)"/>
</clipPath>
</defs>
</svg>
