<svg width="25" height="24" viewBox="0 0 25 24" fill="none" xmlns="http://www.w3.org/2000/svg">
<g clip-path="url(#clip0_4_238)">
<path d="M8.52537 23.3962C7.97302 23.3962 7.45141 23.1518 7.0985 22.7086L1.72867 16.0613C1.37576 15.6181 1.23772 15.0528 1.37576 14.5026L3.29359 6.20499C3.41631 5.65485 3.78454 5.21167 4.29092 4.96722L12.0543 1.2691C12.2998 1.14697 12.576 1.08582 12.8522 1.08582C13.1283 1.08582 13.4044 1.14688 13.65 1.26919L21.4134 4.95196C21.9197 5.1964 22.2879 5.63958 22.4107 6.18972L24.3285 14.4873C24.4513 15.0375 24.3285 15.6029 23.9757 16.046L18.6057 22.6933C18.2527 23.1211 17.7311 23.3809 17.1788 23.3809L8.52537 23.3962Z" fill="#326DE6"/>
<path d="M12.8364 1.46789C13.0513 1.46789 13.2661 1.51368 13.4655 1.60537L21.229 5.28814C21.6279 5.48678 21.9347 5.85354 22.0268 6.28146L23.9446 14.5791C24.052 15.0222 23.9446 15.4807 23.6531 15.8321L18.2832 22.4795C18.007 22.8309 17.5774 23.0295 17.1325 23.0295H8.52516C8.08019 23.0295 7.65064 22.8309 7.37446 22.4795L2.00454 15.8321C1.72837 15.4807 1.62089 15.0222 1.71304 14.5791L3.63087 6.28146C3.73825 5.83827 4.02976 5.47152 4.42865 5.28814L12.1922 1.5902C12.3917 1.51378 12.6218 1.46798 12.8365 1.46798M12.8365 0.749726C12.5144 0.749726 12.1922 0.82615 11.8853 0.963638L4.12191 4.66176C3.50815 4.9521 3.0786 5.48687 2.92514 6.14397L1.00722 14.4416C0.853847 15.0987 1.00722 15.771 1.43686 16.3059L6.80678 22.9532C7.22109 23.4727 7.85009 23.763 8.50983 23.763H17.1171C17.7768 23.763 18.4059 23.4727 18.8201 22.9532L24.1901 16.3058C24.6197 15.7863 24.7731 15.0987 24.6197 14.4415L22.7019 6.14388C22.5485 5.48678 22.1188 4.952 21.5052 4.66167L13.7724 0.963453C13.4809 0.826057 13.1587 0.749634 12.8364 0.749634" fill="white"/>
<path d="M20.6154 13.922C20.6 13.922 20.6 13.922 20.6154 13.922H20.6001C20.5847 13.922 20.5694 13.922 20.5694 13.9067C20.5387 13.9067 20.5081 13.8914 20.4773 13.8914C20.37 13.8762 20.2779 13.8609 20.1858 13.8609C20.1398 13.8609 20.0938 13.8609 20.0324 13.8456H20.017C19.6949 13.815 19.434 13.7845 19.1885 13.7081C19.0811 13.6622 19.0505 13.6011 19.0197 13.54C19.0197 13.5247 19.0044 13.5247 19.0044 13.5094L18.8049 13.4484C18.8992 12.7295 18.8629 11.9996 18.6976 11.2936C18.5301 10.5817 18.2394 9.90426 17.8384 9.29179L17.9918 9.1543V9.12377C17.9918 9.04734 18.0072 8.97092 18.0685 8.8945C18.2526 8.72638 18.4828 8.58889 18.759 8.42078C18.8049 8.39025 18.8509 8.37498 18.897 8.34436C18.9891 8.29856 19.0658 8.25276 19.1579 8.1916C19.1732 8.17634 19.2038 8.16107 19.2346 8.13054C19.2499 8.11518 19.2652 8.11518 19.2652 8.09991C19.48 7.91653 19.5261 7.61093 19.3726 7.4122C19.2959 7.30524 19.1579 7.24417 19.0197 7.24417C18.8971 7.24417 18.7896 7.28997 18.6822 7.3664L18.6516 7.39693C18.6209 7.4122 18.6055 7.44282 18.5748 7.45809C18.4981 7.53451 18.4367 7.59557 18.3754 7.672C18.3447 7.70253 18.3141 7.74842 18.268 7.77895C18.0531 8.00822 17.8537 8.1916 17.6543 8.32909C17.6083 8.35962 17.5623 8.37492 17.5162 8.37498C17.4856 8.37498 17.4548 8.37498 17.4241 8.35962H17.3935L17.2093 8.48194C17.0098 8.26803 16.7951 8.08465 16.5803 7.90127C15.6554 7.18128 14.5424 6.74103 13.3736 6.63288L13.3583 6.43423L13.3276 6.4037C13.2816 6.35781 13.2203 6.31201 13.2048 6.20505C13.1895 5.96052 13.2203 5.68545 13.2509 5.37985V5.36458C13.2509 5.31869 13.2662 5.25762 13.2816 5.21173C13.2969 5.12014 13.3122 5.02835 13.3276 4.9214V4.78391C13.3276 4.50884 13.1128 4.27966 12.852 4.27966C12.7292 4.27966 12.6065 4.34073 12.5144 4.43242C12.4225 4.52411 12.3764 4.64633 12.3764 4.78391V4.90613C12.3764 5.01309 12.3917 5.10478 12.4224 5.19647C12.4377 5.24236 12.4377 5.28816 12.453 5.34931V5.36458C12.4837 5.67018 12.5298 5.94525 12.4991 6.18979C12.4838 6.29674 12.4224 6.34254 12.3764 6.38843L12.3457 6.41897L12.3303 6.61761C12.0541 6.64814 11.778 6.67868 11.5018 6.73983C10.3204 6.99964 9.27712 7.59567 8.46401 8.45131L8.31054 8.34436H8.27989C8.24923 8.34436 8.21848 8.35962 8.18783 8.35962C8.14181 8.35962 8.09577 8.34436 8.04969 8.31383C7.85024 8.17634 7.6508 7.9776 7.43602 7.74842C7.40537 7.71789 7.37471 7.672 7.32864 7.64147C7.26723 7.56504 7.20583 7.50388 7.1291 7.42755C7.11377 7.4122 7.08311 7.39702 7.05246 7.3664C7.03713 7.35113 7.0218 7.35113 7.0218 7.33586C6.92675 7.25763 6.80752 7.21443 6.68422 7.21355C6.54609 7.21355 6.40804 7.27471 6.33131 7.38166C6.17785 7.58031 6.22392 7.88591 6.4387 8.06929C6.45403 8.06929 6.45403 8.08465 6.46935 8.08465C6.50001 8.09991 6.51543 8.13045 6.54609 8.14571C6.63814 8.20678 6.71488 8.25267 6.80694 8.29856C6.85301 8.31383 6.899 8.34436 6.94507 8.37498C7.22116 8.543 7.45135 8.68058 7.63547 8.8487C7.7122 8.92503 7.7122 9.00145 7.7122 9.07788V9.10841L7.86557 9.24599C7.83492 9.29179 7.80426 9.32241 7.78884 9.36821C7.02171 10.5754 6.7302 11.9966 6.92965 13.4025L6.7302 13.4635C6.7302 13.4789 6.71488 13.4789 6.71488 13.4941C6.68422 13.5552 6.63814 13.6164 6.54609 13.6622C6.31598 13.7386 6.0398 13.7692 5.71764 13.7998H5.70222C5.65624 13.7998 5.59484 13.7998 5.54885 13.815C5.45679 13.815 5.36473 13.8303 5.25735 13.8456C5.22669 13.8456 5.19604 13.8609 5.16529 13.8609C5.14996 13.8609 5.13463 13.8609 5.11921 13.8762C4.84303 13.9372 4.67424 14.197 4.72032 14.4415C4.76639 14.6555 4.96584 14.7931 5.21127 14.7931C5.25735 14.7931 5.288 14.7931 5.33408 14.7777C5.34941 14.7777 5.36473 14.7777 5.36473 14.7625C5.39539 14.7625 5.42604 14.7472 5.4567 14.7472C5.56418 14.7167 5.64091 14.6861 5.73297 14.6402C5.77895 14.625 5.82494 14.5943 5.87101 14.5792H5.88634C6.17785 14.4721 6.4387 14.3804 6.68422 14.3499H6.71488C6.80694 14.3499 6.86834 14.3957 6.91432 14.4263C6.92965 14.4263 6.92965 14.4416 6.94498 14.4416L7.15985 14.4111C7.52808 15.5418 8.23381 16.5504 9.16973 17.2839C9.38451 17.4519 9.59928 17.5895 9.82948 17.7271L9.73742 17.9256C9.73742 17.941 9.75274 17.941 9.75274 17.9561C9.7834 18.0173 9.81406 18.0937 9.7834 18.2007C9.69143 18.43 9.5533 18.6591 9.38451 18.9189V18.9342C9.35385 18.9801 9.3232 19.0106 9.29254 19.0564C9.23114 19.1328 9.18506 19.2093 9.12366 19.301C9.10833 19.3162 9.093 19.3468 9.07767 19.3774C9.07767 19.3926 9.06235 19.4079 9.06235 19.4079C8.93963 19.6677 9.03169 19.9581 9.26179 20.065C9.3231 20.0956 9.38448 20.1109 9.44591 20.1109C9.63003 20.1109 9.81415 19.9886 9.90621 19.8205C9.90621 19.8052 9.92154 19.7899 9.92154 19.7899C9.93686 19.7594 9.95219 19.7289 9.96752 19.7135C10.0136 19.6066 10.0289 19.5301 10.0596 19.4384L10.1057 19.301C10.213 18.9954 10.2898 18.7508 10.4278 18.5369C10.4891 18.4452 10.566 18.43 10.6273 18.3993C10.6426 18.3993 10.6426 18.3993 10.6579 18.3841L10.7654 18.1854C11.4405 18.4452 12.1769 18.5827 12.9133 18.5827C13.3583 18.5827 13.8186 18.5369 14.2482 18.43C14.5186 18.3698 14.785 18.2933 15.046 18.2007L15.138 18.3688C15.1534 18.3688 15.1534 18.3688 15.1687 18.3841C15.2455 18.3993 15.3068 18.4299 15.3682 18.5216C15.4909 18.7356 15.583 18.9954 15.6903 19.2857V19.301L15.7364 19.4384C15.7671 19.5301 15.7824 19.6218 15.8284 19.7135C15.8438 19.744 15.8591 19.7594 15.8745 19.7899C15.8745 19.8052 15.8899 19.8205 15.8899 19.8205C15.9819 20.0038 16.166 20.1109 16.3501 20.1109C16.4115 20.1109 16.4729 20.0956 16.5342 20.065C16.6416 20.0039 16.7337 19.9122 16.7644 19.7899C16.7951 19.6677 16.7951 19.5301 16.7338 19.4079C16.7338 19.3926 16.7183 19.3926 16.7183 19.3774C16.703 19.3468 16.6877 19.3163 16.6723 19.301C16.6263 19.2093 16.565 19.1328 16.5036 19.0564C16.4729 19.0106 16.4422 18.9801 16.4116 18.9343V18.9189C16.2427 18.6591 16.0892 18.43 16.0126 18.2007C15.9819 18.0937 16.0126 18.0327 16.0279 17.9562C16.0279 17.941 16.0433 17.941 16.0433 17.9257L15.9665 17.7423C16.7797 17.2686 17.4701 16.5962 17.9918 15.771C18.268 15.3431 18.4828 14.8694 18.6362 14.3957L18.8203 14.4262C18.8357 14.4262 18.8357 14.411 18.8509 14.411C18.9123 14.3804 18.9584 14.3346 19.0505 14.3346H19.0811C19.3266 14.3652 19.5874 14.4568 19.879 14.5638H19.8943C19.9403 14.5791 19.9863 14.6096 20.0324 14.6249C20.1244 14.6708 20.2012 14.7013 20.3086 14.7319C20.3392 14.7319 20.3699 14.7472 20.4006 14.7472C20.4159 14.7472 20.4313 14.7472 20.4466 14.7625C20.4927 14.7777 20.5233 14.7777 20.5694 14.7777C20.7995 14.7777 20.999 14.625 21.0604 14.4263C21.0604 14.2429 20.8916 13.9984 20.6154 13.9221M13.5117 13.1733L12.8366 13.4942L12.1615 13.1733L11.9928 12.4551L12.453 11.8745H13.2048L13.6651 12.4551L13.5117 13.1733ZM17.5162 11.5841C17.6352 12.0894 17.6715 12.6106 17.6236 13.1274L15.2761 12.4551C15.0614 12.3941 14.9386 12.1801 14.9846 11.9661C14.9999 11.905 15.0307 11.8438 15.0767 11.798L16.9332 10.1324C17.194 10.5603 17.3934 11.0493 17.5162 11.5841ZM16.1967 9.21546L14.1868 10.6366C14.018 10.7436 13.7878 10.7129 13.6498 10.5449C13.6038 10.499 13.5885 10.4379 13.5731 10.3768L13.435 7.88591C14.4799 8.00575 15.4533 8.47436 16.1967 9.21546ZM11.7473 7.96224C11.9161 7.93171 12.0695 7.90118 12.2383 7.87064L12.1002 10.3155C12.0849 10.5295 11.9161 10.7128 11.6859 10.7128C11.6246 10.7128 11.5479 10.6976 11.5018 10.667L9.46124 9.21546C10.0903 8.5889 10.8728 8.16089 11.7473 7.96224ZM8.72476 10.1323L10.5505 11.7521C10.7193 11.8896 10.7347 12.1493 10.5966 12.3175C10.5505 12.3785 10.4892 12.4244 10.4125 12.4398L8.03436 13.1274C7.94231 12.0883 8.17241 11.0339 8.72476 10.1323ZM8.31045 14.2735L10.7501 13.8608C10.9495 13.8456 11.1336 13.9831 11.1796 14.1818C11.1949 14.2734 11.1949 14.3499 11.1643 14.4263L10.2284 16.6726C9.36918 16.1224 8.67869 15.282 8.31045 14.2735ZM13.9107 17.3144C13.5578 17.3908 13.2049 17.4366 12.8367 17.4366C12.2998 17.4366 11.7781 17.345 11.2872 17.1922L12.4992 15.007C12.6219 14.8694 12.8214 14.8083 12.9902 14.9C13.0618 14.9437 13.1244 15.0007 13.1743 15.0681L14.3556 17.1922C14.2176 17.238 14.0642 17.2686 13.9107 17.3144ZM16.9024 15.1904C16.5189 15.8016 16.0125 16.2906 15.4296 16.6726L14.463 14.3651C14.4169 14.1818 14.4937 13.9831 14.6778 13.8914C14.7391 13.8608 14.8158 13.8456 14.8926 13.8456L17.3474 14.2582C17.2554 14.5943 17.1019 14.9 16.9024 15.1904Z" fill="white"/>
</g>
<defs>
<clipPath id="clip0_4_238">
<rect width="23.7812" height="23.0381" fill="white" transform="translate(0.900024 0.734375)"/>
</clipPath>
</defs>
</svg>
