<svg width="52" height="52" viewBox="0 0 52 52" fill="none" xmlns="http://www.w3.org/2000/svg">
<g clip-path="url(#clip0_142_14)">
<path d="M16.6735 51.1511C15.4657 51.1511 14.3252 50.5994 13.5535 49.5991L1.81185 34.5953C1.04018 33.595 0.738336 32.319 1.04018 31.077L5.2337 12.3483C5.50202 11.1065 6.30721 10.1062 7.41445 9.55448L24.3898 1.20733C24.9267 0.931665 25.5306 0.793625 26.1344 0.793625C26.7383 0.793625 27.342 0.931456 27.8789 1.20754L44.8545 9.52002C45.9615 10.0718 46.7667 11.0721 47.035 12.3138L51.2285 31.0426C51.497 32.2843 51.2285 33.5605 50.457 34.5608L38.715 49.5646C37.9433 50.5303 36.8028 51.1167 35.595 51.1167L16.6735 51.1511Z" fill="#326DE6"/>
<path d="M26.1002 1.6557C26.57 1.6557 27.0397 1.75908 27.4758 1.96603L44.4514 10.2785C45.3236 10.7269 45.9945 11.5547 46.1958 12.5206L50.3893 31.2493C50.6241 32.2497 50.3893 33.2844 49.7519 34.0776L38.0101 49.0816C37.4062 49.8747 36.4667 50.3231 35.4939 50.3231H16.6732C15.7002 50.3231 14.761 49.8747 14.1571 49.0816L2.41524 34.0776C1.81135 33.2844 1.57633 32.2497 1.77783 31.2493L5.97135 12.5206C6.20616 11.5202 6.84357 10.6924 7.71578 10.2785L24.6916 1.93178C25.1277 1.75929 25.6308 1.65591 26.1004 1.65591M26.1004 0.0347242C25.396 0.0347242 24.6915 0.207222 24.0204 0.517551L7.04507 8.8647C5.70302 9.52003 4.76377 10.7271 4.42821 12.2102L0.234487 30.939C-0.100873 32.4222 0.234487 33.9398 1.17394 35.147L12.9158 50.1508C13.8217 51.3234 15.1971 51.9788 16.6397 51.9788H35.4602C36.9028 51.9788 38.2784 51.3234 39.1841 50.1508L50.9262 35.1468C51.8654 33.9742 52.201 32.4222 51.8654 30.9388L47.6719 12.21C47.3365 10.7269 46.3971 9.51982 45.0552 8.86449L28.1467 0.517134C27.5093 0.207013 26.8049 0.0345154 26.1002 0.0345154" fill="white"/>
<path d="M43.1095 29.7661C43.0759 29.7661 43.0759 29.7661 43.1095 29.7661H43.076C43.0425 29.7661 43.009 29.7661 43.009 29.7316C42.9419 29.7316 42.8749 29.6972 42.8077 29.6972C42.5729 29.6627 42.3716 29.6283 42.1703 29.6283C42.0695 29.6283 41.969 29.6283 41.8347 29.5936H41.8012C41.0968 29.5247 40.5264 29.4558 39.9895 29.2833C39.7547 29.1797 39.6877 29.0419 39.6204 28.9038C39.6204 28.8694 39.5869 28.8694 39.5869 28.8349L39.1508 28.6971C39.357 27.0745 39.2775 25.4271 38.916 23.8335C38.5499 22.2266 37.9142 20.6976 37.0373 19.3151L37.3729 19.0048V18.9359C37.3729 18.7634 37.4064 18.5909 37.5405 18.4184C37.943 18.039 38.4464 17.7286 39.0503 17.3492C39.1508 17.2803 39.2514 17.2458 39.3521 17.1767C39.5534 17.0733 39.7212 16.9699 39.9225 16.8319C39.956 16.7974 40.023 16.763 40.0903 16.6941C40.1238 16.6594 40.1573 16.6594 40.1573 16.6249C40.6269 16.211 40.7277 15.5212 40.3921 15.0727C40.2243 14.8312 39.9225 14.6934 39.6204 14.6934C39.3523 14.6934 39.1173 14.7968 38.8825 14.9693L38.8155 15.0382C38.7484 15.0727 38.7147 15.1418 38.6477 15.1762C38.4799 15.3487 38.3456 15.4866 38.2116 15.6591C38.1445 15.728 38.0775 15.8316 37.9768 15.9005C37.5069 16.418 37.0708 16.8319 36.6347 17.1422C36.5342 17.2111 36.4336 17.2457 36.3329 17.2458C36.2658 17.2458 36.1986 17.2458 36.1316 17.2111H36.0645L35.6617 17.4872C35.2256 17.0044 34.756 16.5905 34.2864 16.1766C32.2641 14.5515 29.8304 13.5577 27.2747 13.3136L27.2412 12.8653L27.1742 12.7964C27.0734 12.6928 26.9394 12.5894 26.9056 12.348C26.8721 11.796 26.9394 11.1752 27.0064 10.4854V10.4509C27.0064 10.3473 27.0399 10.2095 27.0734 10.1059C27.1069 9.89918 27.1405 9.69202 27.1742 9.4506V9.14027C27.1742 8.51941 26.7043 8.00212 26.1342 8.00212C25.8656 8.00212 25.5973 8.13995 25.396 8.34691C25.1949 8.55386 25.0942 8.82974 25.0942 9.14027V9.41614C25.0942 9.65756 25.1277 9.86451 25.1947 10.0715C25.2282 10.1751 25.2282 10.2784 25.2617 10.4165V10.4509C25.3288 11.1407 25.4295 11.7616 25.3625 12.3135C25.329 12.5549 25.1947 12.6583 25.0942 12.7619L25.0271 12.8308L24.9934 13.2792C24.3895 13.3481 23.7856 13.417 23.1817 13.5551C20.5986 14.1415 18.3173 15.4868 16.5394 17.4181L16.2038 17.1767H16.1368C16.0697 17.1767 16.0025 17.2111 15.9355 17.2111C15.8349 17.2111 15.7342 17.1767 15.6334 17.1078C15.1973 16.7974 14.7612 16.3489 14.2916 15.8316C14.2245 15.7626 14.1575 15.6591 14.0568 15.5902C13.9225 15.4177 13.7882 15.2796 13.6205 15.1073C13.5869 15.0727 13.5199 15.0384 13.4529 14.9693C13.4194 14.9348 13.3858 14.9348 13.3858 14.9004C13.178 14.7238 12.9173 14.6263 12.6477 14.6243C12.3456 14.6243 12.0438 14.7623 11.876 15.0037C11.5405 15.4521 11.6412 16.1419 12.1108 16.5558C12.1443 16.5558 12.1443 16.5905 12.1779 16.5905C12.2449 16.6249 12.2786 16.6938 12.3456 16.7283C12.5469 16.8661 12.7147 16.9697 12.916 17.0733C13.0168 17.1078 13.1173 17.1767 13.2181 17.2458C13.8217 17.625 14.3251 17.9356 14.7277 18.315C14.8955 18.4873 14.8955 18.6598 14.8955 18.8323V18.9012L15.2308 19.2118C15.1638 19.3151 15.0968 19.3843 15.063 19.4876C13.3856 22.2125 12.7482 25.4202 13.1843 28.5935L12.7482 28.7313C12.7482 28.766 12.7147 28.766 12.7147 28.8002C12.6477 28.9383 12.5469 29.0763 12.3456 29.1797C11.8425 29.3522 11.2386 29.4213 10.5342 29.4902H10.5005C10.3999 29.4902 10.2656 29.4902 10.1651 29.5247C9.96379 29.5247 9.7625 29.5591 9.52769 29.5936C9.46065 29.5936 9.39362 29.6283 9.32639 29.6283C9.29287 29.6283 9.25936 29.6283 9.22564 29.6627C8.62175 29.8006 8.25267 30.387 8.35342 30.9387C8.45417 31.4217 8.89028 31.7323 9.42694 31.7323C9.52769 31.7323 9.59472 31.7323 9.69547 31.6976C9.72898 31.6976 9.7625 31.6976 9.7625 31.6632C9.82953 31.6632 9.89656 31.6287 9.96359 31.6287C10.1986 31.5598 10.3664 31.4909 10.5677 31.3873C10.6682 31.3528 10.7688 31.2837 10.8695 31.2495H10.903C11.5405 31.0078 12.1108 30.8009 12.6477 30.732H12.7147C12.916 30.732 13.0503 30.8353 13.1508 30.9045C13.1843 30.9045 13.1843 30.9389 13.2179 30.9389L13.6877 30.87C14.4929 33.4222 16.036 35.6987 18.0825 37.3543C18.5521 37.7336 19.0217 38.0441 19.5251 38.3547L19.3238 38.8028C19.3238 38.8375 19.3573 38.8375 19.3573 38.8717C19.4243 39.0098 19.4914 39.1823 19.4243 39.4237C19.2232 39.9412 18.9212 40.4585 18.5521 41.0449V41.0793C18.4851 41.1829 18.4181 41.2518 18.351 41.3552C18.2168 41.5277 18.116 41.7002 17.9817 41.9072C17.9482 41.9416 17.9147 42.0105 17.8812 42.0797C17.8812 42.1141 17.8477 42.1486 17.8477 42.1486C17.5794 42.735 17.7807 43.3903 18.2838 43.6317C18.4179 43.7008 18.5521 43.7353 18.6864 43.7353C19.089 43.7353 19.4916 43.4592 19.6929 43.0798C19.6929 43.0453 19.7264 43.0109 19.7264 43.0109C19.7599 42.9419 19.7934 42.873 19.8269 42.8384C19.9277 42.5969 19.9612 42.4244 20.0282 42.2175L20.129 41.9072C20.3638 41.2174 20.5316 40.6654 20.8334 40.1826C20.9675 39.9756 21.1355 39.9412 21.2695 39.8721C21.303 39.8721 21.303 39.8721 21.3366 39.8376L21.5716 39.3892C23.0477 39.9756 24.6581 40.286 26.2682 40.286C27.2412 40.286 28.2477 40.1826 29.1871 39.9412C29.7784 39.8055 30.3609 39.6327 30.9316 39.4237L31.1327 39.8031C31.1664 39.8031 31.1664 39.8031 31.1999 39.8376C31.3677 39.8721 31.5017 39.9412 31.636 40.1481C31.9043 40.631 32.1056 41.2174 32.3405 41.8727V41.9072L32.4412 42.2175C32.5082 42.4244 32.5417 42.6314 32.6423 42.8384C32.676 42.9073 32.7095 42.9419 32.743 43.0109C32.743 43.0453 32.7768 43.0798 32.7768 43.0798C32.9779 43.4937 33.3805 43.7353 33.783 43.7353C33.9174 43.7353 34.0516 43.7008 34.1856 43.6317C34.4205 43.4939 34.6217 43.2867 34.689 43.0109C34.756 42.735 34.756 42.4244 34.622 42.1486C34.622 42.1141 34.5882 42.1141 34.5882 42.0797C34.5547 42.0107 34.5212 41.9418 34.4877 41.9072C34.3869 41.7002 34.2529 41.5277 34.1186 41.3552C34.0516 41.2518 33.9845 41.1829 33.9175 41.0795V41.0449C33.5482 40.4585 33.2127 39.9412 33.0451 39.4237C32.9781 39.1823 33.0451 39.0444 33.0786 38.8719C33.0786 38.8375 33.1121 38.8375 33.1121 38.803L32.9443 38.3891C34.7225 37.3199 36.2321 35.8021 37.3729 33.9397C37.9768 32.9738 38.4464 31.9046 38.7817 30.8353L39.1843 30.9043C39.2181 30.9043 39.2181 30.8698 39.2514 30.8698C39.3856 30.8009 39.4864 30.6975 39.6877 30.6975H39.7547C40.2916 30.7664 40.8617 30.9732 41.4994 31.2148H41.5329C41.6334 31.2492 41.734 31.3182 41.8347 31.3526C42.036 31.4562 42.2038 31.5251 42.4386 31.5942C42.5056 31.5942 42.5727 31.6287 42.6399 31.6287C42.6734 31.6287 42.7069 31.6287 42.7404 31.6632C42.8412 31.6976 42.9082 31.6976 43.009 31.6976C43.5121 31.6976 43.9482 31.3528 44.0825 30.9045C44.0825 30.4906 43.7134 29.9386 43.1095 29.7663M27.5766 28.0762L26.1005 28.8007L24.6243 28.0762L24.2555 26.4552L25.2617 25.1446H26.9056L27.9121 26.4552L27.5766 28.0762ZM36.3329 24.4893C36.593 25.6298 36.6723 26.8061 36.5677 27.9726L31.4347 26.4552C30.9651 26.3174 30.6968 25.8344 30.7973 25.3515C30.8308 25.2135 30.8981 25.0755 30.9986 24.9721L35.0581 21.2124C35.6282 22.1783 36.0643 23.2822 36.3329 24.4893ZM33.4477 19.1429L29.0529 22.3506C28.6838 22.592 28.1804 22.5229 27.8786 22.1436C27.7781 22.04 27.7445 21.902 27.7108 21.7642L27.409 16.1419C29.6938 16.4124 31.8222 17.4701 33.4477 19.1429ZM23.7186 16.3142C24.0877 16.2453 24.423 16.1764 24.7921 16.1074L24.4903 21.6259C24.4568 22.1087 24.0877 22.5226 23.5843 22.5226C23.4503 22.5226 23.2825 22.4882 23.1817 22.4193L18.7199 19.1429C20.0955 17.7286 21.8064 16.7626 23.7186 16.3142ZM17.1095 21.2122L21.1017 24.8683C21.4708 25.1788 21.5043 25.765 21.2025 26.1445C21.1017 26.2823 20.9677 26.3859 20.7999 26.4206L15.5999 27.9726C15.3986 25.6272 15.9017 23.2473 17.1095 21.2122ZM16.2036 30.5595L21.5381 29.6281C21.9742 29.5936 22.3768 29.9041 22.4773 30.3525C22.5108 30.5593 22.5108 30.732 22.4438 30.9045L20.3973 35.9746C18.5186 34.7328 17.0088 32.8358 16.2036 30.5595ZM28.4492 37.4233C27.6775 37.5958 26.9058 37.6991 26.1007 37.6991C24.9266 37.6991 23.7858 37.4924 22.7125 37.1474L25.3627 32.2151C25.631 31.9046 26.0671 31.7667 26.4362 31.9737C26.593 32.0722 26.7297 32.201 26.8388 32.3529L29.422 37.1474C29.1201 37.2508 28.7847 37.3199 28.4492 37.4233ZM34.9908 32.629C34.1521 34.0086 33.0449 35.1123 31.7703 35.9746L29.6568 30.7662C29.556 30.3525 29.7238 29.9041 30.1264 29.697C30.2605 29.6281 30.4282 29.5936 30.596 29.5936L35.9638 30.525C35.7625 31.2837 35.4269 31.9737 34.9908 32.629Z" fill="white"/>
</g>
<defs>
<clipPath id="clip0_142_14">
<rect width="52" height="52" fill="white"/>
</clipPath>
</defs>
</svg>
