<svg width="23" height="24" viewBox="0 0 23 24" fill="none" xmlns="http://www.w3.org/2000/svg">
<rect x="0.198486" y="0.851562" width="22.5922" height="22.5922" rx="11.2961" fill="white"/>
<g clip-path="url(#clip0_26_1573)">
<path d="M8.72207 19.6242C8.36304 19.6242 8.02399 19.4602 7.7946 19.1628L4.30422 14.7027C4.07482 14.4054 3.9851 14.0261 4.07482 13.6569L5.32141 8.08946C5.40118 7.72034 5.64053 7.42298 5.96967 7.25896L11.0159 4.77764C11.1755 4.6957 11.355 4.65466 11.5345 4.65466C11.714 4.65466 11.8935 4.69564 12.053 4.7777L17.0993 7.24872C17.4284 7.41273 17.6677 7.7101 17.7475 8.07922L18.9941 13.6466C19.0739 14.0158 18.9941 14.3951 18.7648 14.6925L15.2743 19.1526C15.0449 19.4397 14.7058 19.614 14.3468 19.614L8.72207 19.6242Z" fill="#326DE6"/>
<path d="M11.5243 4.91088C11.664 4.91088 11.8036 4.94161 11.9332 5.00313L16.9795 7.47414C17.2387 7.60743 17.4382 7.85351 17.498 8.14063L18.7446 13.7081C18.8144 14.0054 18.7446 14.313 18.5551 14.5488L15.0647 19.009C14.8852 19.2447 14.6059 19.378 14.3167 19.378H8.72197C8.43274 19.378 8.15353 19.2447 7.97402 19.009L4.48357 14.5488C4.30405 14.313 4.23419 14.0054 4.29409 13.7081L5.54068 8.14063C5.61048 7.84327 5.79996 7.59719 6.05924 7.47414L11.1056 4.99295C11.2352 4.94167 11.3848 4.91094 11.5244 4.91094M11.5244 4.42902C11.315 4.42902 11.1056 4.48029 10.906 4.57255L5.85986 7.05387C5.46091 7.24867 5.18171 7.60749 5.08196 8.04838L3.83531 13.6158C3.73562 14.0567 3.83531 14.5078 4.11457 14.8667L7.60502 19.3268C7.87433 19.6754 8.28317 19.8702 8.71201 19.8702H14.3067C14.7355 19.8702 15.1444 19.6754 15.4137 19.3268L18.9042 14.8666C19.1834 14.5181 19.2832 14.0567 19.1834 13.6157L17.9368 8.04832C17.8371 7.60743 17.5579 7.24861 17.159 7.0538L12.1327 4.57242C11.9432 4.48023 11.7338 4.42896 11.5243 4.42896" fill="white"/>
<path d="M16.5806 13.2672C16.5706 13.2672 16.5706 13.2672 16.5806 13.2672H16.5706C16.5607 13.2672 16.5507 13.2672 16.5507 13.2569C16.5308 13.2569 16.5109 13.2467 16.4909 13.2467C16.4211 13.2364 16.3612 13.2262 16.3014 13.2262C16.2714 13.2262 16.2416 13.2262 16.2016 13.2159H16.1917C15.9823 13.1954 15.8127 13.1749 15.6531 13.1236C15.5833 13.0928 15.5634 13.0519 15.5434 13.0108C15.5434 13.0006 15.5335 13.0006 15.5335 12.9904L15.4038 12.9494C15.4651 12.4671 15.4415 11.9773 15.334 11.5036C15.2252 11.0259 15.0362 10.5714 14.7755 10.1605L14.8753 10.0682V10.0477C14.8753 9.99645 14.8853 9.94517 14.9251 9.89389C15.0448 9.78109 15.1944 9.68884 15.3739 9.57604C15.4038 9.55556 15.4337 9.54531 15.4637 9.52476C15.5235 9.49404 15.5734 9.46331 15.6332 9.42227C15.6432 9.41203 15.6631 9.40179 15.6831 9.3813C15.693 9.37099 15.703 9.37099 15.703 9.36075C15.8426 9.23771 15.8726 9.03266 15.7728 8.89931C15.7229 8.82755 15.6332 8.78658 15.5434 8.78658C15.4637 8.78658 15.3938 8.81731 15.324 8.86858L15.3041 8.88907C15.2842 8.89931 15.2742 8.91986 15.2542 8.9301C15.2044 8.98138 15.1645 9.02235 15.1246 9.07363C15.1047 9.09412 15.0848 9.12491 15.0548 9.1454C14.9151 9.29923 14.7855 9.42227 14.6559 9.51452C14.626 9.53501 14.5961 9.54527 14.5661 9.54531C14.5462 9.54531 14.5262 9.54531 14.5063 9.53501H14.4864L14.3666 9.61708C14.237 9.47355 14.0974 9.35051 13.9578 9.22747C13.3566 8.74438 12.6332 8.44898 11.8735 8.37642L11.8635 8.24313L11.8436 8.22265C11.8136 8.19185 11.7738 8.16112 11.7637 8.08936C11.7538 7.92528 11.7738 7.74072 11.7937 7.53567V7.52543C11.7937 7.49464 11.8037 7.45367 11.8136 7.42287C11.8236 7.36142 11.8335 7.29983 11.8436 7.22807V7.13582C11.8436 6.95126 11.7039 6.79749 11.5344 6.79749C11.4546 6.79749 11.3748 6.83846 11.315 6.89998C11.2552 6.9615 11.2253 7.04351 11.2253 7.13582V7.21783C11.2253 7.28959 11.2352 7.35111 11.2551 7.41263C11.2651 7.44342 11.2651 7.47415 11.2751 7.51519V7.52543C11.295 7.73048 11.3249 7.91504 11.305 8.07912C11.2951 8.15088 11.2551 8.18161 11.2253 8.2124L11.2053 8.23289L11.1953 8.36617C11.0158 8.38666 10.8363 8.40715 10.6568 8.44818C9.88888 8.6225 9.21073 9.02242 8.6822 9.59653L8.58245 9.52476H8.56252C8.5426 9.52476 8.52261 9.53501 8.50268 9.53501C8.47278 9.53501 8.44285 9.52476 8.4129 9.50428C8.28326 9.41203 8.15362 9.27868 8.01401 9.12491C7.99409 9.10442 7.97416 9.07363 7.94421 9.05315C7.9043 9.00187 7.86439 8.96083 7.81451 8.90962C7.80455 8.89931 7.78462 8.88913 7.7647 8.86858C7.75473 8.85834 7.74477 8.85834 7.74477 8.8481C7.68299 8.79561 7.60549 8.76662 7.52534 8.76603C7.43555 8.76603 7.34582 8.80706 7.29595 8.87883C7.1962 9.01211 7.22615 9.21716 7.36575 9.3402C7.37571 9.3402 7.37571 9.35051 7.38568 9.35051C7.4056 9.36075 7.41563 9.38124 7.43555 9.39148C7.49539 9.43245 7.54527 9.46324 7.60511 9.49404C7.63505 9.50428 7.66494 9.52476 7.69489 9.54531C7.87435 9.65805 8.02398 9.75036 8.14365 9.86316C8.19353 9.91438 8.19353 9.96565 8.19353 10.0169V10.0374L8.29322 10.1297C8.27329 10.1605 8.25337 10.181 8.24334 10.2117C7.74471 11.0218 7.55523 11.9753 7.68487 12.9186L7.55523 12.9596C7.55523 12.9699 7.54527 12.9699 7.54527 12.9801C7.52534 13.0211 7.49539 13.0621 7.43555 13.0928C7.28599 13.1441 7.10647 13.1647 6.89707 13.1852H6.88704C6.85715 13.1852 6.81724 13.1852 6.78735 13.1954C6.72751 13.1954 6.66767 13.2056 6.59787 13.2159C6.57795 13.2159 6.55802 13.2262 6.53803 13.2262C6.52807 13.2262 6.51811 13.2262 6.50808 13.2364C6.32857 13.2774 6.21885 13.4517 6.2488 13.6157C6.27875 13.7593 6.40839 13.8516 6.56792 13.8516C6.59787 13.8516 6.6178 13.8516 6.64775 13.8413C6.65771 13.8413 6.66767 13.8413 6.66767 13.8311C6.6876 13.8311 6.70753 13.8209 6.72745 13.8209C6.79731 13.8004 6.84719 13.7799 6.90703 13.7491C6.93692 13.7388 6.96681 13.7183 6.99676 13.7081H7.00672C7.1962 13.6363 7.36575 13.5748 7.52534 13.5543H7.54527C7.60511 13.5543 7.64502 13.585 7.67491 13.6056C7.68487 13.6056 7.68487 13.6158 7.69483 13.6158L7.8345 13.5953C8.07385 14.354 8.53257 15.0307 9.14092 15.5229C9.28053 15.6356 9.42013 15.7279 9.56976 15.8203L9.50992 15.9535C9.50992 15.9638 9.51988 15.9638 9.51988 15.974C9.53981 16.015 9.55973 16.0663 9.53981 16.138C9.48003 16.2919 9.39024 16.4456 9.28053 16.62V16.6302C9.2606 16.661 9.24067 16.6815 9.22075 16.7122C9.18084 16.7635 9.15089 16.8148 9.11097 16.8763C9.10101 16.8865 9.09105 16.907 9.08108 16.9276C9.08108 16.9378 9.07112 16.9481 9.07112 16.9481C8.99136 17.1224 9.0512 17.3172 9.20076 17.3889C9.24061 17.4095 9.28051 17.4197 9.32044 17.4197C9.44012 17.4197 9.55979 17.3377 9.61963 17.2249C9.61963 17.2146 9.6296 17.2044 9.6296 17.2044C9.63956 17.1839 9.64952 17.1634 9.65948 17.1531C9.68943 17.0813 9.6994 17.0301 9.71932 16.9685L9.74927 16.8763C9.81907 16.6712 9.86895 16.5072 9.95868 16.3636C9.99853 16.3021 10.0485 16.2919 10.0883 16.2713C10.0983 16.2713 10.0983 16.2713 10.1082 16.2611L10.1781 16.1278C10.6169 16.3021 11.0956 16.3944 11.5743 16.3944C11.8635 16.3944 12.1627 16.3636 12.442 16.2919C12.6177 16.2515 12.7909 16.2002 12.9605 16.138L13.0203 16.2508C13.0303 16.2508 13.0303 16.2508 13.0403 16.2611C13.0902 16.2713 13.13 16.2919 13.1699 16.3534C13.2497 16.4969 13.3095 16.6712 13.3793 16.866V16.8763L13.4093 16.9685C13.4292 17.0301 13.4392 17.0916 13.4691 17.1531C13.4791 17.1736 13.489 17.1839 13.499 17.2044C13.499 17.2146 13.509 17.2249 13.509 17.2249C13.5688 17.3479 13.6885 17.4197 13.8082 17.4197C13.8481 17.4197 13.888 17.4095 13.9278 17.3889C13.9976 17.348 14.0575 17.2864 14.0775 17.2044C14.0974 17.1224 14.0974 17.0301 14.0575 16.9481C14.0575 16.9378 14.0475 16.9378 14.0475 16.9276C14.0375 16.9071 14.0276 16.8866 14.0176 16.8763C13.9877 16.8148 13.9478 16.7635 13.9079 16.7122C13.888 16.6815 13.8681 16.661 13.8481 16.6303V16.62C13.7384 16.4456 13.6386 16.2919 13.5888 16.138C13.5689 16.0663 13.5888 16.0253 13.5988 15.974C13.5988 15.9638 13.6087 15.9638 13.6087 15.9535L13.5588 15.8305C14.0874 15.5126 14.5362 15.0615 14.8753 14.5078C15.0548 14.2207 15.1944 13.9029 15.2941 13.585L15.4138 13.6055C15.4238 13.6055 15.4238 13.5953 15.4337 13.5953C15.4736 13.5748 15.5036 13.544 15.5634 13.544H15.5833C15.7429 13.5645 15.9124 13.626 16.1019 13.6978H16.1119C16.1418 13.7081 16.1717 13.7285 16.2016 13.7388C16.2615 13.7696 16.3114 13.7901 16.3812 13.8106C16.4011 13.8106 16.421 13.8209 16.441 13.8209C16.451 13.8209 16.4609 13.8209 16.4709 13.8311C16.5008 13.8413 16.5208 13.8413 16.5507 13.8413C16.7003 13.8413 16.8299 13.7388 16.8698 13.6056C16.8698 13.4825 16.7601 13.3184 16.5806 13.2672M11.9632 12.7648L11.5244 12.9802L11.0856 12.7648L10.9759 12.283L11.2751 11.8933H11.7637L12.0629 12.283L11.9632 12.7648ZM14.5661 11.6985C14.6435 12.0376 14.667 12.3873 14.6359 12.734L13.1101 12.283C12.9705 12.242 12.8907 12.0984 12.9206 11.9549C12.9306 11.9138 12.9505 11.8728 12.9804 11.8421L14.1872 10.7245C14.3567 11.0116 14.4863 11.3397 14.5661 11.6985ZM13.7085 10.1092L12.402 11.0628C12.2923 11.1345 12.1427 11.114 12.053 11.0013C12.0231 10.9705 12.0131 10.9294 12.0031 10.8885L11.9134 9.21716C12.5926 9.29757 13.2253 9.61199 13.7085 10.1092ZM10.8163 9.26838C10.9261 9.24789 11.0257 9.2274 11.1355 9.20692L11.0457 10.8474C11.0358 10.9909 10.9261 11.1139 10.7764 11.1139C10.7366 11.1139 10.6867 11.1037 10.6568 11.0832L9.3304 10.1092C9.73931 9.68884 10.2479 9.40166 10.8163 9.26838ZM8.85169 10.7244L10.0384 11.8112C10.1482 11.9035 10.1581 12.0778 10.0684 12.1906C10.0384 12.2316 9.99859 12.2623 9.94871 12.2727L8.40293 12.734C8.3431 12.0368 8.49266 11.3294 8.85169 10.7244ZM8.58239 13.503L10.1681 13.2261C10.2978 13.2159 10.4175 13.3082 10.4473 13.4415C10.4573 13.5029 10.4573 13.5543 10.4374 13.6056L9.82904 15.1127C9.27056 14.7436 8.82174 14.1797 8.58239 13.503ZM12.2226 15.5434C11.9932 15.5947 11.7638 15.6254 11.5244 15.6254C11.1754 15.6254 10.8363 15.5639 10.5173 15.4614L11.3051 13.9952C11.3848 13.9029 11.5145 13.8619 11.6242 13.9234C11.6708 13.9527 11.7114 13.991 11.7439 14.0361L12.5118 15.4614C12.422 15.4921 12.3223 15.5126 12.2226 15.5434ZM14.1672 14.1182C13.9179 14.5283 13.5887 14.8564 13.2098 15.1127L12.5816 13.5645C12.5516 13.4415 12.6015 13.3082 12.7212 13.2466C12.761 13.2261 12.8109 13.2159 12.8608 13.2159L14.4564 13.4928C14.3966 13.7183 14.2968 13.9234 14.1672 14.1182Z" fill="white"/>
</g>
<defs>
<clipPath id="clip0_26_1573">
<rect width="15.4578" height="15.4578" fill="white" transform="translate(3.76562 4.4187)"/>
</clipPath>
</defs>
</svg>
