<svg width="34" height="34" viewBox="0 0 34 34" fill="none" xmlns="http://www.w3.org/2000/svg">
<g clip-path="url(#clip0_4_107)">
<path d="M25.4921 0.16095H7.80481C3.49521 0.16095 0.00158691 3.65457 0.00158691 7.96417V25.6515C0.00158691 29.9611 3.49521 33.4547 7.80481 33.4547H25.4921C29.8017 33.4547 33.2953 29.9611 33.2953 25.6515V7.96417C33.2953 3.65457 29.8017 0.16095 25.4921 0.16095Z" fill="white"/>
<path d="M25.4921 0.16095H7.80481C3.49521 0.16095 0.00158691 3.65457 0.00158691 7.96417V25.6515C0.00158691 29.9611 3.49521 33.4547 7.80481 33.4547H25.4921C29.8017 33.4547 33.2953 29.9611 33.2953 25.6515V7.96417C33.2953 3.65457 29.8017 0.16095 25.4921 0.16095Z" fill="#0A66C2"/>
<path d="M24.0244 28.4717H27.8311C27.9691 28.4717 28.1014 28.4169 28.1989 28.3193C28.2965 28.2218 28.3513 28.0895 28.3513 27.9516L28.3533 19.9088C28.3533 15.7051 27.4474 12.4739 22.5349 12.4739C20.6675 12.4044 18.9064 13.3671 17.9561 14.9746C17.9515 14.9824 17.9444 14.9884 17.936 14.9919C17.9276 14.9953 17.9183 14.9958 17.9095 14.9935C17.9007 14.9911 17.893 14.9859 17.8874 14.9787C17.8819 14.9715 17.8788 14.9627 17.8787 14.9536V13.3822C17.8787 13.2442 17.8239 13.1119 17.7264 13.0143C17.6288 12.9168 17.4965 12.862 17.3585 12.862H13.746C13.6081 12.862 13.4757 12.9168 13.3782 13.0143C13.2806 13.1119 13.2258 13.2442 13.2258 13.3822V27.9508C13.2258 28.0888 13.2806 28.2211 13.3782 28.3186C13.4757 28.4162 13.6081 28.471 13.746 28.471H17.5524C17.6904 28.471 17.8227 28.4162 17.9203 28.3186C18.0178 28.2211 18.0727 28.0888 18.0727 27.9508V20.7493C18.0727 18.7131 18.4589 16.7411 20.9834 16.7411C23.472 16.7411 23.5042 19.0711 23.5042 20.8812V27.9515C23.5042 28.0894 23.559 28.2217 23.6566 28.3193C23.7541 28.4169 23.8865 28.4717 24.0244 28.4717ZM4.9436 7.91577C4.9436 9.45873 6.21384 10.7283 7.75693 10.7283C9.29962 10.7282 10.5691 9.45782 10.5691 7.91512C10.5688 6.37242 9.29923 5.10297 7.75641 5.10297C6.21319 5.10297 4.9436 6.37281 4.9436 7.91577ZM5.84865 28.4717H9.66013C9.7981 28.4717 9.93042 28.4169 10.028 28.3193C10.1255 28.2217 10.1803 28.0894 10.1803 27.9515V13.3822C10.1803 13.2442 10.1255 13.1119 10.028 13.0143C9.93042 12.9168 9.7981 12.862 9.66013 12.862H5.84865C5.71068 12.862 5.57836 12.9168 5.4808 13.0143C5.38324 13.1119 5.32843 13.2442 5.32843 13.3822V27.9515C5.32843 28.0894 5.38324 28.2217 5.4808 28.3193C5.57836 28.4169 5.71068 28.4717 5.84865 28.4717Z" fill="white"/>
</g>
<defs>
<clipPath id="clip0_4_107">
<rect width="33.2938" height="33.2938" fill="white" transform="translate(0.00158691 0.16095)"/>
</clipPath>
</defs>
</svg>
