<svg width="34" height="34" viewBox="0 0 34 34" fill="none" xmlns="http://www.w3.org/2000/svg">
<path d="M26.9167 21.25C26.9167 22.5523 26.6602 23.8418 26.1618 25.045C25.6635 26.2481 24.933 27.3413 24.0122 28.2622C23.0913 29.183 21.9981 29.9135 20.795 30.4118C19.5918 30.9102 18.3023 31.1667 17 31.1667C15.6978 31.1667 14.4082 30.9102 13.2051 30.4118C12.002 29.9135 10.9087 29.183 9.9879 28.2622C9.06705 27.3413 8.33659 26.2481 7.83824 25.045C7.33988 23.8418 7.08337 22.5523 7.08337 21.25V12.75C7.08337 10.1199 8.12816 7.5976 9.9879 5.73787C11.8476 3.87813 14.37 2.83334 17 2.83334C19.6301 2.83334 22.1524 3.87813 24.0122 5.73787C25.8719 7.5976 26.9167 10.1199 26.9167 12.75V15.5833" stroke="#94A3B8" stroke-width="1.5" stroke-linecap="round"/>
<path d="M14.875 12.0417C14.875 11.4781 15.0989 10.9376 15.4974 10.5391C15.8959 10.1406 16.4364 9.91669 17 9.91669C17.5636 9.91669 18.1041 10.1406 18.5026 10.5391C18.9011 10.9376 19.125 11.4781 19.125 12.0417V14.875C19.125 15.4386 18.9011 15.9791 18.5026 16.3776C18.1041 16.7761 17.5636 17 17 17C16.4364 17 15.8959 16.7761 15.4974 16.3776C15.0989 15.9791 14.875 15.4386 14.875 14.875V12.0417Z" stroke="#94A3B8" stroke-width="1.5"/>
<path d="M17 2.83334V9.91668" stroke="#94A3B8" stroke-width="1.5" stroke-linecap="round"/>
</svg>
