<svg width="25" height="25" viewBox="0 0 25 25" fill="none" xmlns="http://www.w3.org/2000/svg">
<g clip-path="url(#clip0_26_1552)">
<mask id="mask0_26_1552" style="mask-type:luminance" maskUnits="userSpaceOnUse" x="0" y="0" width="25" height="25">
<path d="M12.611 24.4437C19.178 24.4437 24.5016 19.1201 24.5016 12.5531C24.5016 5.98609 19.178 0.662476 12.611 0.662476C6.04395 0.662476 0.720337 5.98609 0.720337 12.5531C0.720337 19.1201 6.04395 24.4437 12.611 24.4437Z" fill="white"/>
</mask>
<g mask="url(#mask0_26_1552)">
<path d="M12.0164 23.2547C18.2551 23.2547 23.3125 18.1972 23.3125 11.9586C23.3125 5.71991 18.2551 0.662476 12.0164 0.662476C5.77777 0.662476 0.720337 5.71991 0.720337 11.9586C0.720337 18.1972 5.77777 23.2547 12.0164 23.2547Z" fill="black"/>
<path d="M20.4731 21.4737L9.85524 7.79688H7.85474V17.3054H9.45514V9.82943L19.2168 22.4415C19.6566 22.1472 20.0763 21.8239 20.4731 21.4737Z" fill="url(#paint0_linear_26_1552)"/>
<path d="M15.9139 7.79688H17.4994V17.3094H15.9139V7.79688Z" fill="url(#paint1_linear_26_1552)"/>
</g>
</g>
<defs>
<linearGradient id="paint0_linear_26_1552" x1="709.852" y1="833.533" x2="1131.23" y2="1355.81" gradientUnits="userSpaceOnUse">
<stop stop-color="white"/>
<stop offset="1" stop-color="white" stop-opacity="0"/>
</linearGradient>
<linearGradient id="paint1_linear_26_1552" x1="95.1863" y1="7.79687" x2="92.5039" y2="706.366" gradientUnits="userSpaceOnUse">
<stop stop-color="white"/>
<stop offset="1" stop-color="white" stop-opacity="0"/>
</linearGradient>
<clipPath id="clip0_26_1552">
<rect width="23.7812" height="23.7812" fill="white" transform="translate(0.720337 0.662476)"/>
</clipPath>
</defs>
</svg>
