<svg width="23" height="24" viewBox="0 0 23 24" fill="none" xmlns="http://www.w3.org/2000/svg">
<rect x="0.154663" y="0.851562" width="22.5922" height="22.5922" rx="11.2961" fill="white"/>
<g clip-path="url(#clip0_26_1592)">
<path d="M11.8079 4.51838C11.697 4.45482 11.5714 4.42139 11.4435 4.42139C11.3157 4.42139 11.1901 4.45482 11.0791 4.51838L5.06266 8.01269C4.83381 8.14215 4.7052 8.38646 4.7052 8.6455V15.6484C4.7052 15.9072 4.84806 16.1516 5.06242 16.2812L11.0789 19.7754C11.1898 19.8389 11.3155 19.8724 11.4434 19.8724C11.5712 19.8724 11.6969 19.8389 11.8078 19.7754L17.8243 16.2811C18.053 16.1516 18.1815 15.9072 18.1815 15.6482V8.6455C18.1815 8.38658 18.0387 8.14227 17.8243 8.01269L11.8079 4.51838Z" fill="url(#paint0_linear_26_1592)"/>
<path d="M17.8388 8.0127L11.7939 4.51839C11.7346 4.48809 11.6723 4.46401 11.608 4.44653L4.83411 16.1085C4.89022 16.1773 4.95795 16.2357 5.03421 16.2812L11.0793 19.7754C11.2508 19.876 11.4508 19.9048 11.6366 19.8472L17.9961 8.14216C17.9543 8.08748 17.9005 8.04317 17.8388 8.0127Z" fill="url(#paint1_linear_26_1592)"/>
<path d="M17.839 16.2808C18.0105 16.1802 18.1391 16.0076 18.1962 15.8207L11.5795 4.43177C11.4081 4.40303 11.2222 4.4174 11.0651 4.51812L5.06287 7.99806L11.5365 19.8758C11.6223 19.8613 11.7225 19.8326 11.8083 19.7895L17.839 16.2808Z" fill="url(#paint2_linear_26_1592)"/>
</g>
<defs>
<linearGradient id="paint0_linear_26_1592" x1="13.8936" y1="7.12055" x2="8.39905" y2="18.2599" gradientUnits="userSpaceOnUse">
<stop stop-color="#3F873F"/>
<stop offset="0.33" stop-color="#3F8B3D"/>
<stop offset="0.637" stop-color="#3E9638"/>
<stop offset="0.934" stop-color="#3DA92E"/>
<stop offset="1" stop-color="#3DAE2B"/>
</linearGradient>
<linearGradient id="paint1_linear_26_1592" x1="10.5294" y1="12.9647" x2="25.8599" y2="1.70738" gradientUnits="userSpaceOnUse">
<stop offset="0.138" stop-color="#3F873F"/>
<stop offset="0.402" stop-color="#52A044"/>
<stop offset="0.713" stop-color="#64B749"/>
<stop offset="0.908" stop-color="#6ABF4B"/>
</linearGradient>
<linearGradient id="paint2_linear_26_1592" x1="4.48509" y1="12.1445" x2="18.4068" y2="12.1445" gradientUnits="userSpaceOnUse">
<stop offset="0.092" stop-color="#6ABF4B"/>
<stop offset="0.287" stop-color="#64B749"/>
<stop offset="0.598" stop-color="#52A044"/>
<stop offset="0.862" stop-color="#3F873F"/>
</linearGradient>
<clipPath id="clip0_26_1592">
<rect width="15.4578" height="15.4578" fill="white" transform="translate(3.72192 4.4187)"/>
</clipPath>
</defs>
</svg>
