<svg width="31" height="40" viewBox="0 0 31 40" fill="none" xmlns="http://www.w3.org/2000/svg">
<g clip-path="url(#clip0_4_124)">
<path d="M25.2387 37.0323C24.9919 38.7969 23.2173 40.1806 21.4428 39.6977C18.9281 39.029 16.0149 37.9703 13.3958 37.7752L9.3723 37.478C8.72594 37.4335 8.11848 37.1594 7.66421 36.7072L0.736935 29.7604C0.369074 29.3904 0.123478 28.9205 0.0320742 28.4121C-0.0593296 27.9036 0.00768707 27.3799 0.224412 26.9092C0.224412 26.9092 4.49463 17.7521 4.66551 17.2785C4.81731 16.8048 5.4058 12.6442 5.74732 10.4152C5.84309 9.82339 6.14478 9.2821 6.60136 8.88288L14.7812 1.71301C15.0507 1.47638 15.3668 1.29615 15.71 1.18339C16.0532 1.07063 16.4164 1.02772 16.7772 1.05729C17.138 1.08686 17.4888 1.1883 17.8081 1.35536C18.1274 1.52243 18.4084 1.7516 18.6339 2.02881L25.5233 10.5359C25.9088 11.0217 26.1161 11.6204 26.1117 12.2355C26.1117 13.8421 26.254 17.1576 27.1744 19.2938C28.0878 21.2148 29.2211 23.0281 30.5526 24.6988C30.7139 24.9037 30.8091 25.151 30.826 25.409C30.8429 25.6671 30.7808 25.9243 30.6476 26.1476C30.0498 27.1413 28.8541 29.0545 27.1744 31.4969C26.1109 33.1763 25.4461 35.0679 25.2291 37.0322L25.2387 37.0323Z" fill="black" fill-opacity="0.3"/>
<path d="M25.3049 36.735C25.0582 38.5089 23.2837 39.8927 21.509 39.4191C19.0039 38.7411 16.1 37.6823 13.4716 37.4873L9.45749 37.1901C8.80962 37.144 8.20169 36.8663 7.74941 36.41L0.822133 29.4446C0.450611 29.0709 0.20295 28.5962 0.111531 28.0825C0.0201122 27.5688 0.0891891 27.0401 0.30973 26.5655C0.30973 26.5655 4.58937 17.3713 4.75071 16.8883C4.91205 16.4147 5.491 12.2448 5.83252 9.99727C5.9262 9.4021 6.22806 8.8572 6.68656 8.4556L14.8665 1.25807C15.1366 1.02197 15.4532 0.842409 15.7968 0.730409C16.1404 0.618409 16.5037 0.576336 16.8645 0.606775C17.2253 0.637214 17.576 0.739522 17.8949 0.907415C18.2138 1.07531 18.4943 1.30524 18.7191 1.58309L25.5991 10.1273C25.9832 10.6138 26.1903 11.212 26.1873 11.8268C26.1873 13.4429 26.3298 16.7677 27.2407 18.9129C28.1533 20.8431 29.2867 22.6658 30.619 24.346C30.7837 24.5508 30.8817 24.7993 30.9003 25.0593C30.9189 25.3193 30.8573 25.5787 30.7233 25.804C30.1159 26.8071 28.9299 28.7202 27.2407 31.1813C26.1813 32.8685 25.5199 34.7659 25.3049 36.735Z" fill="#6C31E3"/>
<path d="M8.48988 36.9301C11.7068 30.5498 11.6213 25.9713 10.2454 22.7207C8.99286 19.7117 6.64895 17.8171 4.80802 16.6377C4.77122 16.8108 4.71387 16.9791 4.63714 17.1392L0.31004 26.5657C0.0906868 27.0412 0.0231429 27.5704 0.116251 28.0841C0.209358 28.5979 0.458779 29.0721 0.831862 29.4448L7.74972 36.41C7.96662 36.6208 8.21647 36.7964 8.48988 36.9301Z" fill="url(#paint0_radial_4_124)"/>
<path d="M17.239 23.9838C18.1077 24.0673 18.9622 24.2576 19.7822 24.5503C22.4202 25.5161 24.821 27.6894 26.8043 31.8779C26.9467 31.6365 27.089 31.4042 27.2409 31.1813C28.4529 29.4211 29.6142 27.628 30.7235 25.804C30.8587 25.5797 30.922 25.3207 30.9051 25.0608C30.8881 24.8008 30.7918 24.5518 30.6286 24.346C29.2929 22.6663 28.1564 20.8436 27.2409 18.913C26.3298 16.7769 26.197 13.4429 26.1875 11.8269C26.1875 11.214 25.9882 10.6102 25.5992 10.1273L18.7193 1.58314L18.6054 1.44391C19.1084 3.06902 19.08 4.36935 18.7667 5.54876C18.4821 6.64462 17.9507 7.63836 17.3908 8.68789C17.201 9.0408 17.0112 9.40294 16.8309 9.77441C15.9385 11.4425 15.4269 13.2804 15.3316 15.161C15.2367 17.4085 15.7016 20.2225 17.2295 23.9839L17.239 23.9838Z" fill="url(#paint1_radial_4_124)"/>
<path d="M17.2295 23.9838C15.7016 20.2225 15.2367 17.4085 15.3316 15.1609C15.4265 12.9321 16.0907 11.2604 16.8309 9.77442L17.4003 8.6879C17.9507 7.63837 18.4727 6.64463 18.7668 5.54877C19.116 4.19363 19.06 2.7688 18.6054 1.44392C17.6229 0.387299 15.9534 0.30433 14.8666 1.25812L6.68683 8.45565C6.22833 8.85725 5.92647 9.40215 5.83279 9.99732L4.83648 16.4611C4.83648 16.5261 4.8174 16.5819 4.80798 16.6469C6.64891 17.8171 8.98328 19.7117 10.2454 22.7115C10.4921 23.3059 10.7009 23.9281 10.8527 24.6061C12.9264 24.0434 15.0828 23.8298 17.2297 23.9746L17.2295 23.9838Z" fill="url(#paint2_radial_4_124)"/>
<path d="M21.5187 39.4192C23.2838 39.8928 25.0583 38.509 25.305 36.7257C25.5071 35.0344 26.0181 33.3923 26.8139 31.8779C24.821 27.6893 22.4202 25.5161 19.7917 24.5503C16.9924 23.5288 13.9462 23.8724 10.8526 24.6061C11.5453 27.6802 11.1372 31.7015 8.49927 36.9301C8.79345 37.0787 9.12555 37.1623 9.45765 37.1901L13.6235 37.4966C15.8819 37.6545 19.2508 38.7968 21.5187 39.4191" fill="url(#paint3_radial_4_124)"/>
<path d="M15.3506 15.0217C15.2462 17.2506 15.5309 19.7954 17.0586 23.5473L16.5842 23.5009C15.2082 19.591 14.9046 17.585 15.0089 15.3282C15.1038 13.0714 15.8535 11.3346 16.5937 9.84876C16.7834 9.47729 17.22 8.78068 17.4098 8.42776C17.9602 7.37835 18.3303 6.83042 18.6434 5.8738C19.099 4.53648 19.004 3.90499 18.947 3.2735C19.2982 5.54877 17.9602 7.52692 16.9543 9.54229C16.023 11.2351 15.4729 13.1034 15.3411 15.0217H15.3506Z" fill="url(#paint4_radial_4_124)"/>
<path d="M10.7007 22.8786C10.8905 23.2873 11.0518 23.6217 11.1657 24.1324L10.7576 24.2253C10.5963 23.6309 10.473 23.2037 10.2357 22.6929C8.85028 19.5073 6.62967 17.8636 4.82666 16.6562C7.00935 17.8079 9.25834 19.6188 10.7006 22.8786" fill="url(#paint5_radial_4_124)"/>
<path d="M11.1848 24.541C11.9439 28.0237 11.0899 32.4536 8.5752 36.7629C10.6819 32.4908 11.7067 28.3951 10.8527 24.5967L11.1848 24.5317V24.541Z" fill="url(#paint6_radial_4_124)"/>
<path d="M19.8771 24.216C24.0049 25.7298 25.5992 29.0452 26.7854 31.8221C25.3145 28.9246 23.2743 25.7204 19.7253 24.5317C17.0302 23.6216 14.7528 23.733 10.8526 24.5967L10.7672 24.2252C14.9046 23.2965 17.0682 23.1851 19.8771 24.2252V24.216Z" fill="url(#paint7_radial_4_124)"/>
</g>
<defs>
<radialGradient id="paint0_radial_4_124" cx="0" cy="0" r="1" gradientUnits="userSpaceOnUse" gradientTransform="translate(3441.95 32.7542) rotate(-104.293) scale(1777.29 3391.78)">
<stop stop-color="white" stop-opacity="0.4"/>
<stop offset="1" stop-opacity="0.1"/>
</radialGradient>
<radialGradient id="paint1_radial_4_124" cx="0" cy="0" r="1" gradientUnits="userSpaceOnUse" gradientTransform="translate(4025.93 828.107) rotate(-81.8281) scale(2905.32 5917.11)">
<stop stop-color="white" stop-opacity="0.6"/>
<stop offset="1" stop-color="white" stop-opacity="0.1"/>
</radialGradient>
<radialGradient id="paint2_radial_4_124" cx="0" cy="0" r="1" gradientUnits="userSpaceOnUse" gradientTransform="translate(3426.58 1334.07) rotate(-76.7268) scale(2483.79 4379.93)">
<stop stop-color="white" stop-opacity="0.8"/>
<stop offset="1" stop-color="white" stop-opacity="0.4"/>
</radialGradient>
<radialGradient id="paint3_radial_4_124" cx="0" cy="0" r="1" gradientUnits="userSpaceOnUse" gradientTransform="translate(1323.73 2.63153e+06) scale(1686.52 1436.67)">
<stop stop-color="white" stop-opacity="0.3"/>
<stop offset="1" stop-opacity="0.3"/>
</radialGradient>
<radialGradient id="paint4_radial_4_124" cx="0" cy="0" r="1" gradientUnits="userSpaceOnUse" gradientTransform="translate(-954.498 433.613) rotate(102.254) scale(1292.68 6803.28)">
<stop stop-color="white" stop-opacity="0"/>
<stop offset="1" stop-color="white" stop-opacity="0.2"/>
</radialGradient>
<radialGradient id="paint5_radial_4_124" cx="0" cy="0" r="1" gradientUnits="userSpaceOnUse" gradientTransform="translate(-38.8858 -119.382) rotate(44.3828) scale(962.676 1174.23)">
<stop stop-color="white" stop-opacity="0.2"/>
<stop offset="1" stop-color="white" stop-opacity="0.4"/>
</radialGradient>
<radialGradient id="paint6_radial_4_124" cx="0" cy="0" r="1" gradientUnits="userSpaceOnUse" gradientTransform="translate(677.166 -183.324) rotate(79.7867) scale(1112.24 4930.43)">
<stop stop-color="white" stop-opacity="0.1"/>
<stop offset="1" stop-color="white" stop-opacity="0.3"/>
</radialGradient>
<radialGradient id="paint7_radial_4_124" cx="0" cy="0" r="1" gradientUnits="userSpaceOnUse" gradientTransform="translate(1602.14 -4.58302e+06) scale(3264.89 1699.03)">
<stop stop-color="white" stop-opacity="0.2"/>
<stop offset="0.5" stop-color="white" stop-opacity="0.2"/>
<stop offset="1" stop-color="white" stop-opacity="0.3"/>
</radialGradient>
<clipPath id="clip0_4_124">
<rect width="30.9156" height="39.2391" fill="white" transform="translate(-0.0078125 0.59375)"/>
</clipPath>
</defs>
</svg>
