<svg width="24" height="24" viewBox="0 0 24 24" fill="none" xmlns="http://www.w3.org/2000/svg">
<rect x="0.959351" y="0.851562" width="22.5922" height="22.5922" rx="11.2961" fill="white"/>
<g clip-path="url(#clip0_26_1562)">
<path d="M15.7096 14.3125C15.7918 13.6282 15.7672 13.5278 16.2769 13.6386L16.4063 13.6501C16.7982 13.6679 17.311 13.587 17.6121 13.447C18.2606 13.1462 18.645 12.6437 18.0057 12.7757C16.5471 13.0765 16.4468 12.5828 16.4468 12.5828C17.9871 10.2977 18.631 7.39694 18.0752 6.68685C16.5596 4.75009 13.9359 5.66593 13.8919 5.68973L13.8779 5.69246C13.5897 5.6325 13.2673 5.59687 12.9049 5.59102C12.2449 5.58022 11.7441 5.76412 11.3642 6.05219C11.3642 6.05219 6.6837 4.12388 6.90141 8.47717C6.94771 9.40328 8.22887 15.4847 9.75687 13.6478C10.3153 12.9762 10.855 12.4083 10.855 12.4083C11.1231 12.5863 11.4439 12.6771 11.7805 12.6445L11.8065 12.6224C11.7985 12.7057 11.802 12.7873 11.817 12.8838C11.4234 13.3237 11.5391 13.401 10.752 13.5629C9.95585 13.727 10.4237 14.0191 10.7289 14.0955C11.0993 14.1882 11.9557 14.3194 12.5346 13.5091L12.5115 13.6015C12.666 13.7251 12.6555 14.4894 12.6774 15.0355C12.6992 15.5816 12.7359 16.0912 12.8472 16.3918C12.9585 16.6923 13.0899 17.4662 14.1242 17.2446C14.9885 17.0592 15.6493 16.7925 15.7096 14.3125Z" fill="black"/>
<path d="M13.7874 17.7843C13.3298 17.7843 13.032 17.6075 12.851 17.4366C12.5779 17.1789 12.4695 16.8469 12.4049 16.6486L12.3769 16.5657C12.2466 16.2139 12.2025 15.7075 12.1764 15.0554C12.1725 14.9535 12.1693 14.8515 12.1666 14.7495C12.1644 14.6714 12.1617 14.5733 12.1578 14.4704C11.9929 14.549 11.818 14.6043 11.638 14.6348C11.3154 14.69 10.9687 14.672 10.6072 14.5816C10.3521 14.5179 10.0871 14.3858 9.93608 14.1816C9.49585 14.5672 9.0759 14.5148 8.84714 14.4386C8.44358 14.304 8.08242 13.9259 7.74285 13.2824C7.50108 12.8242 7.26712 12.227 7.04746 11.5077C6.6651 10.2549 6.42216 8.93535 6.40057 8.50227C6.33268 7.1462 6.69761 6.17652 7.48522 5.62028C8.72788 4.74255 10.6104 5.2586 11.2967 5.49296C11.7577 5.21503 12.3002 5.07965 12.9133 5.08953C13.2426 5.09486 13.556 5.12387 13.8472 5.17563C14.1509 5.08017 14.7509 4.94309 15.4377 4.95154C16.7032 4.96663 17.7518 5.45979 18.4701 6.37771C18.9826 7.03266 18.7293 8.40785 18.5325 9.16945C18.2559 10.2404 17.7709 11.3798 17.1753 12.3716C17.337 12.3728 17.5713 12.3533 17.9045 12.2846C18.5618 12.1488 18.7539 12.5013 18.806 12.659C19.015 13.292 18.1066 13.7702 17.8232 13.9017C17.4601 14.0704 16.8682 14.173 16.3834 14.1508L16.3622 14.1493L16.2348 14.1381L16.2222 14.2443L16.2101 14.3482C16.1776 15.605 15.998 16.401 15.6285 16.927C15.2414 17.4783 14.7031 17.633 14.229 17.7345C14.084 17.7668 13.9359 17.7835 13.7874 17.7843ZM12.8247 13.2098C13.1201 13.4461 13.1459 13.8908 13.169 14.7218C13.1718 14.8255 13.1745 14.9237 13.1782 15.0154C13.1894 15.2929 13.2155 15.9429 13.3172 16.2176C13.3317 16.2563 13.3445 16.2959 13.3581 16.3375C13.4715 16.685 13.5284 16.8591 14.0189 16.754C14.4307 16.6659 14.6423 16.5867 14.808 16.3508C15.0489 16.0077 15.1836 15.318 15.2083 14.3002L15.7093 14.3124L15.2117 14.2527L15.2263 14.1285C15.274 13.7191 15.3083 13.4231 15.5821 13.2275C15.8016 13.0705 16.052 13.0858 16.2514 13.1216C16.0323 12.9564 15.9717 12.7621 15.9556 12.6825L15.9139 12.4767L16.0312 12.3024C16.7075 11.2989 17.2653 10.0656 17.5615 8.9187C17.8658 7.74016 17.773 7.11421 17.6803 6.99586C16.4518 5.42598 14.3211 6.07404 14.0987 6.14778L14.061 6.16807L13.8724 6.20331L13.7758 6.18328C13.5096 6.12801 13.2138 6.09745 12.8966 6.09225C12.3984 6.08392 11.9965 6.20162 11.667 6.45171L11.4383 6.62508L11.1729 6.5157C10.6061 6.28395 8.94091 5.81796 8.06227 6.44027C7.57456 6.78569 7.35243 7.46262 7.40185 8.4522C7.41811 8.7789 7.64024 10.0156 8.00621 11.2152C8.51225 12.8729 8.97212 13.4234 9.16408 13.4875C9.1975 13.4988 9.28451 13.4312 9.371 13.3274C9.93361 12.6507 10.4686 12.0867 10.4911 12.0629L10.7813 11.7576L11.1321 11.9907C11.2734 12.0847 11.4294 12.1379 11.5896 12.1479L12.4262 11.4345L12.305 12.6713C12.3023 12.6991 12.301 12.7368 12.3119 12.807L12.3483 13.0415L12.1906 13.2181L12.1724 13.2386L12.632 13.4508L12.8247 13.2098Z" fill="black"/>
<path d="M18.0061 12.7758C16.5474 13.0766 16.4471 12.5828 16.4471 12.5828C17.9872 10.2976 18.631 7.39675 18.0754 6.68678C16.5596 4.75002 13.9359 5.66599 13.8921 5.68979L13.8779 5.69226C13.5897 5.63257 13.2673 5.59693 12.9048 5.59108C12.2448 5.58029 11.7441 5.76405 11.3642 6.05212C11.3642 6.05212 6.68358 4.12394 6.90129 8.47723C6.94759 9.40334 8.22874 15.4848 9.75675 13.6479C10.3152 12.9763 10.8548 12.4084 10.8548 12.4084C11.1228 12.5864 11.4437 12.6772 11.7801 12.6445L11.8063 12.6224C11.7982 12.7058 11.8018 12.7873 11.8167 12.8838C11.4231 13.3238 11.5386 13.4011 10.7518 13.563C9.95547 13.7271 10.4233 14.0192 10.7288 14.0956C11.099 14.1883 11.9556 14.3195 12.5343 13.5091L12.5112 13.6016C12.6654 13.7252 12.7737 14.4052 12.7555 15.0217C12.7373 15.6381 12.7252 16.0613 12.8468 16.3919C12.9684 16.7225 13.0895 17.4663 14.1239 17.2447C14.9883 17.0593 15.4362 16.5793 15.4986 15.7787C15.5428 15.2095 15.6428 15.2936 15.6492 14.7846L15.7296 14.5436C15.8221 13.7718 15.7443 13.5229 16.2769 13.6388L16.4063 13.6501C16.7982 13.6681 17.3112 13.587 17.6122 13.4471C18.2607 13.1462 18.6453 12.6438 18.0061 12.7758Z" fill="#336791"/>
<path d="M13.8397 17.4754C12.9773 17.4755 12.7042 16.7926 12.5924 16.5134C12.4289 16.1042 12.3935 14.516 12.4299 13.2135C12.4324 13.17 12.4517 13.1292 12.4837 13.0997C12.5158 13.0703 12.5581 13.0544 12.6016 13.0557C12.6452 13.0569 12.6865 13.075 12.7169 13.1063C12.7472 13.1375 12.7642 13.1793 12.7642 13.2229C12.7222 14.7251 12.7819 16.0864 12.9028 16.3892C13.0918 16.8615 13.3783 17.2747 14.1887 17.1012C14.9579 16.9362 15.246 16.6445 15.3742 15.9008C15.4728 15.33 15.6674 13.7063 15.6913 13.3858C15.6946 13.3416 15.7153 13.3006 15.7489 13.2716C15.7825 13.2427 15.8262 13.2283 15.8704 13.2316C15.9146 13.2349 15.9557 13.2556 15.9846 13.2892C16.0135 13.3228 16.0279 13.3665 16.0246 13.4107C15.9997 13.7441 15.8059 15.3649 15.7035 15.9577C15.552 16.8362 15.1604 17.2347 14.2586 17.428C14.121 17.4584 13.9806 17.4743 13.8397 17.4754ZM9.16416 14.1402C9.08879 14.1402 9.01393 14.1278 8.94255 14.1036C8.38241 13.9167 7.84893 13.0045 7.35681 11.3921C6.98225 10.1647 6.7449 8.88364 6.72409 8.46734C6.66232 7.23313 6.9803 6.35982 7.66893 5.87186C9.03138 4.90647 11.3234 5.82582 11.4203 5.86535C11.461 5.88237 11.4933 5.91476 11.5102 5.95547C11.5271 5.99619 11.5272 6.04192 11.5105 6.08273C11.4938 6.12353 11.4617 6.15609 11.4212 6.17333C11.3806 6.19057 11.3349 6.19108 11.2939 6.17475V6.17488C11.2718 6.16578 9.0739 5.28531 7.86154 6.1451C7.27266 6.5627 7.00228 7.33834 7.05781 8.45082C7.07537 8.80145 7.29711 10.0519 7.67648 11.2947C8.1158 12.734 8.61586 13.6424 9.04828 13.7865C9.11604 13.8093 9.32257 13.8781 9.61805 13.523C10.1736 12.8546 10.6841 12.3211 10.6892 12.3158C10.7203 12.2856 10.7618 12.2687 10.8051 12.2686C10.8484 12.2685 10.89 12.2852 10.9213 12.3151C10.9525 12.345 10.9709 12.3859 10.9727 12.4292C10.9744 12.4724 10.9593 12.5146 10.9306 12.547C10.9255 12.5522 10.4228 13.0777 9.87504 13.7367C9.61558 14.0486 9.36679 14.1402 9.16416 14.1402ZM16.4368 12.7318C16.4064 12.7318 16.3766 12.7236 16.3506 12.708C16.3246 12.6924 16.3033 12.67 16.2891 12.6432C16.2748 12.6164 16.2682 12.5862 16.2698 12.5559C16.2714 12.5256 16.2812 12.4963 16.2983 12.4712C17.8551 10.1609 18.4016 7.36956 17.9336 6.77157C17.3444 6.01882 16.5125 5.62554 15.461 5.60304C14.6823 5.58613 14.0634 5.78498 13.9624 5.81971L13.937 5.82998C13.8353 5.86197 13.7573 5.80618 13.7279 5.74102C13.7111 5.70369 13.7086 5.66153 13.7208 5.62246C13.7329 5.5834 13.759 5.55012 13.7939 5.52891L13.8389 5.51044L13.8367 5.51109L13.8391 5.51031C14.0109 5.44749 14.6392 5.25891 15.4175 5.26789C16.5811 5.28011 17.5422 5.72893 18.1969 6.56543C18.5067 6.96132 18.5074 7.87338 18.1989 9.06767C17.8844 10.2852 17.2926 11.594 16.5755 12.6581C16.5603 12.6808 16.5396 12.6995 16.5154 12.7123C16.4912 12.7252 16.4642 12.7319 16.4368 12.7318ZM16.5162 13.8012C16.2504 13.8012 16.0121 13.7639 15.8695 13.6783C15.7228 13.5905 15.6948 13.471 15.6912 13.4077C15.6511 12.7049 16.0389 12.5825 16.2367 12.5267C16.2092 12.4851 16.1699 12.4361 16.1294 12.3855C16.0141 12.2414 15.8562 12.0439 15.7345 11.7487C15.7155 11.7027 15.6557 11.5954 15.5865 11.4713C15.2115 10.7991 14.4315 9.40008 14.9326 8.68362C15.1646 8.35211 15.6263 8.22167 16.3067 8.2945C16.1066 7.68468 15.1533 5.77692 12.8916 5.73985C12.2113 5.72841 11.6534 5.93766 11.2342 6.36086C10.2956 7.30882 10.3297 9.02397 10.3301 9.04101C10.3307 9.06294 10.3269 9.08478 10.319 9.10527C10.3112 9.12575 10.2994 9.14449 10.2842 9.16041C10.2691 9.17632 10.251 9.18911 10.231 9.19803C10.2109 9.20696 10.1893 9.21184 10.1674 9.21242C10.1455 9.21299 10.1236 9.20923 10.1031 9.20137C10.0826 9.1935 10.0639 9.18168 10.048 9.16657C10.0321 9.15146 10.0193 9.13337 10.0104 9.11332C10.0014 9.09327 9.99656 9.07166 9.99599 9.04972C9.99391 8.97364 9.95879 7.17382 10.9967 6.12559C11.4825 5.63503 12.1218 5.39287 12.8971 5.40548C14.3443 5.42928 15.2756 6.16487 15.8022 6.77794C16.376 7.4459 16.6575 8.18278 16.6806 8.42858C16.6979 8.61144 16.5667 8.64811 16.5402 8.65345L16.4799 8.65488C15.8121 8.54797 15.3837 8.6221 15.2066 8.87532C14.8254 9.41998 15.5633 10.7433 15.8784 11.3085C15.9589 11.4526 16.017 11.5568 16.0435 11.6211C16.147 11.8721 16.282 12.0408 16.3905 12.1763C16.4858 12.2956 16.5685 12.3989 16.5982 12.5203C16.6118 12.5444 16.8066 12.8323 17.9622 12.5938C18.2518 12.5341 18.4254 12.5852 18.4785 12.7457C18.5829 13.0616 17.997 13.4299 17.6727 13.5807C17.3816 13.7158 16.9177 13.8012 16.5162 13.8012ZM16.0245 13.3801C16.061 13.4172 16.2444 13.4809 16.6243 13.4647C16.9619 13.4501 17.3181 13.3766 17.5319 13.2775C17.8053 13.1506 17.9877 13.0087 18.0822 12.9118L18.0297 12.9214C17.2908 13.074 16.7683 13.0537 16.4766 12.8609C16.457 12.848 16.4381 12.834 16.42 12.8189C16.3884 12.8314 16.3591 12.8396 16.3383 12.8455C16.1728 12.8919 16.0016 12.9399 16.0245 13.3801ZM11.2519 14.3138C11.0684 14.3138 10.8753 14.2889 10.678 14.2394C10.4737 14.1883 10.129 14.0344 10.1344 13.7817C10.1402 13.4981 10.5526 13.413 10.708 13.381C11.2688 13.2655 11.3054 13.2192 11.4807 12.9967C11.5318 12.9318 11.5954 12.8511 11.682 12.7542C11.8108 12.6102 11.9515 12.5371 12.1003 12.5371C12.2038 12.5371 12.2888 12.5724 12.3449 12.5955C12.5238 12.6696 12.6731 12.8488 12.7345 13.0634C12.7899 13.257 12.7635 13.4432 12.6601 13.5878C12.321 14.0629 11.834 14.3138 11.2519 14.3138ZM10.4954 13.7962C10.5459 13.835 10.6468 13.8871 10.759 13.9153C10.9299 13.9579 11.0956 13.9797 11.2519 13.9797C11.7282 13.9797 12.1104 13.7824 12.3882 13.3936C12.4461 13.3125 12.4288 13.2096 12.4133 13.1554C12.3808 13.042 12.3001 12.9388 12.217 12.9043C12.1719 12.8855 12.1346 12.8712 12.1003 12.8712C12.0818 12.8712 12.0257 12.8712 11.9312 12.977C11.8513 13.0662 11.794 13.139 11.7431 13.2034C11.5249 13.4805 11.4249 13.5745 10.7754 13.7084C10.617 13.7411 10.5357 13.7742 10.4954 13.7962ZM11.7806 13.0252C11.7407 13.0251 11.7021 13.0108 11.6719 12.9848C11.6416 12.9588 11.6216 12.9229 11.6155 12.8834C11.6113 12.8557 11.6085 12.8277 11.6072 12.7997C11.1814 12.7916 10.7707 12.609 10.459 12.2836C10.0648 11.8723 9.88531 11.3024 9.96672 10.7201C10.0552 10.0878 10.0221 9.52962 10.0043 9.22971C9.99988 9.16803 9.99715 9.10623 9.99612 9.04439C9.99638 8.99159 9.99742 8.85126 10.4663 8.61365C10.633 8.52911 10.9674 8.38163 11.3325 8.34379C11.9378 8.28136 12.3367 8.55083 12.4561 9.10278C12.7784 10.5932 12.4816 11.2524 12.2649 11.7338C12.2245 11.8232 12.1864 11.908 12.1559 11.99L12.129 12.0624C12.0145 12.3693 11.9156 12.6345 11.946 12.8327C11.9527 12.8765 11.9417 12.9212 11.9155 12.957C11.8893 12.9927 11.85 13.0166 11.8062 13.0234L11.7806 13.0252ZM10.3314 9.09056L10.338 9.20995C10.3565 9.52142 10.3908 10.1012 10.2977 10.7666C10.2306 11.2467 10.3773 11.7156 10.7002 12.0525C10.9554 12.3189 11.2915 12.4658 11.6367 12.4658H11.6439C11.6827 12.3029 11.7468 12.131 11.8158 11.9456L11.8426 11.8737C11.8771 11.7811 11.9174 11.6915 11.9601 11.5967C12.1687 11.1332 12.4283 10.5563 12.1293 9.1734C12.07 8.89964 11.9264 8.7411 11.6903 8.68882C11.2055 8.58166 10.483 8.94633 10.3314 9.09056ZM11.3401 9.01968C11.3318 9.07872 11.4484 9.23648 11.6003 9.25755C11.7521 9.27874 11.882 9.15545 11.8902 9.09641C11.8984 9.03736 11.7819 8.97221 11.6299 8.95101C11.4781 8.92981 11.3482 8.9605 11.3401 9.01968ZM11.6353 9.31581L11.5927 9.31282C11.4984 9.29968 11.403 9.24025 11.3379 9.15376C11.315 9.12346 11.2775 9.06442 11.2849 9.01187C11.2956 8.93475 11.3895 8.88871 11.5363 8.88871C11.5694 8.88871 11.6032 8.8911 11.6378 8.89587C11.7179 8.90705 11.7924 8.9302 11.8474 8.96089C11.9428 9.01421 11.9498 9.07352 11.9455 9.10434C11.9337 9.18927 11.7981 9.31581 11.6353 9.31581ZM11.3955 9.02956C11.4003 9.06598 11.4904 9.18628 11.608 9.20253L11.6352 9.20448C11.7436 9.20448 11.8248 9.11904 11.8343 9.09108C11.8243 9.07209 11.7546 9.02462 11.6222 9.00641C11.5937 9.00243 11.565 9.00035 11.5362 9.00017C11.4514 9.00004 11.406 9.01916 11.3955 9.02956ZM15.9631 8.89912C15.9713 8.95829 15.8549 9.11605 15.7029 9.13712C15.551 9.15818 15.421 9.03502 15.4127 8.97585C15.4047 8.9168 15.5212 8.85165 15.6731 8.83058C15.825 8.80925 15.9548 8.8402 15.9631 8.89912ZM15.6679 9.16729C15.5216 9.16729 15.3956 9.05349 15.3852 8.97975C15.3732 8.89118 15.519 8.82382 15.6693 8.80301C15.7025 8.79833 15.735 8.79599 15.7667 8.79599C15.8964 8.79599 15.9822 8.83409 15.9908 8.89535C15.9964 8.93514 15.966 8.9964 15.9134 9.05154C15.8788 9.08796 15.806 9.15103 15.7069 9.16469L15.6679 9.16729ZM15.7666 8.85165C15.7375 8.85165 15.7076 8.85377 15.6769 8.85802C15.5257 8.87896 15.4359 8.93969 15.4402 8.97221C15.4452 9.00784 15.5416 9.11163 15.6678 9.11163L15.6988 9.10941C15.7813 9.09784 15.8432 9.04413 15.8727 9.01304C15.919 8.96427 15.9375 8.9185 15.9353 8.90276C15.9325 8.88234 15.8769 8.85165 15.7666 8.85165ZM16.182 12.292C16.1517 12.2919 16.122 12.2837 16.0961 12.2681C16.0701 12.2525 16.0489 12.2302 16.0346 12.2035C16.0204 12.1768 16.0137 12.1467 16.0152 12.1165C16.0167 12.0863 16.0264 12.057 16.0432 12.0319C16.3991 11.5003 16.3339 10.9581 16.2709 10.434C16.244 10.2106 16.2163 9.97973 16.2236 9.75799C16.2309 9.53001 16.2598 9.34195 16.2879 9.15988C16.321 8.94438 16.3524 8.74058 16.3394 8.49894C16.3384 8.45551 16.3544 8.41342 16.3839 8.38156C16.4134 8.3497 16.4542 8.33059 16.4976 8.32826C16.541 8.32592 16.5835 8.34056 16.6163 8.36907C16.6491 8.39757 16.6695 8.43771 16.6732 8.48099C16.688 8.75723 16.6525 8.98768 16.6182 9.21073C16.5917 9.38279 16.5642 9.5607 16.5576 9.76866C16.5512 9.96491 16.5763 10.1734 16.6028 10.394C16.67 10.9515 16.7458 11.5834 16.321 12.2177C16.2888 12.2658 16.2358 12.292 16.182 12.292Z" fill="white"/>
<path d="M4.89526 17.8383C5.08198 17.8079 5.27091 17.7932 5.46009 17.7944C5.75076 17.7944 5.96391 17.862 6.09917 17.9837C6.22428 18.0919 6.29867 18.2576 6.29867 18.4606C6.29867 18.6669 6.23768 18.8292 6.12271 18.9476C5.96717 19.1133 5.71356 19.1978 5.42614 19.1978C5.33823 19.1978 5.25707 19.1944 5.18958 19.1775V20.0906H4.89526V17.8383ZM5.18958 18.9373C5.25382 18.9542 5.33498 18.961 5.43304 18.961C5.78795 18.961 6.00449 18.7885 6.00449 18.474C6.00449 18.1731 5.79146 18.0277 5.46685 18.0277C5.33836 18.0277 5.2403 18.0378 5.18958 18.0514V18.9373ZM8.08067 19.2585C8.08067 19.8638 7.66125 20.1277 7.26562 20.1277C6.82266 20.1277 6.48114 19.8031 6.48114 19.2856C6.48114 18.7378 6.83957 18.4166 7.29267 18.4166C7.76282 18.4164 8.08067 18.7581 8.08067 19.2585ZM6.78221 19.2754C6.78221 19.6339 6.98848 19.9044 7.27928 19.9044C7.56332 19.9044 7.77621 19.6372 7.77621 19.2687C7.77621 18.9914 7.63771 18.6397 7.28591 18.6397C6.93412 18.6397 6.78221 18.9643 6.78221 19.2754ZM8.4153 19.786C8.50321 19.8435 8.65876 19.9044 8.80754 19.9044C9.02395 19.9044 9.12539 19.7962 9.12539 19.6609C9.12539 19.5189 9.04099 19.4411 8.82106 19.36C8.52688 19.2551 8.38825 19.0928 8.38825 18.8967C8.38825 18.633 8.60127 18.4166 8.95294 18.4166C9.11863 18.4166 9.26416 18.4639 9.35546 18.518L9.28106 18.7344C9.18042 18.6724 9.06451 18.6396 8.94631 18.6397C8.77047 18.6397 8.67241 18.7412 8.67241 18.8629C8.67241 18.9982 8.7706 19.059 8.98363 19.1402C9.26767 19.2484 9.41307 19.3904 9.41307 19.6339C9.41307 19.9213 9.1899 20.1242 8.80104 20.1242C8.62182 20.1242 8.45613 20.0802 8.34117 20.0126L8.4153 19.786ZM10.1535 17.9836V18.4536H10.5794V18.6802H10.1535V19.5627C10.1535 19.7656 10.2108 19.8806 10.3766 19.8806C10.4348 19.8815 10.4928 19.8747 10.5491 19.8603L10.5626 20.0835C10.5053 20.1071 10.4138 20.124 10.299 20.124C10.1604 20.124 10.0486 20.0801 9.97763 19.9989C9.89323 19.911 9.86266 19.7656 9.86266 19.5729V18.6802H9.60906V18.4536H9.86266V18.0614L10.1535 17.9836ZM12.304 18.4537C12.2971 18.5721 12.2905 18.704 12.2905 18.9035V19.8536C12.2905 20.229 12.2161 20.4589 12.0572 20.6011C11.8983 20.7498 11.6683 20.7972 11.4621 20.7972C11.2659 20.7972 11.0495 20.7498 10.9175 20.6619L10.9919 20.4354C11.1001 20.503 11.2692 20.5639 11.4721 20.5639C11.7764 20.5639 11.9996 20.4049 11.9996 19.9924V19.8098H11.9928C11.9015 19.962 11.7257 20.0837 11.4721 20.0837C11.0663 20.0837 10.7755 19.7388 10.7755 19.2856C10.7755 18.731 11.1373 18.4166 11.5127 18.4166C11.7968 18.4166 11.9524 18.5653 12.0234 18.7006H12.0301L12.0437 18.4537H12.304ZM11.9963 19.0996C11.9963 19.0489 11.9929 19.0049 11.9794 18.9643C11.9253 18.7919 11.7799 18.6499 11.5635 18.6499C11.2793 18.6499 11.0766 18.8899 11.0766 19.2687C11.0766 19.5899 11.2389 19.857 11.5601 19.857C11.7427 19.857 11.9084 19.7421 11.9727 19.5527C11.9896 19.502 11.9965 19.4445 11.9965 19.3938L11.9963 19.0996ZM12.7638 18.9643C12.7638 18.7716 12.7604 18.6059 12.7502 18.4537H13.0107L13.0208 18.775H13.0343C13.1087 18.5552 13.2879 18.4166 13.4874 18.4166C13.5212 18.4166 13.5447 18.4199 13.5718 18.4267V18.7074C13.5385 18.7001 13.5045 18.6967 13.4705 18.6972C13.2608 18.6972 13.1119 18.8561 13.0715 19.0793C13.0631 19.1251 13.0586 19.1714 13.058 19.2179V20.0903H12.7638V18.9643ZM14.0015 19.3261C14.0083 19.7285 14.2651 19.8942 14.5627 19.8942C14.7758 19.8942 14.9042 19.857 15.0158 19.8097L15.0665 20.0227C14.9617 20.0701 14.7825 20.1242 14.5221 20.1242C14.0183 20.1242 13.7173 19.7928 13.7173 19.2991C13.7173 18.8054 14.0081 18.4164 14.4849 18.4164C15.0192 18.4164 15.1612 18.8864 15.1612 19.1874C15.1612 19.2482 15.1544 19.2956 15.151 19.326L14.0015 19.3261ZM14.8739 19.1131C14.8771 18.9238 14.796 18.6296 14.4614 18.6296C14.1604 18.6296 14.0285 18.9069 14.0047 19.1131H14.8739Z" fill="black"/>
<path d="M15.4993 19.7318C15.6587 19.8276 15.8409 19.879 16.0268 19.8805C16.3278 19.8805 16.5036 19.7216 16.5036 19.4917C16.5036 19.2786 16.3819 19.1569 16.0742 19.0386C15.7022 18.9067 15.4723 18.714 15.4723 18.3927C15.4723 18.0377 15.7665 17.7739 16.2094 17.7739C16.4427 17.7739 16.6118 17.828 16.7132 17.8855L16.6321 18.1256C16.499 18.0542 16.3503 18.017 16.1993 18.0174C15.8882 18.0174 15.7698 18.2034 15.7698 18.3589C15.7698 18.5719 15.9083 18.6768 16.2229 18.7985C16.6084 18.9474 16.8045 19.1332 16.8045 19.468C16.8045 19.8197 16.5442 20.124 16.0065 20.124C15.7867 20.124 15.5467 20.0597 15.4248 19.9786L15.4993 19.7318ZM19.087 20.4249C18.793 20.3478 18.502 20.2598 18.2146 20.1612C18.1672 20.1443 18.1199 20.1274 18.0759 20.1274C17.5349 20.1071 17.0717 19.7081 17.0717 18.9743C17.0717 18.2439 17.518 17.7739 18.1334 17.7739C18.7522 17.7739 19.1547 18.2541 19.1547 18.927C19.1547 19.512 18.8842 19.8873 18.5055 20.0192V20.0327C18.7321 20.0902 18.9789 20.1443 19.1717 20.1781L19.087 20.4249ZM18.8435 18.9405C18.8435 18.484 18.607 18.0139 18.1233 18.0139C17.6262 18.0139 17.3828 18.4737 17.3861 18.9676C17.3828 19.4511 17.6499 19.8873 18.1098 19.8873C18.5799 19.8873 18.8435 19.4612 18.8435 18.9405ZM19.5366 17.8111H19.8309V19.8433H20.8047V20.0902H19.5366V17.8111Z" fill="#336791"/>
</g>
<defs>
<clipPath id="clip0_26_1562">
<rect width="16.6469" height="16.6469" fill="white" transform="translate(4.52661 4.4187)"/>
</clipPath>
</defs>
</svg>
