<svg width="18" height="18" viewBox="0 0 18 18" fill="none" xmlns="http://www.w3.org/2000/svg">
<g clip-path="url(#clip0_26_1564)">
<path d="M11.7096 10.3125C11.7918 9.6282 11.7672 9.5278 12.2769 9.63861L12.4063 9.65005C12.7982 9.66787 13.311 9.58698 13.6121 9.44704C14.2606 9.14623 14.645 8.6437 14.0057 8.7757C12.5471 9.07652 12.4468 8.58283 12.4468 8.58283C13.9871 6.29766 14.631 3.39694 14.0752 2.68685C12.5596 0.75009 9.93589 1.66593 9.89193 1.68973L9.87788 1.69246C9.58968 1.6325 9.26728 1.59687 8.90495 1.59102C8.24493 1.58022 7.74409 1.76412 7.3642 2.05219C7.3642 2.05219 2.6837 0.123882 2.90141 4.47717C2.94771 5.40328 4.22887 11.4847 5.75687 9.64784C6.31532 8.97625 6.85504 8.4083 6.85504 8.4083C7.12308 8.58634 7.44393 8.67712 7.7805 8.64448L7.80652 8.62237C7.79845 8.70573 7.80196 8.78728 7.81705 8.88378C7.42338 9.32375 7.53912 9.401 6.75204 9.56292C5.95585 9.72705 6.42365 10.0191 6.72889 10.0955C7.09928 10.1882 7.95569 10.3194 8.53456 9.50908L8.51154 9.60154C8.66604 9.7251 8.65551 10.4894 8.67736 11.0355C8.6992 11.5816 8.73588 12.0912 8.84721 12.3918C8.95853 12.6923 9.08989 13.4662 10.1242 13.2446C10.9885 13.0592 11.6493 12.7925 11.7096 10.3125Z" fill="black"/>
<path d="M9.78736 13.7843C9.32983 13.7843 9.03201 13.6075 8.85097 13.4366C8.57786 13.1789 8.46953 12.8469 8.40489 12.6486L8.37693 12.5657C8.24661 12.2139 8.20253 11.7075 8.17639 11.0554C8.17253 10.9535 8.16928 10.8515 8.16663 10.7495C8.16442 10.6714 8.16169 10.5733 8.15779 10.4704C7.99294 10.549 7.818 10.6043 7.63796 10.6348C7.31543 10.69 6.96871 10.672 6.60716 10.5816C6.35212 10.5179 6.08707 10.3858 5.93608 10.1816C5.49585 10.5672 5.0759 10.5148 4.84714 10.4386C4.44358 10.304 4.08242 9.9259 3.74285 9.2824C3.50108 8.82422 3.26712 8.22701 3.04746 7.50768C2.6651 6.25488 2.42216 4.93535 2.40057 4.50227C2.33268 3.1462 2.69761 2.17652 3.48522 1.62028C4.72788 0.742549 6.61041 1.2586 7.2967 1.49296C7.75774 1.21503 8.3002 1.07965 8.91327 1.08953C9.24257 1.09486 9.556 1.12387 9.84719 1.17563C10.1509 1.08017 10.7509 0.943091 11.4377 0.951545C12.7032 0.966631 13.7518 1.45979 14.4701 2.37771C14.9826 3.03266 14.7293 4.40785 14.5325 5.16945C14.2559 6.24044 13.7709 7.37984 13.1753 8.37163C13.337 8.3728 13.5713 8.35329 13.9045 8.28462C14.5618 8.14885 14.7539 8.50129 14.806 8.65905C15.015 9.29202 14.1066 9.77023 13.8232 9.90171C13.4601 10.0704 12.8682 10.173 12.3834 10.1508L12.3622 10.1493L12.2348 10.1381L12.2222 10.2443L12.2101 10.3482C12.1776 11.605 11.998 12.401 11.6285 12.927C11.2414 13.4783 10.7031 13.633 10.229 13.7345C10.084 13.7668 9.93594 13.7835 9.78736 13.7843ZM8.8247 9.20983C9.12006 9.44613 9.14594 9.89079 9.16896 10.7218C9.17182 10.8255 9.17455 10.9237 9.17819 11.0154C9.18937 11.2929 9.21551 11.9429 9.31722 12.2176C9.33165 12.2563 9.34453 12.2959 9.35805 12.3375C9.47146 12.685 9.52842 12.8591 10.0189 12.754C10.4307 12.6659 10.6423 12.5867 10.808 12.3508C11.0489 12.0077 11.1836 11.318 11.2083 10.3002L11.7093 10.3124L11.2117 10.2527L11.2263 10.1285C11.274 9.71912 11.3083 9.42311 11.5821 9.22751C11.8016 9.07054 12.052 9.08575 12.2514 9.12165C12.0323 8.95635 11.9717 8.76205 11.9556 8.68246L11.9139 8.47671L12.0312 8.30244C12.7075 7.29895 13.2653 6.06565 13.5615 4.9187C13.8658 3.74016 13.773 3.11421 13.6803 2.99586C12.4518 1.42598 10.3211 2.07404 10.0987 2.14778L10.061 2.16807L9.87242 2.20331L9.77579 2.18328C9.50957 2.12801 9.21382 2.09745 8.89662 2.09225C8.39839 2.08392 7.99652 2.20162 7.66696 2.45171L7.43833 2.62508L7.17289 2.5157C6.60612 2.28395 4.94091 1.81796 4.06227 2.44027C3.57456 2.78569 3.35243 3.46262 3.40185 4.4522C3.41811 4.7789 3.64024 6.01558 4.00621 7.21519C4.51225 8.87286 4.97212 9.42337 5.16408 9.48749C5.1975 9.49881 5.28451 9.43118 5.371 9.32739C5.93361 8.65072 6.46865 8.08668 6.49115 8.06288L6.7813 7.75765L7.13205 7.9907C7.27342 8.08473 7.42936 8.13792 7.58958 8.14794L8.42622 7.43446L8.30501 8.67127C8.30228 8.69911 8.30098 8.73682 8.3119 8.80705L8.34832 9.04154L8.19056 9.21815L8.17235 9.23857L8.63196 9.45081L8.8247 9.20983Z" fill="black"/>
<path d="M14.0061 8.77577C12.5474 9.07658 12.4471 8.58277 12.4471 8.58277C13.9872 6.29759 14.631 3.39675 14.0754 2.68678C12.5596 0.750023 9.93589 1.66599 9.89206 1.68979L9.87789 1.69226C9.58969 1.63257 9.26729 1.59693 8.90483 1.59108C8.2448 1.58029 7.7441 1.76405 7.36421 2.05212C7.36421 2.05212 2.68358 0.123944 2.90129 4.47723C2.94759 5.40334 4.22874 11.4848 5.75675 9.64791C6.3152 8.97631 6.85479 8.40837 6.85479 8.40837C7.12283 8.58641 7.44367 8.67719 7.78012 8.64454L7.80626 8.62243C7.7982 8.7058 7.80184 8.78734 7.81667 8.88384C7.42312 9.32381 7.53861 9.40107 6.75179 9.56298C5.95547 9.72711 6.42327 10.0192 6.72877 10.0956C7.09903 10.1883 7.95556 10.3195 8.5343 9.50914L8.51115 9.60161C8.6654 9.72516 8.77373 10.4052 8.75552 11.0217C8.73732 11.6381 8.72522 12.0613 8.84682 12.3919C8.96842 12.7225 9.0895 13.4663 10.1239 13.2447C10.9883 13.0593 11.4362 12.5793 11.4986 11.7787C11.5428 11.2095 11.6428 11.2936 11.6492 10.7846L11.7296 10.5436C11.8221 9.77185 11.7443 9.52293 12.2769 9.6388L12.4063 9.65012C12.7982 9.66807 13.3112 9.58704 13.6122 9.4471C14.2607 9.14616 14.6453 8.64376 14.0061 8.77577Z" fill="#336791"/>
<path d="M9.83972 13.4754C8.97734 13.4755 8.70422 12.7926 8.59238 12.5134C8.4289 12.1042 8.39353 10.516 8.42994 9.21352C8.43237 9.17003 8.45166 9.12921 8.48372 9.09973C8.51578 9.07025 8.55808 9.05444 8.60161 9.05566C8.64515 9.05688 8.68649 9.07503 8.71685 9.10626C8.74721 9.13749 8.76419 9.17933 8.76418 9.22288C8.72217 10.7251 8.78187 12.0864 8.90282 12.3892C9.09178 12.8615 9.37829 13.2747 10.1887 13.1012C10.9579 12.9362 11.246 12.6445 11.3742 11.9008C11.4728 11.33 11.6674 9.70629 11.6913 9.38584C11.6946 9.34164 11.7153 9.30056 11.7489 9.27163C11.7825 9.2427 11.8262 9.2283 11.8704 9.2316C11.9146 9.23489 11.9557 9.25561 11.9846 9.28919C12.0135 9.32278 12.0279 9.36648 12.0246 9.41068C11.9997 9.74414 11.8059 11.3649 11.7035 11.9577C11.552 12.8362 11.1604 13.2347 10.2586 13.428C10.121 13.4584 9.98063 13.4743 9.83972 13.4754ZM5.16416 10.1402C5.08879 10.1402 5.01393 10.1278 4.94255 10.1036C4.38241 9.91672 3.84893 9.00452 3.35681 7.39212C2.98225 6.16467 2.7449 4.88364 2.72409 4.46734C2.66232 3.23313 2.9803 2.35982 3.66893 1.87186C5.03138 0.906469 7.32344 1.82582 7.42033 1.86535C7.46099 1.88237 7.49329 1.91476 7.51018 1.95547C7.52707 1.99619 7.52719 2.04192 7.51052 2.08273C7.49385 2.12353 7.46173 2.15609 7.42117 2.17333C7.3806 2.19057 7.33486 2.19108 7.29392 2.17475V2.17488C7.27181 2.16578 5.0739 1.28531 3.86154 2.1451C3.27266 2.5627 3.00228 3.33834 3.05781 4.45082C3.07537 4.80145 3.29711 6.05191 3.67648 7.29471C4.1158 8.73401 4.61586 9.64244 5.04828 9.78654C5.11604 9.8093 5.32257 9.87809 5.61805 9.52305C6.17364 8.85457 6.6841 8.32109 6.68917 8.31576C6.72025 8.28564 6.7618 8.26875 6.80508 8.26862C6.84836 8.2685 6.89 8.28516 6.92125 8.3151C6.95251 8.34504 6.97094 8.38593 6.97267 8.42917C6.9744 8.47242 6.95931 8.51465 6.93055 8.54699C6.92548 8.5522 6.42282 9.07774 5.87504 9.73673C5.61558 10.0486 5.36679 10.1402 5.16416 10.1402ZM12.4368 8.7318C12.4064 8.73184 12.3766 8.72362 12.3506 8.708C12.3246 8.69239 12.3033 8.66998 12.2891 8.64318C12.2748 8.61638 12.2682 8.5862 12.2698 8.5559C12.2714 8.52559 12.2812 8.4963 12.2983 8.47117C13.8551 6.1609 14.4016 3.36956 13.9336 2.77157C13.3444 2.01882 12.5125 1.62554 11.461 1.60304C10.6823 1.58613 10.0634 1.78498 9.96236 1.81971L9.937 1.82998C9.8353 1.86197 9.75727 1.80618 9.72788 1.74102C9.71113 1.70369 9.7086 1.66153 9.72077 1.62246C9.73294 1.5834 9.75896 1.55012 9.79395 1.52891L9.83894 1.51044L9.83673 1.51109L9.83907 1.51031C10.0109 1.44749 10.6392 1.25891 11.4175 1.26789C12.5811 1.28011 13.5422 1.72893 14.1969 2.56543C14.5067 2.96132 14.5074 3.87338 14.1989 5.06767C13.8844 6.28523 13.2926 7.59396 12.5755 8.65806C12.5603 8.68083 12.5396 8.69947 12.5154 8.71233C12.4912 8.7252 12.4642 8.73189 12.4368 8.7318ZM12.5162 9.80123C12.2504 9.80123 12.0121 9.76391 11.8695 9.67833C11.7228 9.59054 11.6948 9.47103 11.6912 9.40769C11.6511 8.70488 12.0389 8.5825 12.2367 8.52671C12.2092 8.48509 12.1699 8.43606 12.1294 8.38547C12.0141 8.24137 11.8562 8.04395 11.7345 7.74872C11.7155 7.70269 11.6557 7.59539 11.5865 7.47132C11.2115 6.79907 10.4315 5.40008 10.9326 4.68362C11.1646 4.35211 11.6263 4.22167 12.3067 4.2945C12.1066 3.68468 11.1533 1.77692 8.89163 1.73985C8.21132 1.72841 7.65339 1.93766 7.23423 2.36086C6.29563 3.30882 6.3297 5.02397 6.33009 5.04101C6.33067 5.06294 6.32691 5.08478 6.31904 5.10527C6.31118 5.12575 6.29935 5.14449 6.28425 5.16041C6.26914 5.17632 6.25104 5.18911 6.23099 5.19803C6.21094 5.20696 6.18933 5.21184 6.1674 5.21242C6.14546 5.21299 6.12362 5.20923 6.10314 5.20137C6.08265 5.1935 6.06391 5.18168 6.048 5.16657C6.03208 5.15146 6.01929 5.13337 6.01037 5.11332C6.00145 5.09327 5.99656 5.07166 5.99599 5.04972C5.99391 4.97364 5.95879 3.17382 6.99675 2.12559C7.4825 1.63503 8.12184 1.39287 8.89709 1.40548C10.3443 1.42928 11.2756 2.16487 11.8022 2.77794C12.376 3.4459 12.6575 4.18278 12.6806 4.42858C12.6979 4.61144 12.5667 4.64811 12.5402 4.65345L12.4799 4.65488C11.8121 4.54797 11.3837 4.6221 11.2066 4.87532C10.8254 5.41998 11.5633 6.74328 11.8784 7.30849C11.9589 7.45259 12.017 7.55677 12.0435 7.62114C12.147 7.87215 12.282 8.04082 12.3905 8.17634C12.4858 8.2956 12.5685 8.39886 12.5982 8.52033C12.6118 8.54439 12.8066 8.83233 13.9622 8.59381C14.2518 8.53412 14.4254 8.58523 14.4785 8.74572C14.5829 9.06162 13.997 9.42993 13.6727 9.58066C13.3816 9.71579 12.9177 9.80123 12.5162 9.80123ZM12.0245 9.38012C12.061 9.41718 12.2444 9.48091 12.6243 9.46465C12.9619 9.45009 13.3181 9.37661 13.5319 9.27751C13.8053 9.15057 13.9877 9.00868 14.0822 8.91179L14.0297 8.92142C13.2908 9.07397 12.7683 9.05368 12.4766 8.86094C12.457 8.84797 12.4381 8.83395 12.42 8.81894C12.3884 8.83142 12.3591 8.83961 12.3383 8.84547C12.1728 8.8919 12.0016 8.93989 12.0245 9.38012ZM7.25192 10.3138C7.06841 10.3138 6.87528 10.2889 6.67799 10.2394C6.47367 10.1883 6.12903 10.0344 6.13436 9.78172C6.14022 9.49808 6.55262 9.41302 6.70803 9.38103C7.26882 9.26554 7.30537 9.21924 7.48068 8.99672C7.53179 8.93182 7.59539 8.85106 7.682 8.75417C7.81076 8.6102 7.95147 8.53711 8.10026 8.53711C8.20378 8.53711 8.28883 8.57235 8.34489 8.5955C8.52384 8.66964 8.67314 8.84885 8.73453 9.06344C8.78993 9.25696 8.76353 9.44319 8.66014 9.58781C8.32096 10.0629 7.83404 10.3138 7.25192 10.3138ZM6.49539 9.79616C6.54585 9.83505 6.64677 9.88707 6.75901 9.91529C6.9299 9.95795 7.09559 9.97967 7.25192 9.97967C7.72817 9.97967 8.1104 9.78237 8.38819 9.39364C8.44607 9.31249 8.42877 9.20962 8.41329 9.15539C8.38078 9.04198 8.30015 8.93885 8.21704 8.90425C8.17191 8.88552 8.13459 8.87122 8.10026 8.87122C8.08179 8.87122 8.02573 8.87122 7.93119 8.97695C7.85133 9.06617 7.79398 9.139 7.74313 9.20337C7.5249 9.48052 7.42489 9.57455 6.7754 9.70837C6.61699 9.74115 6.53571 9.77418 6.49539 9.79616ZM7.78058 9.0252C7.74069 9.02514 7.70213 9.01082 7.67186 8.98483C7.6416 8.95883 7.62163 8.92287 7.61554 8.88344C7.61127 8.85569 7.60849 8.82774 7.60722 8.79969C7.18143 8.79163 6.77072 8.60903 6.45898 8.28364C6.06478 7.87228 5.88531 7.30238 5.96672 6.72013C6.05516 6.08781 6.02213 5.52962 6.00431 5.22971C5.99988 5.16803 5.99715 5.10623 5.99612 5.04439C5.99638 4.99159 5.99742 4.85126 6.46626 4.61365C6.63299 4.52911 6.96736 4.38163 7.33255 4.34379C7.93782 4.28136 8.33669 4.55083 8.45608 5.10278C8.77836 6.5932 8.48157 7.25244 8.2649 7.73377C8.22446 7.82325 8.18635 7.90804 8.15592 7.98997L8.129 8.06241C8.01455 8.36934 7.91558 8.63452 7.94601 8.83272C7.9527 8.87654 7.94174 8.92122 7.91553 8.95696C7.88932 8.9927 7.85 9.01659 7.8062 9.02338L7.78058 9.0252ZM6.33139 5.09056L6.33803 5.20995C6.35649 5.52142 6.39083 6.1012 6.29771 6.76656C6.2306 7.24672 6.3773 7.71556 6.70023 8.05253C6.95539 8.31888 7.29145 8.46584 7.63674 8.46584H7.6439C7.68265 8.30288 7.74677 8.13095 7.81583 7.94563L7.84262 7.87371C7.87708 7.78111 7.9174 7.6915 7.96006 7.59669C8.16866 7.13318 8.42825 6.55626 8.12926 5.1734C8.06995 4.89964 7.92637 4.7411 7.69033 4.68882C7.20549 4.58166 6.48304 4.94633 6.33139 5.09056ZM7.34009 5.01968C7.33177 5.07872 7.44843 5.23648 7.60033 5.25755C7.7521 5.27874 7.88202 5.15545 7.89022 5.09641C7.89841 5.03736 7.78188 4.97221 7.62985 4.95101C7.47808 4.92981 7.34815 4.9605 7.34009 5.01968ZM7.63531 5.31581L7.59266 5.31282C7.49837 5.29968 7.40304 5.24025 7.33788 5.15376C7.31499 5.12346 7.27754 5.06442 7.28495 5.01187C7.29561 4.93475 7.38951 4.88871 7.53634 4.88871C7.56938 4.88871 7.60319 4.8911 7.63778 4.89587C7.7179 4.90705 7.79242 4.9302 7.84743 4.96089C7.94276 5.01421 7.94978 5.07352 7.94549 5.10434C7.93366 5.18927 7.79814 5.31581 7.63531 5.31581ZM7.39549 5.02956C7.40031 5.06598 7.49043 5.18628 7.608 5.20253L7.63518 5.20448C7.74365 5.20448 7.8248 5.11904 7.8343 5.09108C7.82428 5.07209 7.75457 5.02462 7.62218 5.00641C7.59369 5.00243 7.56497 5.00035 7.53621 5.00017C7.45142 5.00004 7.40603 5.01916 7.39549 5.02956ZM11.9631 4.89912C11.9713 4.95829 11.8549 5.11605 11.7029 5.13712C11.551 5.15818 11.421 5.03502 11.4127 4.97585C11.4047 4.9168 11.5212 4.85165 11.6731 4.83058C11.825 4.80925 11.9548 4.8402 11.9631 4.89912ZM11.6679 5.16729C11.5216 5.16729 11.3956 5.05349 11.3852 4.97975C11.3732 4.89118 11.519 4.82382 11.6693 4.80301C11.7025 4.79833 11.735 4.79599 11.7667 4.79599C11.8964 4.79599 11.9822 4.83409 11.9908 4.89535C11.9964 4.93514 11.966 4.9964 11.9134 5.05154C11.8788 5.08796 11.806 5.15103 11.7069 5.16469L11.6679 5.16729ZM11.7666 4.85165C11.7375 4.85165 11.7076 4.85377 11.6769 4.85802C11.5257 4.87896 11.4359 4.93969 11.4402 4.97221C11.4452 5.00784 11.5416 5.11163 11.6678 5.11163L11.6988 5.10941C11.7813 5.09784 11.8432 5.04413 11.8727 5.01304C11.919 4.96427 11.9375 4.9185 11.9353 4.90276C11.9325 4.88234 11.8769 4.85165 11.7666 4.85165ZM12.182 8.29196C12.1517 8.29194 12.122 8.2837 12.0961 8.26813C12.0701 8.25255 12.0489 8.23021 12.0346 8.2035C12.0204 8.1768 12.0137 8.14672 12.0152 8.11649C12.0167 8.08626 12.0264 8.057 12.0432 8.03185C12.3991 7.50032 12.3339 6.95813 12.2709 6.43401C12.244 6.21058 12.2163 5.97973 12.2236 5.75799C12.2309 5.53001 12.2598 5.34195 12.2879 5.15988C12.321 4.94438 12.3524 4.74058 12.3394 4.49894C12.3384 4.45551 12.3544 4.41342 12.3839 4.38156C12.4134 4.3497 12.4542 4.33059 12.4976 4.32826C12.541 4.32592 12.5835 4.34056 12.6163 4.36907C12.6491 4.39757 12.6695 4.43771 12.6732 4.48099C12.688 4.75723 12.6525 4.98768 12.6182 5.21073C12.5917 5.38279 12.5642 5.5607 12.5576 5.76866C12.5512 5.96491 12.5763 6.17338 12.6028 6.39395C12.67 6.9515 12.7458 7.58343 12.321 8.2177C12.2888 8.26582 12.2358 8.29196 12.182 8.29196Z" fill="white"/>
<path d="M0.895264 13.8383C1.08198 13.8079 1.27091 13.7932 1.46009 13.7944C1.75076 13.7944 1.96391 13.862 2.09917 13.9837C2.22428 14.0919 2.29867 14.2576 2.29867 14.4606C2.29867 14.6669 2.23768 14.8292 2.12271 14.9476C1.96717 15.1133 1.71356 15.1978 1.42614 15.1978C1.33823 15.1978 1.25707 15.1944 1.18958 15.1775V16.0906H0.895264V13.8383ZM1.18958 14.9373C1.25382 14.9542 1.33498 14.961 1.43304 14.961C1.78795 14.961 2.00449 14.7885 2.00449 14.474C2.00449 14.1731 1.79146 14.0277 1.46685 14.0277C1.33836 14.0277 1.2403 14.0378 1.18958 14.0514V14.9373ZM4.08067 15.2585C4.08067 15.8638 3.66125 16.1277 3.26562 16.1277C2.82266 16.1277 2.48114 15.8031 2.48114 15.2856C2.48114 14.7378 2.83957 14.4166 3.29267 14.4166C3.76282 14.4164 4.08067 14.7581 4.08067 15.2585ZM2.78221 15.2754C2.78221 15.6339 2.98848 15.9044 3.27928 15.9044C3.56332 15.9044 3.77621 15.6372 3.77621 15.2687C3.77621 14.9914 3.63771 14.6397 3.28591 14.6397C2.93412 14.6397 2.78221 14.9643 2.78221 15.2754ZM4.4153 15.786C4.50321 15.8435 4.65876 15.9044 4.80754 15.9044C5.02395 15.9044 5.12539 15.7962 5.12539 15.6609C5.12539 15.5189 5.04099 15.4411 4.82106 15.36C4.52688 15.2551 4.38825 15.0928 4.38825 14.8967C4.38825 14.633 4.60127 14.4166 4.95294 14.4166C5.11863 14.4166 5.26416 14.4639 5.35546 14.518L5.28106 14.7344C5.18042 14.6724 5.06451 14.6396 4.94631 14.6397C4.77047 14.6397 4.67241 14.7412 4.67241 14.8629C4.67241 14.9982 4.7706 15.059 4.98363 15.1402C5.26767 15.2484 5.41307 15.3904 5.41307 15.6339C5.41307 15.9213 5.1899 16.1242 4.80104 16.1242C4.62182 16.1242 4.45613 16.0802 4.34117 16.0126L4.4153 15.786ZM6.15346 13.9836V14.4536H6.57939V14.6802H6.15346V15.5627C6.15346 15.7656 6.21082 15.8806 6.37664 15.8806C6.43477 15.8815 6.49277 15.8747 6.54909 15.8603L6.56261 16.0835C6.50526 16.1071 6.41383 16.124 6.29899 16.124C6.16036 16.124 6.04864 16.0801 5.97763 15.9989C5.89323 15.911 5.86266 15.7656 5.86266 15.5729V14.6802H5.60906V14.4536H5.86266V14.0614L6.15346 13.9836ZM8.30403 14.4537C8.29714 14.5721 8.29051 14.704 8.29051 14.9035V15.8536C8.29051 16.229 8.21612 16.4589 8.05719 16.6011C7.89827 16.7498 7.66833 16.7972 7.46207 16.7972C7.26594 16.7972 7.04953 16.7498 6.91753 16.6619L6.99192 16.4354C7.10013 16.503 7.2692 16.5639 7.47208 16.5639C7.7764 16.5639 7.99958 16.4049 7.99958 15.9924V15.8098H7.99281C7.90152 15.962 7.72568 16.0837 7.47208 16.0837C7.06631 16.0837 6.77551 15.7388 6.77551 15.2856C6.77551 14.731 7.13732 14.4166 7.51266 14.4166C7.79682 14.4166 7.95237 14.5653 8.02338 14.7006H8.03014L8.04367 14.4537H8.30403ZM7.99633 15.0996C7.99633 15.0489 7.99294 15.0049 7.97942 14.9643C7.92532 14.7919 7.77992 14.6499 7.56351 14.6499C7.27934 14.6499 7.07659 14.8899 7.07659 15.2687C7.07659 15.5899 7.23889 15.857 7.56013 15.857C7.74272 15.857 7.90841 15.7421 7.97266 15.5527C7.98956 15.502 7.99646 15.4445 7.99646 15.3938L7.99633 15.0996ZM8.76377 14.9643C8.76377 14.7716 8.76039 14.6059 8.75025 14.4537H9.01074L9.02076 14.775H9.03428C9.10868 14.5552 9.28789 14.4166 9.48739 14.4166C9.52121 14.4166 9.54475 14.4199 9.5718 14.4267V14.7074C9.53853 14.7001 9.50453 14.6967 9.47048 14.6972C9.26084 14.6972 9.11193 14.8561 9.07148 15.0793C9.06311 15.1251 9.05858 15.1714 9.05795 15.2179V16.0903H8.76377V14.9643ZM10.0015 15.3261C10.0083 15.7285 10.2651 15.8942 10.5627 15.8942C10.7758 15.8942 10.9042 15.857 11.0158 15.8097L11.0665 16.0227C10.9617 16.0701 10.7825 16.1242 10.5221 16.1242C10.0183 16.1242 9.71733 15.7928 9.71733 15.2991C9.71733 14.8054 10.0081 14.4164 10.4849 14.4164C11.0192 14.4164 11.1612 14.8864 11.1612 15.1874C11.1612 15.2482 11.1544 15.2956 11.151 15.326L10.0015 15.3261ZM10.8739 15.1131C10.8771 14.9238 10.796 14.6296 10.4614 14.6296C10.1604 14.6296 10.0285 14.9069 10.0047 15.1131H10.8739Z" fill="black"/>
<path d="M11.4993 15.7318C11.6587 15.8276 11.8409 15.879 12.0268 15.8805C12.3278 15.8805 12.5036 15.7216 12.5036 15.4917C12.5036 15.2786 12.3819 15.1569 12.0742 15.0386C11.7022 14.9067 11.4723 14.714 11.4723 14.3927C11.4723 14.0377 11.7665 13.7739 12.2094 13.7739C12.4427 13.7739 12.6118 13.828 12.7132 13.8855L12.6321 14.1256C12.499 14.0542 12.3503 14.017 12.1993 14.0174C11.8882 14.0174 11.7698 14.2034 11.7698 14.3589C11.7698 14.5719 11.9083 14.6768 12.2229 14.7985C12.6084 14.9474 12.8045 15.1332 12.8045 15.468C12.8045 15.8197 12.5442 16.124 12.0065 16.124C11.7867 16.124 11.5467 16.0597 11.4248 15.9786L11.4993 15.7318ZM15.087 16.4249C14.793 16.3478 14.502 16.2598 14.2146 16.1612C14.1672 16.1443 14.1199 16.1274 14.0759 16.1274C13.5349 16.1071 13.0717 15.7081 13.0717 14.9743C13.0717 14.2439 13.518 13.7739 14.1334 13.7739C14.7522 13.7739 15.1547 14.2541 15.1547 14.927C15.1547 15.512 14.8842 15.8873 14.5055 16.0192V16.0327C14.7321 16.0902 14.9789 16.1443 15.1717 16.1781L15.087 16.4249ZM14.8435 14.9405C14.8435 14.484 14.607 14.0139 14.1233 14.0139C13.6262 14.0139 13.3828 14.4737 13.3861 14.9676C13.3828 15.4511 13.6499 15.8873 14.1098 15.8873C14.5799 15.8873 14.8435 15.4612 14.8435 14.9405ZM15.5366 13.8111H15.8309V15.8433H16.8047V16.0902H15.5366V13.8111Z" fill="#336791"/>
</g>
<defs>
<clipPath id="clip0_26_1564">
<rect width="16.6469" height="16.6469" fill="white" transform="translate(0.526611 0.418701)"/>
</clipPath>
</defs>
</svg>
