<svg width="27" height="27" viewBox="0 0 27 27" fill="none" xmlns="http://www.w3.org/2000/svg">
<path d="M4.95508 16.2343C3.95979 10.9433 6.58993 5.84052 12.6263 5.16171C11.7939 4.27229 10.6567 4.26554 10.1335 4.37386C9.20976 4.66815 9.23867 5.26594 8.19077 6.03815C7.14899 6.63317 6.6258 6.17753 5.86687 6.79432C5.10968 7.40661 5.63798 8.81206 5.32049 9.08531C5.00525 9.63179 4.02724 10.1186 3.84923 10.8088C3.70208 11.6914 4.24857 12.322 4.22752 13.0786C4.29057 13.7092 3.5998 14.0657 3.69912 14.5767C3.99638 15.4116 4.56933 15.9141 4.8395 16.1457C4.90143 16.1893 4.96693 16.2969 4.95508 16.2343Z" fill="#FF0090"/>
<path d="M15.6962 8.91014C15.5903 8.91014 15.4887 8.86806 15.4138 8.79316C15.3389 8.71826 15.2968 8.61667 15.2968 8.51075C15.2968 8.40482 15.3389 8.30323 15.4138 8.22833C15.4887 8.15343 15.5903 8.11136 15.6962 8.11136C15.8021 8.11136 15.9037 8.15343 15.9786 8.22833C16.0535 8.30323 16.0956 8.40482 16.0956 8.51075C16.0956 8.61667 16.0535 8.71826 15.9786 8.79316C15.9037 8.86806 15.8021 8.91014 15.6962 8.91014ZM5.18808 16.8114C4.23163 12.213 7.19101 8.3707 12.9219 10.2624C16.2846 12.2295 20.5146 12.1014 20.7054 10.8298C21.1763 9.30539 18.5615 6.16381 14.6523 5.34418C6.89682 3.83082 2.71571 12.213 5.18808 16.8114Z" fill="url(#paint0_radial_4_207)"/>
<path d="M17.91 17.3242C19.0616 17.4489 20.1547 17.1725 21.1677 16.3469C19.6373 18.0539 17.7237 18.9122 15.528 19.1457C16.5764 20.037 17.5874 20.4385 18.5546 20.2667C15.8671 21.0083 13.6154 20.192 10.8765 17.4644C10.733 18.1986 11.5086 19.3426 12.3079 20.073C7.67001 18.0623 7.26342 11.7986 12.9188 10.2579C7.05629 7.44114 3.7413 12.914 5.37003 17.3995C6.9636 20.8543 11.2101 23.5138 15.8642 22.9289C18.125 22.652 21.5009 21.0934 22.8799 17.3995C21.908 18.2717 20.1705 19.0314 19.3952 19.0896C22.0193 17.7783 23.4358 15.5498 23.0382 12.5042C22.4947 13.7983 21.7776 14.792 20.8805 15.4746C22.786 12.5042 22.459 10.9689 21.0486 9.28149C22.0575 12.0558 20.7525 15.135 17.91 17.3242Z" fill="url(#paint1_radial_4_207)"/>
<path d="M16.5634 20.5203C16.3642 20.4831 17.0148 20.7838 15.7572 20.4509C14.4996 20.118 13.2191 19.7971 10.8765 17.4642C10.733 18.1985 11.5086 19.3426 12.3079 20.0728C14.4658 21.5777 12.9983 20.8739 16.2861 22.0104C16.5499 21.4853 16.5634 21.0186 16.5634 20.5203Z" fill="url(#paint2_linear_4_207)"/>
<path d="M12.383 8.70333C12.383 8.70333 12.6688 8.28131 12.78 8.09104C12.9164 7.85795 13.1258 7.43297 13.1258 7.43297C13.1258 7.43297 10.9255 6.71501 10.3855 6.62744C8.70695 7.06316 8.70092 7.7664 9.63928 8.84281C9.74371 8.96257 12.383 8.70333 12.383 8.70333Z" fill="url(#paint3_linear_4_207)"/>
<defs>
<radialGradient id="paint0_radial_4_207" cx="0" cy="0" r="1" gradientUnits="userSpaceOnUse" gradientTransform="translate(17.3023 9.5723) scale(14.6332 10.4678)">
<stop stop-color="#F80090"/>
<stop offset="1" stop-color="#4D008E"/>
</radialGradient>
<radialGradient id="paint1_radial_4_207" cx="0" cy="0" r="1" gradientUnits="userSpaceOnUse" gradientTransform="translate(17.4311 9.88531) scale(14.8323 11.22)">
<stop stop-color="#57008E"/>
<stop offset="0.292" stop-color="#5C008E"/>
<stop offset="1" stop-color="#F80090"/>
</radialGradient>
<linearGradient id="paint2_linear_4_207" x1="11.8996" y1="17.4642" x2="14.5214" y2="21.8735" gradientUnits="userSpaceOnUse">
<stop stop-color="#F70090"/>
<stop offset="0.67" stop-color="#E50090"/>
<stop offset="0.827" stop-color="#D6008F" stop-opacity="0.2"/>
<stop offset="1" stop-color="#C10090" stop-opacity="0"/>
</linearGradient>
<linearGradient id="paint3_linear_4_207" x1="11.6816" y1="8.23532" x2="11.3011" y2="7.50664" gradientUnits="userSpaceOnUse">
<stop stop-color="#B2008F" stop-opacity="0.151"/>
<stop offset="0.4" stop-color="#F70090" stop-opacity="0.4"/>
<stop offset="0.649" stop-color="#F60090" stop-opacity="0.892"/>
<stop offset="1" stop-color="#FF0090"/>
</linearGradient>
</defs>
</svg>
