<svg width="25" height="25" viewBox="0 0 25 25" fill="none" xmlns="http://www.w3.org/2000/svg">
<g clip-path="url(#clip0_4_175)">
<path d="M19.0168 0.734375H6.38306C3.30477 0.734375 0.809326 3.22982 0.809326 6.30811V18.9419C0.809326 22.0202 3.30477 24.5156 6.38306 24.5156H19.0168C22.0951 24.5156 24.5906 22.0202 24.5906 18.9419V6.30811C24.5906 3.22982 22.0951 0.734375 19.0168 0.734375Z" fill="#242938"/>
<path d="M12.7001 14.3854C13.6573 14.3854 14.4332 13.6095 14.4332 12.6524C14.4332 11.6953 13.6573 10.9193 12.7001 10.9193C11.7429 10.9193 10.967 11.6953 10.967 12.6524C10.967 13.6095 11.743 14.3854 12.7001 14.3854Z" fill="#00D8FF"/>
<path d="M12.7001 9.12866C15.027 9.12866 17.1886 9.46253 18.8184 10.0237C20.7821 10.6997 21.9895 11.7244 21.9895 12.6524C21.9895 13.6193 20.71 14.708 18.6011 15.4066C17.0069 15.9348 14.9089 16.2106 12.7001 16.2106C10.4355 16.2106 8.29104 15.9517 6.67874 15.4008C4.63894 14.7036 3.4104 13.6009 3.4104 12.6524C3.4104 11.732 4.56323 10.7151 6.49936 10.0402C8.13525 9.46977 10.3502 9.12866 12.6998 9.12866H12.7001Z" stroke="#00D8FF" stroke-width="0.662233"/>
<path d="M9.63264 10.9007C10.7951 8.88503 12.1641 7.17928 13.4645 6.04781C15.0311 4.68438 16.5221 4.15042 17.3258 4.61388C18.1634 5.09693 18.4673 6.74936 18.0191 8.92516C17.6805 10.5701 16.871 12.5251 15.7675 14.4386C14.6361 16.4004 13.3407 18.1288 12.0581 19.2498C10.4351 20.6685 8.86598 21.182 8.04431 20.7081C7.24699 20.2487 6.94211 18.7418 7.32465 16.7274C7.64784 15.0252 8.45891 12.9361 9.63227 10.9007H9.63264Z" stroke="#00D8FF" stroke-width="0.662233"/>
<path d="M9.63557 14.4437C8.46983 12.4303 7.67613 10.392 7.34486 8.70033C6.94606 6.66211 7.228 5.10379 8.03108 4.63894C8.86798 4.1544 10.4512 4.71642 12.1124 6.19141C13.3683 7.30653 14.658 8.98394 15.7646 10.8955C16.8993 12.8555 17.7496 14.8411 18.0804 16.5121C18.499 18.6268 18.1602 20.2425 17.3393 20.7177C16.5428 21.1788 15.0852 20.6906 13.531 19.3531C12.2178 18.2231 10.8128 16.4772 9.63557 14.4437Z" stroke="#00D8FF" stroke-width="0.662233"/>
</g>
<defs>
<clipPath id="clip0_4_175">
<rect width="23.7812" height="23.7812" fill="white" transform="translate(0.809326 0.734375)"/>
</clipPath>
</defs>
</svg>
