<svg width="14" height="14" viewBox="0 0 14 14" fill="none" xmlns="http://www.w3.org/2000/svg">
<g clip-path="url(#clip0_26_1602)">
<path d="M12.9664 10.1212C12.2818 10.4789 8.73598 11.9299 7.97981 12.3284C7.22364 12.7269 6.80468 12.7167 6.212 12.4306C5.61933 12.1445 1.8487 10.6321 1.16406 10.3051C0.826852 10.1417 0.653137 10.0088 0.653137 9.87597V8.57822C0.653137 8.57822 5.55802 7.50528 6.35506 7.22938C7.15211 6.94326 7.41779 6.93304 8.09221 7.17828C8.76663 7.42353 12.8029 8.14904 13.4671 8.39429V9.6716C13.4671 9.80444 13.3139 9.9475 12.9664 10.1212Z" fill="#A41E11"/>
<path d="M12.9665 8.83373C12.2818 9.19138 8.73601 10.6424 7.97984 11.0409C7.22368 11.4395 6.80472 11.4292 6.21204 11.1431C5.61937 10.857 1.84874 9.33444 1.1641 9.00745C0.48968 8.68046 0.469243 8.45565 1.13345 8.20019C1.79765 7.93451 5.54784 6.46304 6.34488 6.18714C7.14193 5.90102 7.40761 5.8908 8.08203 6.13605C8.75645 6.38129 12.2818 7.78123 12.946 8.02647C13.6307 8.27172 13.6511 8.47609 12.9665 8.83373Z" fill="#D82C20"/>
<path d="M12.9664 8.0162C12.2818 8.37385 8.73598 9.82487 7.97981 10.2234C7.22364 10.6117 6.80468 10.6117 6.212 10.3256C5.61933 10.0395 1.8487 8.5169 1.16406 8.18991C0.826852 8.02642 0.653137 7.89358 0.653137 7.76074V6.46299C0.653137 6.46299 5.55802 5.39004 6.35506 5.11414C7.15211 4.82802 7.41779 4.81781 8.09221 5.06305C8.76663 5.30829 12.8029 6.03381 13.4671 6.27905V7.55637C13.4671 7.68921 13.3139 7.83227 12.9664 8.0162Z" fill="#A41E11"/>
<path d="M12.9665 6.7185C12.2818 7.07615 8.736 8.52717 7.97983 8.9257C7.22366 9.314 6.8047 9.314 6.21202 9.02788C5.61935 8.74176 1.84872 7.21921 1.16408 6.89221C0.479442 6.56522 0.469224 6.34041 1.13343 6.08495C1.79763 5.81927 5.54782 4.34781 6.34486 4.07191C7.14191 3.78579 7.40759 3.77557 8.08201 4.02081C8.75643 4.26606 12.2818 5.66599 12.946 5.91124C13.6307 6.15648 13.6511 6.36085 12.9665 6.7185Z" fill="#D82C20"/>
<path d="M12.9665 5.81921C12.2818 6.17686 8.736 7.62789 7.97983 8.02641C7.22366 8.41471 6.8047 8.41471 6.21203 8.12859C5.61936 7.85269 1.84873 6.33014 1.16409 6.00315C0.826877 5.83965 0.642944 5.70681 0.642944 5.57397V4.27622C0.642944 4.27622 5.54783 3.20327 6.34487 2.92738C7.14191 2.64126 7.4076 2.63104 8.08202 2.87628C8.75644 3.12153 12.7927 3.84704 13.457 4.09228V5.3696C13.4672 5.50244 13.3139 5.63528 12.9665 5.81921Z" fill="#A41E11"/>
<path d="M12.9665 4.52151C12.2818 4.87916 8.736 6.33019 7.97983 6.72871C7.22366 7.11701 6.8047 7.11701 6.21202 6.8309C5.61935 6.54478 1.84872 5.03244 1.16408 4.70545C0.479442 4.37845 0.469224 4.15365 1.13343 3.89818C1.79763 3.6325 5.54782 2.16104 6.34486 1.88514C7.14191 1.59902 7.40759 1.5888 8.08201 1.83405C8.75643 2.07929 12.2818 3.47923 12.946 3.72447C13.6307 3.96971 13.6511 4.17408 12.9665 4.52151Z" fill="#D82C20"/>
<path d="M8.736 3.27494L7.6324 3.39756L7.37694 3.99024L6.97842 3.32603L5.7011 3.21363L6.65143 2.8662L6.36531 2.33484L7.26454 2.68227L8.10245 2.40637L7.87765 2.95817L8.736 3.27494ZM7.31563 6.177L5.24127 5.31864L8.21486 4.86903L7.31563 6.177Z" fill="white"/>
<path d="M4.44428 4.83828C5.31903 4.83828 6.02815 4.56378 6.02815 4.22517C6.02815 3.88656 5.31903 3.61206 4.44428 3.61206C3.56953 3.61206 2.86041 3.88656 2.86041 4.22517C2.86041 4.56378 3.56953 4.83828 4.44428 4.83828Z" fill="white"/>
<path d="M10.0542 3.43835L11.8118 4.13321L10.0542 4.82807V3.43835Z" fill="#7A0C00"/>
<path d="M8.11267 4.21496L10.0542 3.43835V4.82807L9.86004 4.90982L8.11267 4.21496Z" fill="#AD2115"/>
</g>
<defs>
<clipPath id="clip0_26_1602">
<rect width="13.0797" height="13.0797" fill="white" transform="translate(0.520325 0.607788)"/>
</clipPath>
</defs>
</svg>
