<svg width="52" height="52" viewBox="0 0 52 52" fill="none" xmlns="http://www.w3.org/2000/svg">
<path d="M49.4811 37.8221C46.7592 39.2439 32.6623 45.0127 29.6561 46.5971C26.6498 48.1814 24.9842 48.1408 22.628 47.0033C20.2717 45.8658 5.28108 39.8533 2.5592 38.5533C1.21858 37.9033 0.527954 37.3752 0.527954 36.8471V31.6877C0.527954 31.6877 20.028 27.4221 23.1967 26.3252C26.3655 25.1877 27.4217 25.1471 30.103 26.1221C32.7842 27.0971 48.8311 29.9814 51.4717 30.9564V36.0346C51.4717 36.5627 50.8623 37.1314 49.4811 37.8221Z" fill="#A41E11"/>
<path d="M49.4812 32.7032C46.7593 34.1251 32.6624 39.8938 29.6562 41.4782C26.6499 43.0626 24.9843 43.022 22.6281 41.8845C20.2718 40.747 5.2812 34.6938 2.55932 33.3938C-0.121929 32.0938 -0.20318 31.2001 2.43745 30.1845C5.07807 29.1282 19.9874 23.2782 23.1562 22.1813C26.3249 21.0438 27.3812 21.0032 30.0624 21.9782C32.7437 22.9532 46.7593 28.5188 49.3999 29.4938C52.1218 30.4688 52.2031 31.2813 49.4812 32.7032Z" fill="#D82C20"/>
<path d="M49.4811 29.4532C46.7592 30.8751 32.6623 36.6438 29.6561 38.2282C26.6498 39.772 24.9842 39.772 22.628 38.6345C20.2717 37.497 5.28108 31.4438 2.5592 30.1438C1.21858 29.4938 0.527954 28.9657 0.527954 28.4376V23.2782C0.527954 23.2782 20.028 19.0126 23.1967 17.9157C26.3655 16.7782 27.4217 16.7376 30.103 17.7126C32.7842 18.6876 48.8311 21.572 51.4717 22.547V27.6251C51.4717 28.1532 50.8623 28.722 49.4811 29.4532Z" fill="#A41E11"/>
<path d="M49.4812 24.2937C46.7593 25.7156 32.6624 31.4843 29.6562 33.0687C26.6499 34.6125 24.9843 34.6125 22.628 33.475C20.2718 32.3375 5.28115 26.2843 2.55928 24.9843C-0.1626 23.6843 -0.203225 22.7906 2.4374 21.775C5.07802 20.7187 19.9874 14.8687 23.1561 13.7718C26.3249 12.6343 27.3812 12.5937 30.0624 13.5687C32.7437 14.5437 46.7593 20.1093 49.3999 21.0843C52.1218 22.0593 52.203 22.8718 49.4812 24.2937Z" fill="#D82C20"/>
<path d="M49.4813 20.7186C46.7594 22.1405 32.6625 27.9092 29.6563 29.4936C26.65 31.0373 24.9844 31.0373 22.6282 29.8998C20.2719 28.803 5.2813 22.7498 2.55942 21.4498C1.2188 20.7998 0.487549 20.2717 0.487549 19.7436V14.5842C0.487549 14.5842 19.9875 10.3186 23.1563 9.22172C26.325 8.08422 27.3813 8.0436 30.0625 9.0186C32.7438 9.9936 48.7907 12.878 51.4313 13.853V18.9311C51.4719 19.4592 50.8625 19.9873 49.4813 20.7186Z" fill="#A41E11"/>
<path d="M49.4812 15.5597C46.7593 16.9816 32.6624 22.7503 29.6562 24.3347C26.6499 25.8784 24.9843 25.8784 22.628 24.7409C20.2718 23.6034 5.28115 17.5909 2.55928 16.2909C-0.1626 14.9909 -0.203225 14.0972 2.4374 13.0816C5.07802 12.0253 19.9874 6.17532 23.1561 5.07844C26.3249 3.94094 27.3812 3.90032 30.0624 4.87532C32.7437 5.85032 46.7593 11.4159 49.3999 12.3909C52.1218 13.3659 52.203 14.1784 49.4812 15.5597Z" fill="#D82C20"/>
<path d="M32.6625 10.6035L28.275 11.091L27.2594 13.4472L25.675 10.8066L20.5969 10.3597L24.375 8.97845L23.2375 6.86595L26.8125 8.2472L30.1438 7.15033L29.25 9.34408L32.6625 10.6035ZM27.0157 22.141L18.7688 18.7285L30.5907 16.941L27.0157 22.141Z" fill="white"/>
<path d="M15.6002 16.8191C19.0779 16.8191 21.8971 15.7278 21.8971 14.3816C21.8971 13.0354 19.0779 11.9441 15.6002 11.9441C12.1226 11.9441 9.30334 13.0354 9.30334 14.3816C9.30334 15.7278 12.1226 16.8191 15.6002 16.8191Z" fill="white"/>
<path d="M37.903 11.2533L44.8905 14.0158L37.903 16.7783V11.2533Z" fill="#7A0C00"/>
<path d="M30.1842 14.3408L37.903 11.2533V16.7783L37.1311 17.1033L30.1842 14.3408Z" fill="#AD2115"/>
</svg>
