<svg width="24" height="24" viewBox="0 0 24 24" fill="none" xmlns="http://www.w3.org/2000/svg">
<rect x="0.764038" y="0.851562" width="22.5922" height="22.5922" rx="11.2961" fill="white"/>
<g clip-path="url(#clip0_26_1600)">
<path d="M17.9664 15.1212C17.2818 15.4789 13.736 16.9299 12.9798 17.3284C12.2236 17.7269 11.8047 17.7167 11.212 17.4306C10.6193 17.1445 6.8487 15.6321 6.16406 15.3051C5.82685 15.1417 5.65314 15.0088 5.65314 14.876V13.5782C5.65314 13.5782 10.558 12.5053 11.3551 12.2294C12.1521 11.9433 12.4178 11.933 13.0922 12.1783C13.7666 12.4235 17.8029 13.149 18.4671 13.3943V14.6716C18.4671 14.8044 18.3139 14.9475 17.9664 15.1212Z" fill="#A41E11"/>
<path d="M17.9665 13.8337C17.2818 14.1914 13.736 15.6424 12.9798 16.0409C12.2237 16.4395 11.8047 16.4292 11.212 16.1431C10.6194 15.857 6.84874 14.3344 6.1641 14.0074C5.48968 13.6805 5.46924 13.4556 6.13345 13.2002C6.79765 12.9345 10.5478 11.463 11.3449 11.1871C12.1419 10.901 12.4076 10.8908 13.082 11.136C13.7565 11.3813 17.2818 12.7812 17.946 13.0265C18.6307 13.2717 18.6511 13.4761 17.9665 13.8337Z" fill="#D82C20"/>
<path d="M17.9664 13.0162C17.2818 13.3738 13.736 14.8249 12.9798 15.2234C12.2236 15.6117 11.8047 15.6117 11.212 15.3256C10.6193 15.0395 6.8487 13.5169 6.16406 13.1899C5.82685 13.0264 5.65314 12.8936 5.65314 12.7607V11.463C5.65314 11.463 10.558 10.39 11.3551 10.1141C12.1521 9.82802 12.4178 9.81781 13.0922 10.0631C13.7666 10.3083 17.8029 11.0338 18.4671 11.2791V12.5564C18.4671 12.6892 18.3139 12.8323 17.9664 13.0162Z" fill="#A41E11"/>
<path d="M17.9665 11.7185C17.2818 12.0761 13.736 13.5272 12.9798 13.9257C12.2237 14.314 11.8047 14.314 11.212 14.0279C10.6194 13.7418 6.84872 12.2192 6.16408 11.8922C5.47944 11.5652 5.46922 11.3404 6.13343 11.085C6.79763 10.8193 10.5478 9.34781 11.3449 9.07191C12.1419 8.78579 12.4076 8.77557 13.082 9.02081C13.7564 9.26606 17.2818 10.666 17.946 10.9112C18.6307 11.1565 18.6511 11.3609 17.9665 11.7185Z" fill="#D82C20"/>
<path d="M17.9665 10.8192C17.2818 11.1769 13.736 12.6279 12.9798 13.0264C12.2237 13.4147 11.8047 13.4147 11.212 13.1286C10.6194 12.8527 6.84873 11.3301 6.16409 11.0031C5.82688 10.8396 5.64294 10.7068 5.64294 10.574V9.27622C5.64294 9.27622 10.5478 8.20327 11.3449 7.92738C12.1419 7.64126 12.4076 7.63104 13.082 7.87628C13.7564 8.12153 17.7927 8.84704 18.457 9.09228V10.3696C18.4672 10.5024 18.3139 10.6353 17.9665 10.8192Z" fill="#A41E11"/>
<path d="M17.9665 9.52151C17.2818 9.87916 13.736 11.3302 12.9798 11.7287C12.2237 12.117 11.8047 12.117 11.212 11.8309C10.6194 11.5448 6.84872 10.0324 6.16408 9.70545C5.47944 9.37845 5.46922 9.15365 6.13343 8.89818C6.79763 8.6325 10.5478 7.16104 11.3449 6.88514C12.1419 6.59902 12.4076 6.5888 13.082 6.83405C13.7564 7.07929 17.2818 8.47923 17.946 8.72447C18.6307 8.96971 18.6511 9.17408 17.9665 9.52151Z" fill="#D82C20"/>
<path d="M13.736 8.27494L12.6324 8.39756L12.3769 8.99024L11.9784 8.32603L10.7011 8.21363L11.6514 7.8662L11.3653 7.33484L12.2645 7.68227L13.1025 7.40637L12.8776 7.95817L13.736 8.27494ZM12.3156 11.177L10.2413 10.3186L13.2149 9.86903L12.3156 11.177Z" fill="white"/>
<path d="M9.44428 9.83828C10.319 9.83828 11.0281 9.56378 11.0281 9.22517C11.0281 8.88656 10.319 8.61206 9.44428 8.61206C8.56953 8.61206 7.86041 8.88656 7.86041 9.22517C7.86041 9.56378 8.56953 9.83828 9.44428 9.83828Z" fill="white"/>
<path d="M15.0542 8.43835L16.8118 9.13321L15.0542 9.82807V8.43835Z" fill="#7A0C00"/>
<path d="M13.1127 9.21496L15.0542 8.43835V9.82807L14.86 9.90982L13.1127 9.21496Z" fill="#AD2115"/>
</g>
<defs>
<clipPath id="clip0_26_1600">
<rect width="13.0797" height="13.0797" fill="white" transform="translate(5.52032 5.60779)"/>
</clipPath>
</defs>
</svg>
