<svg width="14" height="14" viewBox="0 0 14 14" fill="none" xmlns="http://www.w3.org/2000/svg">
<g clip-path="url(#clip0_26_1623)">
<path d="M10.2954 0.607788H3.3468C1.65374 0.607788 0.28125 1.98028 0.28125 3.67334V10.6219C0.28125 12.315 1.65374 13.6875 3.3468 13.6875H10.2954C11.9884 13.6875 13.3609 12.315 13.3609 10.6219V3.67334C13.3609 1.98028 11.9884 0.607788 10.2954 0.607788Z" fill="#E43717"/>
<path d="M11.8575 7.02258L11.4288 6.757C11.4252 6.71521 11.4211 6.67355 11.4166 6.63203L11.7857 6.28833C11.8041 6.27121 11.8179 6.24966 11.8256 6.22572C11.8333 6.20178 11.8348 6.17627 11.8299 6.1516C11.825 6.12693 11.8139 6.10392 11.7976 6.08477C11.7813 6.06562 11.7604 6.05099 11.7368 6.04227L11.2651 5.86651C11.2533 5.82569 11.2409 5.78517 11.2282 5.74445L11.5222 5.33632C11.5369 5.31595 11.5461 5.29216 11.549 5.26721C11.5519 5.24226 11.5484 5.21698 11.5388 5.19377C11.5292 5.1706 11.5138 5.15026 11.4942 5.13465C11.4745 5.11904 11.4512 5.10867 11.4265 5.10451L10.9294 5.02364C10.9101 4.9862 10.8902 4.9491 10.8696 4.91236L11.0786 4.45344C11.0891 4.43052 11.0936 4.40529 11.0916 4.38015C11.0895 4.35502 11.0811 4.33083 11.0671 4.30987C11.0532 4.28889 11.0341 4.27184 11.0117 4.26037C10.9893 4.2489 10.9643 4.24339 10.9392 4.24437L10.4343 4.26195C10.4083 4.22932 10.3817 4.19709 10.3546 4.16528L10.4709 3.67413C10.4766 3.64958 10.4761 3.62396 10.4692 3.5997C10.4623 3.57544 10.4493 3.55334 10.4314 3.53551C10.4136 3.51768 10.3915 3.50471 10.3672 3.49782C10.343 3.49094 10.3173 3.49037 10.2928 3.49617L9.80164 3.61236C9.76975 3.58531 9.73745 3.55874 9.70477 3.53265L9.72245 3.02786C9.72439 2.97677 9.69946 2.92823 9.6569 2.89992C9.63593 2.88594 9.61174 2.87753 9.58661 2.8755C9.56149 2.87348 9.53627 2.87789 9.51333 2.88833L9.05533 3.09729C9.01834 3.07689 8.98125 3.05693 8.94405 3.03741L8.86297 2.54044C8.85896 2.51564 8.84864 2.49229 8.83301 2.47263C8.81738 2.45296 8.79696 2.43764 8.77371 2.42813C8.75051 2.4185 8.72523 2.41497 8.70027 2.41788C8.67532 2.42079 8.65153 2.43003 8.63116 2.44474L8.22298 2.73862C8.18278 2.72585 8.14241 2.71358 8.10189 2.70184L7.92608 2.23025C7.91732 2.20668 7.90267 2.18573 7.88353 2.1694C7.8644 2.15308 7.84141 2.14191 7.81675 2.13696C7.79208 2.13212 7.76659 2.13363 7.74268 2.14135C7.71876 2.14907 7.6972 2.16275 7.68002 2.1811L7.33627 2.55019C7.29467 2.54554 7.25301 2.54147 7.2113 2.53798L6.94567 2.10835C6.93235 2.08694 6.91379 2.06928 6.89174 2.05705C6.86969 2.04482 6.84489 2.03842 6.81968 2.03845C6.76812 2.03845 6.72107 2.06492 6.6947 2.10835L6.42907 2.53803C6.38728 2.54141 6.34549 2.5456 6.3041 2.55019L5.96035 2.1811C5.94318 2.16275 5.92162 2.14907 5.8977 2.14135C5.87378 2.13363 5.84829 2.13212 5.82363 2.13696C5.79894 2.14185 5.77592 2.15299 5.75677 2.16932C5.73762 2.18564 5.72298 2.2066 5.71424 2.2302L5.53848 2.70179C5.49766 2.71354 5.45724 2.72595 5.41739 2.73862L5.00916 2.44474C4.98882 2.42999 4.96502 2.42071 4.94006 2.41781C4.9151 2.4149 4.8898 2.41846 4.86661 2.42813C4.84345 2.43777 4.82312 2.45313 4.80752 2.47277C4.79191 2.49241 4.78155 2.5157 4.77741 2.54044L4.69637 3.03741C4.6589 3.05686 4.62179 3.07682 4.58504 3.09729L4.12705 2.88833C4.10414 2.87788 4.07895 2.87345 4.05385 2.87547C4.02875 2.87749 4.00459 2.88588 3.98365 2.89986C3.96271 2.91384 3.94568 2.93293 3.93419 2.95533C3.9227 2.97773 3.91712 3.0027 3.91798 3.02786L3.93555 3.53265C3.90291 3.55879 3.87062 3.58536 3.83868 3.61236L3.34748 3.49617C3.32293 3.49043 3.29732 3.49103 3.27306 3.49792C3.2488 3.5048 3.22669 3.51774 3.20881 3.53551C3.17254 3.57174 3.15772 3.62396 3.16947 3.67413L3.28469 4.16528C3.25776 4.19715 3.23126 4.22938 3.20519 4.26195L2.70039 4.24437C2.67525 4.24353 2.65031 4.2491 2.62792 4.26056C2.60553 4.27202 2.58642 4.28899 2.5724 4.30987C2.55842 4.33084 2.55002 4.35503 2.54799 4.38015C2.54596 4.40528 2.55037 4.4305 2.56081 4.45344L2.76978 4.91236C2.74937 4.94914 2.72941 4.98624 2.70989 5.02364L2.21287 5.10451C2.18807 5.10853 2.16472 5.11884 2.14506 5.13447C2.12539 5.1501 2.11007 5.17052 2.10057 5.19377C2.09098 5.21699 2.08748 5.24226 2.09039 5.2672C2.09329 5.29214 2.10251 5.31593 2.11717 5.33632L2.41111 5.74445C2.39817 5.78495 2.38586 5.82564 2.37417 5.86651L1.90253 6.04227C1.87899 6.05106 1.85809 6.06572 1.8418 6.08486C1.82551 6.10399 1.81437 6.12696 1.80944 6.1516C1.80455 6.17627 1.80604 6.20177 1.81376 6.2257C1.82149 6.24962 1.83519 6.27118 1.85358 6.28833L2.22273 6.63203C2.21813 6.67358 2.21406 6.71524 2.21052 6.757L1.78185 7.02258C1.7604 7.03585 1.7427 7.05439 1.73045 7.07643C1.71819 7.09848 1.71179 7.1233 1.71185 7.14852C1.71185 7.20018 1.73832 7.24718 1.7818 7.27355L2.21047 7.53912C2.21404 7.58095 2.21811 7.62261 2.22268 7.6641L1.85353 8.0078C1.83516 8.02494 1.82148 8.04649 1.81377 8.07041C1.80606 8.09432 1.80459 8.11981 1.80949 8.14446C1.81439 8.1691 1.82551 8.19208 1.84178 8.21123C1.85805 8.23038 1.87895 8.24505 1.90248 8.25386L2.37411 8.42962C2.38587 8.47044 2.39823 8.51096 2.41105 8.55168L2.11712 8.9598C2.10241 8.98024 2.09317 9.0041 2.09029 9.02912C2.08742 9.05414 2.091 9.07947 2.10069 9.10271C2.11038 9.12596 2.12586 9.14633 2.14566 9.16189C2.16546 9.17745 2.18891 9.18768 2.21379 9.19161L2.71087 9.27244C2.73028 9.31014 2.75022 9.34725 2.77069 9.38377L2.56173 9.84171C2.55127 9.86461 2.54685 9.88981 2.54886 9.9149C2.55088 9.94 2.55928 9.96416 2.57326 9.9851C2.58723 10.006 2.60633 10.0231 2.62873 10.0345C2.65113 10.046 2.6761 10.0516 2.70126 10.0507L3.20513 10.0331C3.23128 10.0657 3.25786 10.098 3.28484 10.1299L3.16963 10.6211C3.15787 10.6709 3.17269 10.7226 3.20897 10.7588C3.2268 10.7766 3.24891 10.7896 3.27319 10.7965C3.29746 10.8033 3.32309 10.8039 3.34763 10.798L3.83884 10.6828C3.87071 10.7098 3.903 10.7363 3.93571 10.7623L3.91813 11.2671C3.91721 11.2922 3.92274 11.3172 3.93421 11.3396C3.94568 11.362 3.96269 11.381 3.98363 11.395C4.02604 11.4234 4.08035 11.4277 4.1272 11.4064L4.5852 11.1975C4.62208 11.218 4.65919 11.2379 4.69653 11.2573L4.77756 11.7543C4.78573 11.8049 4.81956 11.8477 4.86682 11.8676C4.91398 11.8872 4.96839 11.8809 5.00937 11.8511L5.41759 11.5572C5.45791 11.57 5.49842 11.5825 5.53965 11.5942L5.71541 12.0658C5.72417 12.0893 5.73883 12.1103 5.75798 12.1266C5.77713 12.1429 5.80013 12.154 5.8248 12.1589C5.84946 12.1638 5.87498 12.1623 5.89892 12.1546C5.92285 12.1469 5.94441 12.1331 5.96153 12.1147L6.30528 11.7456C6.34676 11.7504 6.38856 11.7544 6.43025 11.7581L6.69588 12.1868C6.70906 12.2081 6.72745 12.2257 6.74932 12.2379C6.77118 12.2501 6.7958 12.2566 6.82085 12.2567C6.87154 12.2567 6.91951 12.2301 6.94685 12.1868L7.21248 11.7581C7.25419 11.7545 7.29585 11.7503 7.33745 11.7456L7.6812 12.1147C7.69831 12.1331 7.71987 12.1469 7.74381 12.1546C7.76774 12.1623 7.79326 12.1638 7.81792 12.1589C7.8426 12.154 7.86562 12.1429 7.88477 12.1266C7.90391 12.1103 7.91855 12.0894 7.92726 12.0658L8.10307 11.5942C8.14384 11.5825 8.18441 11.57 8.22513 11.5572L8.63331 11.8511C8.65375 11.8658 8.67762 11.8751 8.70265 11.8779C8.72768 11.8808 8.75302 11.8772 8.77627 11.8675C8.79952 11.8578 8.8199 11.8423 8.83545 11.8225C8.851 11.8027 8.86122 11.7792 8.86511 11.7543L8.9462 11.2573C8.9837 11.2379 9.02079 11.2177 9.05753 11.1975L9.51552 11.4064C9.53841 11.4169 9.5636 11.4214 9.58869 11.4194C9.61379 11.4174 9.63796 11.409 9.65891 11.3951C9.67986 11.3811 9.69689 11.362 9.70839 11.3396C9.71988 11.3172 9.72546 11.2923 9.72459 11.2671L9.70702 10.7623C9.73968 10.7363 9.77194 10.7098 9.80379 10.6828L10.2949 10.798C10.3195 10.8039 10.3451 10.8033 10.3694 10.7965C10.3937 10.7896 10.4158 10.7766 10.4337 10.7588C10.4514 10.7411 10.4644 10.7192 10.4713 10.6951C10.4782 10.6709 10.4788 10.6455 10.473 10.6211L10.3577 10.1299C10.3848 10.0981 10.4113 10.0658 10.4372 10.0331L10.9421 10.0507C10.9673 10.0517 10.9922 10.0462 11.0146 10.0347C11.037 10.0232 11.0561 10.0062 11.07 9.98523C11.0841 9.9643 11.0925 9.94011 11.0945 9.91498C11.0966 9.88985 11.0921 9.86462 11.0816 9.84171L10.8726 9.38377C10.893 9.34678 10.913 9.30967 10.9324 9.27244L11.4294 9.19161C11.4542 9.18764 11.4776 9.17735 11.4973 9.16171C11.5169 9.14607 11.5322 9.12563 11.5417 9.10235C11.5513 9.07915 11.5549 9.05387 11.552 9.02892C11.549 9.00396 11.5398 8.98017 11.5251 8.9598L11.2312 8.55168C11.2439 8.51131 11.2562 8.4708 11.2681 8.42962L11.7397 8.25386C11.7633 8.2451 11.7842 8.23044 11.8005 8.21129C11.8168 8.19214 11.8279 8.16914 11.8328 8.14447C11.8378 8.11981 11.8363 8.09431 11.8286 8.07038C11.8208 8.04645 11.8071 8.02491 11.7887 8.0078L11.4195 7.6641C11.424 7.62254 11.4281 7.58088 11.4317 7.53912L11.8605 7.27355C11.8818 7.26038 11.8994 7.24199 11.9117 7.22011C11.9239 7.19823 11.9303 7.17359 11.9304 7.14852C11.9304 7.09789 11.904 7.04991 11.8605 7.02258H11.8575ZM8.98651 10.5865C8.82245 10.5512 8.71894 10.3893 8.75409 10.2253C8.76242 10.1863 8.77834 10.1493 8.80096 10.1165C8.82358 10.0836 8.85244 10.0556 8.88591 10.0339C8.91937 10.0122 8.95678 9.99736 8.996 9.99015C9.03521 9.98294 9.07546 9.98352 9.11445 9.99187C9.2785 10.0269 9.38299 10.1891 9.34784 10.3531C9.33951 10.3921 9.32359 10.4291 9.30097 10.4619C9.27835 10.4948 9.24948 10.5228 9.21602 10.5445C9.18255 10.5662 9.14514 10.581 9.10593 10.5883C9.06672 10.5955 9.02647 10.5949 8.98748 10.5865H8.98651ZM8.841 9.60035C8.6916 9.56831 8.54415 9.6634 8.51288 9.8132L8.36058 10.524C7.89083 10.7369 7.36448 10.856 6.81763 10.856C6.25515 10.856 5.72395 10.732 5.24541 10.5094L5.09311 9.79854C5.06107 9.64914 4.91438 9.55345 4.76499 9.58569L4.13706 9.72042C4.02063 9.60016 3.91232 9.4723 3.81283 9.33768H6.86939C6.90398 9.33768 6.92702 9.33145 6.92702 9.29998V8.21615C6.92702 8.18473 6.90398 8.1785 6.86939 8.1785H5.97588V7.49401H6.94163C7.02982 7.49401 7.41332 7.5192 7.53538 8.00953C7.57375 8.1599 7.65841 8.65008 7.71604 8.80729C7.77347 8.98305 8.00707 9.33457 8.25609 9.33457H9.77947C9.79674 9.33457 9.81518 9.33257 9.83465 9.3291C9.72899 9.47236 9.61348 9.60808 9.48895 9.73529L8.84636 9.59759L8.841 9.60035ZM4.61263 10.5719C4.57364 10.5803 4.53338 10.5809 4.49415 10.5737C4.45492 10.5665 4.41749 10.5517 4.38402 10.53C4.35054 10.5083 4.32167 10.4802 4.29906 10.4474C4.27646 10.4145 4.26056 10.3775 4.25228 10.3385C4.21723 10.1745 4.32146 10.0124 4.48567 9.97721C4.52465 9.96886 4.5649 9.96827 4.60412 9.97549C4.64333 9.9827 4.68074 9.99756 4.7142 10.0192C4.74767 10.0409 4.77653 10.069 4.79915 10.1018C4.82177 10.1346 4.8377 10.1716 4.84602 10.2106C4.88107 10.3747 4.77679 10.5367 4.61263 10.5719ZM3.45058 5.8753C3.4832 5.94899 3.48527 6.0326 3.45635 6.10782C3.42742 6.18303 3.36987 6.24372 3.29628 6.27658C3.22273 6.3092 3.13923 6.31128 3.06414 6.28235C2.98906 6.25343 2.92853 6.19587 2.89587 6.12233C2.82756 5.9692 2.89705 5.78936 3.05017 5.721C3.12373 5.68838 3.20724 5.68631 3.28232 5.71524C3.35741 5.74418 3.41793 5.80175 3.45058 5.8753ZM3.09411 6.71894L3.7484 6.42796C3.88804 6.36594 3.95155 6.20239 3.88901 6.06275L3.75428 5.75814H4.28354V8.14059H3.21913C3.12439 7.80709 3.07642 7.46205 3.07659 7.11536C3.07658 6.9813 3.08371 6.84734 3.09794 6.71403L3.09411 6.71894ZM5.96515 6.48749V5.7845H7.22484C7.28998 5.7845 7.68478 5.85976 7.68478 6.15457C7.68478 6.39961 7.38205 6.48749 7.13308 6.48749H5.96122H5.96515ZM10.545 7.12022C10.545 7.21356 10.5416 7.30573 10.5348 7.39755H10.151C10.1126 7.39755 10.0972 7.42274 10.0972 7.46029V7.63605C10.0972 8.05005 9.86382 8.14089 9.65874 8.16332C9.46346 8.18529 9.24764 8.08173 9.22128 7.96217C9.10602 7.31483 8.91462 7.17713 8.6119 6.93695C8.98789 6.6987 9.37849 6.34622 9.37849 5.87264C9.37849 5.36396 9.02989 5.04366 8.79256 4.88645C8.45862 4.66675 8.08948 4.62281 7.98985 4.62281H4.02517C4.56317 4.02335 5.29467 3.59759 6.11491 3.44135L6.58271 3.93153C6.60781 3.95787 6.63786 3.979 6.67113 3.9937C6.70441 4.00841 6.74026 4.01641 6.77663 4.01725C6.813 4.01808 6.84918 4.01174 6.8831 3.99857C6.91701 3.98541 6.948 3.96568 6.97428 3.94052L7.49767 3.44058C8.59141 3.64465 9.5191 4.32622 10.0562 5.26648L9.69782 6.07497C9.636 6.2146 9.6991 6.37866 9.83843 6.44018L10.5279 6.74673C10.5398 6.86879 10.546 6.99279 10.546 7.11776L10.545 7.12022ZM6.58036 3.02903C6.60912 3.00147 6.64303 2.97985 6.68017 2.96542C6.7173 2.95099 6.75691 2.94403 6.79674 2.94495C6.83657 2.94586 6.87582 2.95463 6.91225 2.97076C6.94868 2.98688 6.98157 3.01003 7.00902 3.0389C7.06451 3.09728 7.0946 3.17527 7.09271 3.25579C7.09083 3.33631 7.05712 3.41281 6.99896 3.46853C6.97021 3.49611 6.93629 3.51774 6.89915 3.53217C6.86201 3.54661 6.82239 3.55356 6.78256 3.55263C6.74272 3.55171 6.70347 3.54292 6.66704 3.52678C6.63061 3.51064 6.59774 3.48746 6.57029 3.45857C6.51481 3.40018 6.48472 3.32219 6.4866 3.24167C6.48849 3.16115 6.5222 3.08466 6.58036 3.02893V3.02903ZM10.1349 5.88996C10.151 5.85349 10.1742 5.82056 10.203 5.79305C10.2319 5.76555 10.2659 5.74401 10.3031 5.72967C10.3403 5.71534 10.3799 5.70849 10.4198 5.70951C10.4596 5.71054 10.4989 5.71943 10.5353 5.73566C10.5718 5.75188 10.6047 5.77512 10.6322 5.80407C10.6597 5.83302 10.6812 5.8671 10.6956 5.90436C10.7099 5.94163 10.7167 5.98136 10.7157 6.02127C10.7147 6.06119 10.7058 6.10051 10.6896 6.13699C10.6735 6.17344 10.6503 6.20636 10.6215 6.23385C10.5926 6.26134 10.5586 6.28286 10.5214 6.29719C10.4842 6.31152 10.4446 6.31837 10.4047 6.31735C10.3649 6.31633 10.3256 6.30746 10.2892 6.29124C10.2527 6.27502 10.2198 6.25178 10.1923 6.22284C10.1648 6.19389 10.1433 6.15982 10.129 6.12256C10.1146 6.08529 10.1078 6.04557 10.1088 6.00567C10.1098 5.96576 10.1187 5.92644 10.1349 5.88996Z" fill="white"/>
</g>
<defs>
<clipPath id="clip0_26_1623">
<rect width="13.0797" height="13.0797" fill="white" transform="translate(0.28125 0.607788)"/>
</clipPath>
</defs>
</svg>
