<svg width="72" height="70" viewBox="0 0 72 70" fill="none" xmlns="http://www.w3.org/2000/svg">
<g clip-path="url(#clip0_114_1751)">
<path d="M55.125 0H16.875C7.55519 0 0 7.34533 0 16.4062V53.5938C0 62.6547 7.55519 70 16.875 70H55.125C64.4448 70 72 62.6547 72 53.5938V16.4062C72 7.34533 64.4448 0 55.125 0Z" fill="#E43717"/>
<path d="M63.7239 34.3305L61.3643 32.9091C61.3442 32.6855 61.3218 32.4625 61.297 32.2403L63.3288 30.4009C63.4302 30.3093 63.5058 30.1939 63.5484 30.0658C63.5909 29.9377 63.599 29.8012 63.5718 29.6692C63.5452 29.5371 63.4841 29.414 63.3944 29.3115C63.3047 29.209 63.1894 29.1307 63.0596 29.084L60.4631 28.1434C60.3982 27.9249 60.3298 27.7081 60.2601 27.4902L61.8781 25.3059C61.9591 25.1969 62.01 25.0696 62.026 24.9361C62.042 24.8025 62.0225 24.6672 61.9695 24.5431C61.9165 24.4191 61.832 24.3102 61.7238 24.2266C61.6157 24.1431 61.4875 24.0876 61.3513 24.0654L58.615 23.6325C58.5089 23.4322 58.3992 23.2336 58.286 23.037L59.4366 20.5809C59.4943 20.4582 59.5188 20.3232 59.5077 20.1887C59.4966 20.0542 59.4502 19.9247 59.373 19.8126C59.2964 19.7003 59.1914 19.6091 59.0681 19.5477C58.9447 19.4863 58.8072 19.4568 58.6688 19.462L55.8897 19.5561C55.7463 19.3815 55.6 19.209 55.451 19.0388L56.0908 16.4102C56.1227 16.2788 56.1195 16.1417 56.0815 16.0119C56.0435 15.882 55.972 15.7638 55.8738 15.6683C55.7756 15.5729 55.654 15.5035 55.5204 15.4666C55.3868 15.4298 55.2458 15.4268 55.1107 15.4578L52.407 16.0796C52.2314 15.9349 52.0537 15.7927 51.8738 15.6531L51.9711 12.9515C51.9818 12.6781 51.8445 12.4183 51.6102 12.2668C51.4948 12.192 51.3616 12.147 51.2234 12.1361C51.0851 12.1253 50.9462 12.1489 50.8199 12.2047L48.2988 13.3231C48.0952 13.2139 47.891 13.1071 47.6862 13.0026L47.2399 10.3429C47.2178 10.2102 47.161 10.0852 47.075 9.97999C46.9889 9.87474 46.8765 9.79276 46.7485 9.74188C46.6208 9.69034 46.4817 9.67145 46.3443 9.687C46.2069 9.70256 46.076 9.75205 45.9639 9.83075L43.7169 11.4036C43.4956 11.3352 43.2734 11.2695 43.0504 11.2067L42.0826 8.68286C42.0343 8.55668 41.9537 8.44459 41.8484 8.3572C41.743 8.26982 41.6165 8.21005 41.4807 8.18356C41.345 8.15765 41.2047 8.16573 41.073 8.20706C40.9413 8.24839 40.8226 8.3216 40.7281 8.41981L38.8358 10.3951C38.6069 10.3702 38.3775 10.3484 38.1479 10.3298L36.6857 8.03044C36.6124 7.91587 36.5102 7.82138 36.3888 7.75592C36.2675 7.69047 36.1309 7.6562 35.9921 7.65637C35.7083 7.65637 35.4493 7.79801 35.3042 8.03044L33.842 10.33C33.6119 10.3481 33.3818 10.3705 33.154 10.3951L31.2618 8.41981C31.1672 8.3216 31.0486 8.24839 30.9169 8.20706C30.7852 8.16573 30.6449 8.15765 30.5092 8.18356C30.3733 8.20974 30.2466 8.26936 30.1411 8.35673C30.0357 8.44409 29.9551 8.55629 29.907 8.68258L28.9395 11.2064C28.7148 11.2693 28.4923 11.3357 28.2729 11.4036L26.0258 9.83075C25.9138 9.7518 25.7828 9.70217 25.6454 9.68661C25.5079 9.67105 25.3687 9.69008 25.2411 9.74188C25.1136 9.79345 25.0016 9.87565 24.9158 9.98077C24.8299 10.0859 24.7728 10.2105 24.75 10.3429L24.3039 13.0026C24.0977 13.1067 23.8934 13.2135 23.6911 13.3231L21.17 12.2047C21.0439 12.1488 20.9052 12.1251 20.767 12.1359C20.6289 12.1467 20.4959 12.1917 20.3806 12.2665C20.2653 12.3413 20.1716 12.4434 20.1083 12.5633C20.0451 12.6832 20.0144 12.8168 20.0191 12.9515L20.1158 15.6531C19.9362 15.7929 19.7584 15.9351 19.5826 16.0796L16.8787 15.4578C16.7435 15.4271 16.6025 15.4303 16.469 15.4671C16.3355 15.504 16.2138 15.5732 16.1153 15.6684C15.9157 15.8622 15.8341 16.1417 15.8988 16.4102L16.533 19.0388C16.3848 19.2093 16.2389 19.3818 16.0954 19.5561L13.3166 19.462C13.1782 19.4575 13.041 19.4873 12.9177 19.5487C12.7944 19.61 12.6893 19.7008 12.6121 19.8126C12.5351 19.9248 12.4889 20.0543 12.4777 20.1887C12.4665 20.3232 12.4908 20.4582 12.5483 20.5809L13.6986 23.037C13.5863 23.2338 13.4764 23.4324 13.3689 23.6325L10.6329 24.0654C10.4964 24.0868 10.3679 24.142 10.2597 24.2257C10.1514 24.3093 10.0671 24.4186 10.0148 24.5431C9.96201 24.6673 9.94272 24.8025 9.95871 24.936C9.97471 25.0695 10.0255 25.1968 10.1062 25.3059L11.7242 27.4902C11.653 27.7069 11.5852 27.9247 11.5208 28.1434L8.92463 29.084C8.79506 29.1311 8.67999 29.2096 8.59031 29.312C8.50064 29.4144 8.43933 29.5373 8.41219 29.6692C8.38526 29.8012 8.39345 29.9377 8.43598 30.0657C8.4785 30.1938 8.55396 30.3091 8.65519 30.4009L10.6872 32.2403C10.6619 32.4627 10.6395 32.6857 10.62 32.9091L8.26032 34.3305C8.14222 34.4015 8.04481 34.5007 7.97735 34.6187C7.9099 34.7367 7.87467 34.8695 7.875 35.0045C7.875 35.2809 8.02069 35.5325 8.26003 35.6736L10.6197 37.0949C10.6394 37.3188 10.6618 37.5417 10.6869 37.7638L8.65491 39.6032C8.55379 39.6949 8.47845 39.8103 8.43602 39.9383C8.39359 40.0662 8.38549 40.2027 8.41247 40.3345C8.43946 40.4664 8.50064 40.5894 8.59022 40.6919C8.6798 40.7944 8.79481 40.8729 8.92435 40.92L11.5206 41.8607C11.5853 42.0791 11.6533 42.296 11.7239 42.5139L10.1059 44.6981C10.0249 44.8075 9.97405 44.9352 9.95821 45.0691C9.94238 45.203 9.96208 45.3386 10.0154 45.463C10.0688 45.5873 10.154 45.6964 10.263 45.7797C10.372 45.8629 10.5011 45.9177 10.638 45.9387L13.3743 46.3713C13.4812 46.5731 13.5909 46.7717 13.7036 46.9671L12.5533 49.4179C12.4958 49.5405 12.4714 49.6753 12.4825 49.8096C12.4936 49.9439 12.5398 50.0733 12.6168 50.1853C12.6937 50.2974 12.7988 50.3885 12.9222 50.4499C13.0455 50.5114 13.1829 50.5412 13.3214 50.5366L16.0951 50.4422C16.239 50.6168 16.3853 50.7895 16.5338 50.9604L15.8996 53.5889C15.8349 53.8555 15.9165 54.1325 16.1162 54.3259C16.2144 54.4213 16.3361 54.4908 16.4697 54.5275C16.6033 54.5643 16.7444 54.5672 16.8795 54.5359L19.5834 53.9193C19.7589 54.0638 19.9367 54.2056 20.1167 54.3447L20.0199 57.0463C20.0149 57.1808 20.0453 57.3144 20.1085 57.4342C20.1716 57.554 20.2652 57.6561 20.3805 57.7307C20.6139 57.8827 20.9129 57.906 21.1708 57.792L23.6919 56.6736C23.895 56.7833 24.0993 56.8902 24.3048 56.9941L24.7508 59.6538C24.7958 59.9245 24.982 60.1534 25.2422 60.26C25.5018 60.365 25.8013 60.3311 26.0269 60.1717L28.2741 58.5989C28.496 58.6672 28.719 58.7342 28.946 58.7968L29.9135 61.3207C29.9617 61.4468 30.0424 61.5588 30.1478 61.6461C30.2532 61.7333 30.3798 61.7928 30.5156 61.8189C30.6514 61.8453 30.7919 61.8375 30.9236 61.7961C31.0554 61.7548 31.174 61.6813 31.2683 61.5826L33.1605 59.6073C33.3889 59.633 33.6189 59.6543 33.8484 59.6743L35.3107 61.9682C35.3832 62.0822 35.4845 62.1764 35.6048 62.2419C35.7252 62.3073 35.8607 62.342 35.9986 62.3425C36.2776 62.3425 36.5417 62.2003 36.6922 61.9682L38.1544 59.6743C38.384 59.6549 38.6133 59.6326 38.8423 59.6073L40.7346 61.5826C40.8288 61.6813 40.9474 61.7548 41.0792 61.7961C41.211 61.8375 41.3514 61.8453 41.4872 61.8189C41.623 61.793 41.7497 61.7335 41.8552 61.6463C41.9606 61.5591 42.0411 61.4469 42.0891 61.3207L43.0569 58.7968C43.2813 58.7342 43.5046 58.6672 43.7288 58.5989L45.9757 60.1717C46.0882 60.2505 46.2196 60.3 46.3574 60.3154C46.4951 60.3308 46.6347 60.3116 46.7626 60.2597C46.8906 60.2077 47.0028 60.1248 47.0884 60.0187C47.174 59.9126 47.2302 59.787 47.2517 59.6538L47.698 56.9941C47.9045 56.8899 48.1087 56.7819 48.3109 56.6736L50.832 57.792C50.958 57.8481 51.0966 57.8719 51.2348 57.8613C51.3729 57.8506 51.506 57.8058 51.6213 57.7311C51.7366 57.6564 51.8304 57.5543 51.8937 57.4344C51.9569 57.3145 51.9877 57.1809 51.9829 57.0463L51.8861 54.3447C52.0659 54.2056 52.2435 54.0637 52.4188 53.9193L55.1225 54.5359C55.2576 54.5672 55.3987 54.5644 55.5324 54.5276C55.6661 54.4909 55.7879 54.4214 55.8861 54.3259C55.984 54.2313 56.0553 54.1139 56.0932 53.9849C56.1311 53.8558 56.1343 53.7195 56.1026 53.5889L55.4681 50.9604C55.6169 50.79 55.7628 50.6172 55.9058 50.4422L58.6851 50.5366C58.8235 50.5418 58.961 50.5123 59.0842 50.4509C59.2075 50.3895 59.3125 50.2983 59.389 50.186C59.4664 50.074 59.5129 49.9446 59.5241 49.8101C59.5352 49.6756 59.5106 49.5405 59.4526 49.4179L58.3023 46.9671C58.4148 46.7691 58.5245 46.5705 58.6314 46.3713L61.3674 45.9387C61.5039 45.9175 61.6326 45.8624 61.7409 45.7787C61.8492 45.695 61.9334 45.5856 61.9855 45.461C62.0386 45.3368 62.058 45.2015 62.042 45.068C62.026 44.9345 61.9751 44.8071 61.8941 44.6981L60.2761 42.5139C60.3461 42.2979 60.4142 42.0811 60.4794 41.8607L63.0757 40.92C63.2054 40.8732 63.3206 40.7947 63.4104 40.6922C63.5001 40.5898 63.5613 40.4666 63.5881 40.3346C63.6153 40.2027 63.6072 40.0662 63.5646 39.9381C63.5221 39.8101 63.4465 39.6947 63.3451 39.6032L61.3131 37.7638C61.3378 37.5414 61.3602 37.3184 61.3803 37.0949L63.7403 35.6736C63.8577 35.6032 63.9547 35.5047 64.022 35.3876C64.0894 35.2705 64.1248 35.1387 64.125 35.0045C64.125 34.7335 63.9799 34.4768 63.7405 34.3305H63.7239ZM47.9199 53.4041C47.0169 53.2149 46.447 52.3484 46.6405 51.4706C46.6864 51.262 46.774 51.0641 46.8985 50.8884C47.0231 50.7127 47.182 50.5625 47.3662 50.4465C47.5504 50.3305 47.7563 50.2509 47.9722 50.2123C48.188 50.1737 48.4096 50.1769 48.6242 50.2216C49.5273 50.4091 50.1024 51.277 49.9089 52.155C49.8631 52.3637 49.7754 52.5616 49.6509 52.7373C49.5264 52.913 49.3675 53.0632 49.1833 53.1792C48.9991 53.2952 48.7932 53.3747 48.5773 53.4133C48.3615 53.4519 48.1399 53.4488 47.9253 53.4041H47.9199ZM47.1189 48.1262C46.2966 47.9548 45.4849 48.4636 45.3128 49.2654L44.4743 53.0694C41.8885 54.2088 38.9911 54.8462 35.9809 54.8462C32.8846 54.8462 29.9604 54.1826 27.3263 52.9912L26.4878 49.1869C26.3115 48.3873 25.504 47.8752 24.6817 48.0477L21.2251 48.7688C20.5842 48.1252 19.9879 47.4409 19.4403 46.7205H36.2658C36.4562 46.7205 36.583 46.6871 36.583 46.5187V40.7182C36.583 40.5501 36.4562 40.5167 36.2658 40.5167H31.3473V36.8535H36.6635C37.1489 36.8535 39.26 36.9883 39.9319 39.6125C40.1431 40.4172 40.6091 43.0406 40.9264 43.8819C41.2425 44.8225 42.5284 46.7038 43.8992 46.7038H52.2849C52.38 46.7038 52.4815 46.6931 52.5887 46.6745C52.0071 47.4412 51.3712 48.1676 50.6858 48.8484L47.1485 48.1115L47.1189 48.1262ZM23.843 53.3256C23.6283 53.3706 23.4067 53.3739 23.1908 53.3354C22.9748 53.2969 22.7688 53.2174 22.5845 53.1014C22.4002 52.9853 22.2413 52.8351 22.1169 52.6592C21.9924 52.4834 21.9049 52.2854 21.8593 52.0766C21.6664 51.1988 22.2401 50.3312 23.1441 50.1431C23.3587 50.0984 23.5802 50.0953 23.7961 50.1339C24.012 50.1725 24.2179 50.252 24.4021 50.368C24.5863 50.484 24.7452 50.6342 24.8697 50.8099C24.9942 50.9856 25.0819 51.1835 25.1277 51.3922C25.3207 52.2702 24.7466 53.1375 23.843 53.3256ZM17.4462 28.1904C17.6257 28.5848 17.6371 29.0323 17.4779 29.4348C17.3187 29.8374 17.0019 30.1622 16.5968 30.338C16.1919 30.5126 15.7323 30.5237 15.319 30.3689C14.9056 30.2141 14.5725 29.9061 14.3927 29.5125C14.0167 28.693 14.3992 27.7305 15.2421 27.3647C15.647 27.1901 16.1067 27.179 16.52 27.3339C16.9333 27.4887 17.2665 27.7968 17.4462 28.1904ZM15.4839 32.7054L19.0856 31.1482C19.8543 30.8163 20.2039 29.941 19.8596 29.1937L19.118 27.5634H22.0314V40.3138H16.1722C15.6506 38.529 15.3866 36.6825 15.3875 34.827C15.3875 34.1096 15.4267 33.3926 15.505 32.6792L15.4839 32.7054ZM31.2882 31.4668V27.7045H38.2224C38.581 27.7045 40.7543 28.1073 40.7543 29.685C40.7543 30.9964 39.0879 31.4668 37.7173 31.4668H31.2666H31.2882ZM56.4992 34.853C56.4992 35.3526 56.4804 35.8459 56.4429 36.3372H54.3302C54.119 36.3372 54.034 36.472 54.034 36.673V37.6136C54.034 39.8293 52.7493 40.3155 51.6204 40.4355C50.5454 40.5531 49.3574 39.9988 49.2123 39.359C48.5778 35.8945 47.5242 35.1576 45.8578 33.8722C47.9275 32.5972 50.0777 30.7107 50.0777 28.1762C50.0777 25.4539 48.1587 23.7397 46.8523 22.8983C45.0141 21.7225 42.982 21.4874 42.4336 21.4874H20.6092C23.5707 18.2791 27.5974 16.0006 32.1126 15.1644L34.6877 17.7878C34.8259 17.9287 34.9913 18.0418 35.1744 18.1205C35.3576 18.1992 35.555 18.242 35.7552 18.2465C35.9554 18.251 36.1546 18.217 36.3412 18.1466C36.5279 18.0761 36.6985 17.9705 36.8432 17.8359L39.7243 15.1603C45.745 16.2524 50.8517 19.9001 53.8082 24.9322L51.8355 29.259C51.4952 30.0063 51.8425 30.8843 52.6095 31.2136L56.4047 32.8542C56.4702 33.5074 56.5045 34.1711 56.5045 34.8399L56.4992 34.853ZM34.6748 12.9578C34.8331 12.8102 35.0198 12.6945 35.2242 12.6173C35.4286 12.5401 35.6466 12.5029 35.8659 12.5078C36.0851 12.5127 36.3012 12.5596 36.5017 12.6459C36.7023 12.7322 36.8833 12.8561 37.0344 13.0106C37.3399 13.323 37.5055 13.7404 37.4951 14.1713C37.4847 14.6023 37.2992 15.0117 36.979 15.3099C36.8208 15.4575 36.634 15.5732 36.4296 15.6505C36.2252 15.7277 36.0071 15.7649 35.7878 15.76C35.5685 15.755 35.3524 15.708 35.1519 15.6216C34.9514 15.5352 34.7704 15.4112 34.6194 15.2566C34.3139 14.9441 34.1483 14.5267 34.1587 14.0958C34.1691 13.6648 34.3546 13.2555 34.6748 12.9572V12.9578ZM54.2416 28.2689C54.3302 28.0737 54.4576 27.8975 54.6164 27.7503C54.7752 27.6031 54.9624 27.4878 55.1672 27.4111C55.3719 27.3344 55.5902 27.2977 55.8096 27.3032C56.029 27.3087 56.2451 27.3562 56.4455 27.4431C56.6463 27.5299 56.8276 27.6543 56.979 27.8092C57.1304 27.9642 57.2489 28.1465 57.3278 28.346C57.4067 28.5455 57.4443 28.7581 57.4387 28.9717C57.433 29.1853 57.3842 29.3957 57.2949 29.591C57.2061 29.7861 57.0787 29.9622 56.9198 30.1093C56.761 30.2564 56.5738 30.3716 56.3691 30.4483C56.1644 30.525 55.9461 30.5617 55.7268 30.5562C55.5075 30.5507 55.2914 30.5033 55.091 30.4165C54.8902 30.3297 54.7089 30.2053 54.5575 30.0504C54.4062 29.8955 54.2877 29.7131 54.2088 29.5137C54.1299 29.3143 54.0922 29.1017 54.0979 28.8881C54.1035 28.6746 54.1523 28.4641 54.2416 28.2689Z" fill="white"/>
</g>
<defs>
<clipPath id="clip0_114_1751">
<rect width="72" height="70" fill="white"/>
</clipPath>
</defs>
</svg>
