<svg width="24" height="24" viewBox="0 0 24 24" fill="none" xmlns="http://www.w3.org/2000/svg">
<rect x="0.525024" y="0.851562" width="22.5922" height="22.5922" rx="11.2961" fill="white"/>
<g clip-path="url(#clip0_26_1621)">
<path d="M15.2954 5.60779H8.3468C6.65374 5.60779 5.28125 6.98028 5.28125 8.67334V15.6219C5.28125 17.315 6.65374 18.6875 8.3468 18.6875H15.2954C16.9884 18.6875 18.3609 17.315 18.3609 15.6219V8.67334C18.3609 6.98028 16.9884 5.60779 15.2954 5.60779Z" fill="#E43717"/>
<path d="M16.8575 12.0226L16.4288 11.757C16.4252 11.7152 16.4211 11.6735 16.4166 11.632L16.7857 11.2883C16.8041 11.2712 16.8179 11.2497 16.8256 11.2257C16.8333 11.2018 16.8348 11.1763 16.8299 11.1516C16.825 11.1269 16.8139 11.1039 16.7976 11.0848C16.7813 11.0656 16.7604 11.051 16.7368 11.0423L16.2651 10.8665C16.2533 10.8257 16.2409 10.7852 16.2282 10.7444L16.5222 10.3363C16.5369 10.316 16.5461 10.2922 16.549 10.2672C16.5519 10.2423 16.5484 10.217 16.5388 10.1938C16.5292 10.1706 16.5138 10.1503 16.4942 10.1346C16.4745 10.119 16.4512 10.1087 16.4265 10.1045L15.9294 10.0236C15.9101 9.9862 15.8902 9.9491 15.8696 9.91236L16.0786 9.45344C16.0891 9.43052 16.0936 9.40529 16.0916 9.38015C16.0895 9.35502 16.0811 9.33083 16.0671 9.30987C16.0532 9.28889 16.0341 9.27184 16.0117 9.26037C15.9893 9.2489 15.9643 9.24339 15.9392 9.24437L15.4343 9.26195C15.4083 9.22932 15.3817 9.19709 15.3546 9.16528L15.4709 8.67413C15.4766 8.64958 15.4761 8.62396 15.4692 8.5997C15.4623 8.57544 15.4493 8.55334 15.4314 8.53551C15.4136 8.51768 15.3915 8.50471 15.3672 8.49782C15.343 8.49094 15.3173 8.49037 15.2928 8.49617L14.8016 8.61236C14.7697 8.58531 14.7375 8.55874 14.7048 8.53265L14.7224 8.02786C14.7244 7.97677 14.6995 7.92823 14.6569 7.89992C14.6359 7.88594 14.6117 7.87753 14.5866 7.8755C14.5615 7.87348 14.5363 7.87789 14.5133 7.88833L14.0553 8.09729C14.0183 8.07689 13.9812 8.05693 13.9441 8.03741L13.863 7.54044C13.859 7.51564 13.8486 7.49229 13.833 7.47263C13.8174 7.45296 13.797 7.43764 13.7737 7.42813C13.7505 7.4185 13.7252 7.41497 13.7003 7.41788C13.6753 7.42079 13.6515 7.43003 13.6312 7.44474L13.223 7.73862C13.1828 7.72585 13.1424 7.71358 13.1019 7.70184L12.9261 7.23025C12.9173 7.20668 12.9027 7.18573 12.8835 7.1694C12.8644 7.15308 12.8414 7.14191 12.8167 7.13696C12.7921 7.13212 12.7666 7.13363 12.7427 7.14135C12.7188 7.14907 12.6972 7.16275 12.68 7.1811L12.3363 7.55019C12.2947 7.54554 12.253 7.54147 12.2113 7.53798L11.9457 7.10835C11.9324 7.08694 11.9138 7.06928 11.8917 7.05705C11.8697 7.04482 11.8449 7.03842 11.8197 7.03845C11.7681 7.03845 11.7211 7.06492 11.6947 7.10835L11.4291 7.53803C11.3873 7.54141 11.3455 7.5456 11.3041 7.55019L10.9604 7.1811C10.9432 7.16275 10.9216 7.14907 10.8977 7.14135C10.8738 7.13363 10.8483 7.13212 10.8236 7.13696C10.7989 7.14185 10.7759 7.15299 10.7568 7.16932C10.7376 7.18564 10.723 7.2066 10.7142 7.2302L10.5385 7.70179C10.4977 7.71354 10.4572 7.72595 10.4174 7.73862L10.0092 7.44474C9.98882 7.42999 9.96502 7.42071 9.94006 7.41781C9.9151 7.4149 9.8898 7.41846 9.86661 7.42813C9.84345 7.43777 9.82312 7.45313 9.80752 7.47277C9.79191 7.49241 9.78155 7.5157 9.77741 7.54044L9.69637 8.03741C9.6589 8.05686 9.62179 8.07682 9.58504 8.09729L9.12705 7.88833C9.10414 7.87788 9.07895 7.87345 9.05385 7.87547C9.02875 7.87749 9.00459 7.88588 8.98365 7.89986C8.96271 7.91384 8.94568 7.93293 8.93419 7.95533C8.9227 7.97773 8.91712 8.0027 8.91798 8.02786L8.93555 8.53265C8.90291 8.55879 8.87062 8.58536 8.83868 8.61236L8.34748 8.49617C8.32293 8.49043 8.29732 8.49103 8.27306 8.49792C8.2488 8.5048 8.22669 8.51774 8.20881 8.53551C8.17254 8.57174 8.15772 8.62396 8.16947 8.67413L8.28469 9.16528C8.25776 9.19715 8.23126 9.22938 8.20519 9.26195L7.70039 9.24437C7.67525 9.24353 7.65031 9.2491 7.62792 9.26056C7.60553 9.27202 7.58642 9.28899 7.5724 9.30987C7.55842 9.33084 7.55002 9.35503 7.54799 9.38015C7.54596 9.40528 7.55037 9.4305 7.56081 9.45344L7.76978 9.91236C7.74937 9.94914 7.72941 9.98624 7.70989 10.0236L7.21287 10.1045C7.18807 10.1085 7.16472 10.1188 7.14506 10.1345C7.12539 10.1501 7.11007 10.1705 7.10057 10.1938C7.09098 10.217 7.08748 10.2423 7.09039 10.2672C7.09329 10.2921 7.10251 10.3159 7.11717 10.3363L7.41111 10.7444C7.39817 10.7849 7.38586 10.8256 7.37417 10.8665L6.90253 11.0423C6.87899 11.0511 6.85809 11.0657 6.8418 11.0849C6.82551 11.104 6.81437 11.127 6.80944 11.1516C6.80455 11.1763 6.80604 11.2018 6.81376 11.2257C6.82149 11.2496 6.83519 11.2712 6.85358 11.2883L7.22273 11.632C7.21813 11.6736 7.21406 11.7152 7.21052 11.757L6.78185 12.0226C6.7604 12.0358 6.7427 12.0544 6.73045 12.0764C6.71819 12.0985 6.71179 12.1233 6.71185 12.1485C6.71185 12.2002 6.73832 12.2472 6.7818 12.2735L7.21047 12.5391C7.21404 12.581 7.21811 12.6226 7.22268 12.6641L6.85353 13.0078C6.83516 13.0249 6.82148 13.0465 6.81377 13.0704C6.80606 13.0943 6.80459 13.1198 6.80949 13.1445C6.81439 13.1691 6.82551 13.1921 6.84178 13.2112C6.85805 13.2304 6.87895 13.245 6.90248 13.2539L7.37411 13.4296C7.38587 13.4704 7.39823 13.511 7.41105 13.5517L7.11712 13.9598C7.10241 13.9802 7.09317 14.0041 7.09029 14.0291C7.08742 14.0541 7.091 14.0795 7.10069 14.1027C7.11038 14.126 7.12586 14.1463 7.14566 14.1619C7.16546 14.1775 7.18891 14.1877 7.21379 14.1916L7.71087 14.2724C7.73028 14.3101 7.75022 14.3473 7.77069 14.3838L7.56173 14.8417C7.55127 14.8646 7.54685 14.8898 7.54886 14.9149C7.55088 14.94 7.55928 14.9642 7.57326 14.9851C7.58723 15.006 7.60633 15.0231 7.62873 15.0345C7.65113 15.046 7.6761 15.0516 7.70126 15.0507L8.20513 15.0331C8.23128 15.0657 8.25786 15.098 8.28484 15.1299L8.16963 15.6211C8.15787 15.6709 8.17269 15.7226 8.20897 15.7588C8.2268 15.7766 8.24891 15.7896 8.27319 15.7965C8.29746 15.8033 8.32309 15.8039 8.34763 15.798L8.83884 15.6828C8.87071 15.7098 8.903 15.7363 8.93571 15.7623L8.91813 16.2671C8.91721 16.2922 8.92274 16.3172 8.93421 16.3396C8.94568 16.362 8.96269 16.381 8.98363 16.395C9.02604 16.4234 9.08035 16.4277 9.1272 16.4064L9.5852 16.1975C9.62208 16.218 9.65919 16.2379 9.69653 16.2573L9.77756 16.7543C9.78573 16.8049 9.81956 16.8477 9.86682 16.8676C9.91398 16.8872 9.96839 16.8809 10.0094 16.8511L10.4176 16.5572C10.4579 16.57 10.4984 16.5825 10.5397 16.5942L10.7154 17.0658C10.7242 17.0893 10.7388 17.1103 10.758 17.1266C10.7771 17.1429 10.8001 17.154 10.8248 17.1589C10.8495 17.1638 10.875 17.1623 10.8989 17.1546C10.9229 17.1469 10.9444 17.1331 10.9615 17.1147L11.3053 16.7456C11.3468 16.7504 11.3886 16.7544 11.4302 16.7581L11.6959 17.1868C11.7091 17.2081 11.7275 17.2257 11.7493 17.2379C11.7712 17.2501 11.7958 17.2566 11.8209 17.2567C11.8715 17.2567 11.9195 17.2301 11.9468 17.1868L12.2125 16.7581C12.2542 16.7545 12.2958 16.7503 12.3374 16.7456L12.6812 17.1147C12.6983 17.1331 12.7199 17.1469 12.7438 17.1546C12.7677 17.1623 12.7933 17.1638 12.8179 17.1589C12.8426 17.154 12.8656 17.1429 12.8848 17.1266C12.9039 17.1103 12.9185 17.0894 12.9273 17.0658L13.1031 16.5942C13.1438 16.5825 13.1844 16.57 13.2251 16.5572L13.6333 16.8511C13.6537 16.8658 13.6776 16.8751 13.7026 16.8779C13.7277 16.8808 13.753 16.8772 13.7763 16.8675C13.7995 16.8578 13.8199 16.8423 13.8354 16.8225C13.851 16.8027 13.8612 16.7792 13.8651 16.7543L13.9462 16.2573C13.9837 16.2379 14.0208 16.2177 14.0575 16.1975L14.5155 16.4064C14.5384 16.4169 14.5636 16.4214 14.5887 16.4194C14.6138 16.4174 14.638 16.409 14.6589 16.3951C14.6799 16.3811 14.6969 16.362 14.7084 16.3396C14.7199 16.3172 14.7255 16.2923 14.7246 16.2671L14.707 15.7623C14.7397 15.7363 14.7719 15.7098 14.8038 15.6828L15.2949 15.798C15.3195 15.8039 15.3451 15.8033 15.3694 15.7965C15.3937 15.7896 15.4158 15.7766 15.4337 15.7588C15.4514 15.7411 15.4644 15.7192 15.4713 15.6951C15.4782 15.6709 15.4788 15.6455 15.473 15.6211L15.3577 15.1299C15.3848 15.0981 15.4113 15.0658 15.4372 15.0331L15.9421 15.0507C15.9673 15.0517 15.9922 15.0462 16.0146 15.0347C16.037 15.0232 16.0561 15.0062 16.07 14.9852C16.0841 14.9643 16.0925 14.9401 16.0945 14.915C16.0966 14.8898 16.0921 14.8646 16.0816 14.8417L15.8726 14.3838C15.893 14.3468 15.913 14.3097 15.9324 14.2724L16.4294 14.1916C16.4542 14.1876 16.4776 14.1773 16.4973 14.1617C16.5169 14.1461 16.5322 14.1256 16.5417 14.1024C16.5513 14.0791 16.5549 14.0539 16.552 14.0289C16.549 14.004 16.5398 13.9802 16.5251 13.9598L16.2312 13.5517C16.2439 13.5113 16.2562 13.4708 16.2681 13.4296L16.7397 13.2539C16.7633 13.2451 16.7842 13.2304 16.8005 13.2113C16.8168 13.1921 16.8279 13.1691 16.8328 13.1445C16.8378 13.1198 16.8363 13.0943 16.8286 13.0704C16.8208 13.0465 16.8071 13.0249 16.7887 13.0078L16.4195 12.6641C16.424 12.6225 16.4281 12.5809 16.4317 12.5391L16.8605 12.2735C16.8818 12.2604 16.8994 12.242 16.9117 12.2201C16.9239 12.1982 16.9303 12.1736 16.9304 12.1485C16.9304 12.0979 16.904 12.0499 16.8605 12.0226H16.8575ZM13.9865 15.5865C13.8225 15.5512 13.7189 15.3893 13.7541 15.2253C13.7624 15.1863 13.7783 15.1493 13.801 15.1165C13.8236 15.0836 13.8524 15.0556 13.8859 15.0339C13.9194 15.0122 13.9568 14.9974 13.996 14.9901C14.0352 14.9829 14.0755 14.9835 14.1144 14.9919C14.2785 15.0269 14.383 15.1891 14.3478 15.3531C14.3395 15.3921 14.3236 15.4291 14.301 15.4619C14.2783 15.4948 14.2495 15.5228 14.216 15.5445C14.1826 15.5662 14.1451 15.581 14.1059 15.5883C14.0667 15.5955 14.0265 15.5949 13.9875 15.5865H13.9865ZM13.841 14.6003C13.6916 14.5683 13.5442 14.6634 13.5129 14.8132L13.3606 15.524C12.8908 15.7369 12.3645 15.856 11.8176 15.856C11.2552 15.856 10.7239 15.732 10.2454 15.5094L10.0931 14.7985C10.0611 14.6491 9.91438 14.5534 9.76499 14.5857L9.13706 14.7204C9.02063 14.6002 8.91232 14.4723 8.81283 14.3377H11.8694C11.904 14.3377 11.927 14.3315 11.927 14.3V13.2162C11.927 13.1847 11.904 13.1785 11.8694 13.1785H10.9759V12.494H11.9416C12.0298 12.494 12.4133 12.5192 12.5354 13.0095C12.5738 13.1599 12.6584 13.6501 12.716 13.8073C12.7735 13.983 13.0071 14.3346 13.2561 14.3346H14.7795C14.7967 14.3346 14.8152 14.3326 14.8346 14.3291C14.729 14.4724 14.6135 14.6081 14.489 14.7353L13.8464 14.5976L13.841 14.6003ZM9.61263 15.5719C9.57364 15.5803 9.53338 15.5809 9.49415 15.5737C9.45492 15.5665 9.41749 15.5517 9.38402 15.53C9.35054 15.5083 9.32167 15.4802 9.29906 15.4474C9.27646 15.4145 9.26056 15.3775 9.25228 15.3385C9.21723 15.1745 9.32146 15.0124 9.48567 14.9772C9.52465 14.9689 9.5649 14.9683 9.60412 14.9755C9.64333 14.9827 9.68074 14.9976 9.7142 15.0192C9.74767 15.0409 9.77653 15.069 9.79915 15.1018C9.82177 15.1346 9.8377 15.1716 9.84602 15.2106C9.88107 15.3747 9.77679 15.5367 9.61263 15.5719ZM8.45058 10.8753C8.4832 10.949 8.48527 11.0326 8.45635 11.1078C8.42742 11.183 8.36987 11.2437 8.29628 11.2766C8.22273 11.3092 8.13923 11.3113 8.06414 11.2824C7.98906 11.2534 7.92853 11.1959 7.89587 11.1223C7.82756 10.9692 7.89705 10.7894 8.05017 10.721C8.12373 10.6884 8.20724 10.6863 8.28232 10.7152C8.35741 10.7442 8.41793 10.8017 8.45058 10.8753ZM8.09411 11.7189L8.7484 11.428C8.88804 11.3659 8.95155 11.2024 8.88901 11.0628L8.75428 10.7581H9.28354V13.1406H8.21913C8.12439 12.8071 8.07642 12.4621 8.07659 12.1154C8.07658 11.9813 8.08371 11.8473 8.09794 11.714L8.09411 11.7189ZM10.9652 11.4875V10.7845H12.2248C12.29 10.7845 12.6848 10.8598 12.6848 11.1546C12.6848 11.3996 12.3821 11.4875 12.1331 11.4875H10.9612H10.9652ZM15.545 12.1202C15.545 12.2136 15.5416 12.3057 15.5348 12.3975H15.151C15.1126 12.3975 15.0972 12.4227 15.0972 12.4603V12.636C15.0972 13.05 14.8638 13.1409 14.6587 13.1633C14.4635 13.1853 14.2476 13.0817 14.2213 12.9622C14.106 12.3148 13.9146 12.1771 13.6119 11.9369C13.9879 11.6987 14.3785 11.3462 14.3785 10.8726C14.3785 10.364 14.0299 10.0437 13.7926 9.88645C13.4586 9.66675 13.0895 9.62281 12.9898 9.62281H9.02517C9.56317 9.02335 10.2947 8.59759 11.1149 8.44135L11.5827 8.93153C11.6078 8.95787 11.6379 8.979 11.6711 8.9937C11.7044 9.00841 11.7403 9.01641 11.7766 9.01725C11.813 9.01808 11.8492 9.01174 11.8831 8.99857C11.917 8.98541 11.948 8.96568 11.9743 8.94052L12.4977 8.44058C13.5914 8.64465 14.5191 9.32622 15.0562 10.2665L14.6978 11.075C14.636 11.2146 14.6991 11.3787 14.8384 11.4402L15.5279 11.7467C15.5398 11.8688 15.546 11.9928 15.546 12.1178L15.545 12.1202ZM11.5804 8.02903C11.6091 8.00147 11.643 7.97985 11.6802 7.96542C11.7173 7.95099 11.7569 7.94403 11.7967 7.94495C11.8366 7.94586 11.8758 7.95463 11.9122 7.97076C11.9487 7.98688 11.9816 8.01003 12.009 8.0389C12.0645 8.09728 12.0946 8.17527 12.0927 8.25579C12.0908 8.33631 12.0571 8.41281 11.999 8.46853C11.9702 8.49611 11.9363 8.51774 11.8991 8.53217C11.862 8.54661 11.8224 8.55356 11.7826 8.55263C11.7427 8.55171 11.7035 8.54292 11.667 8.52678C11.6306 8.51064 11.5977 8.48746 11.5703 8.45857C11.5148 8.40018 11.4847 8.32219 11.4866 8.24167C11.4885 8.16115 11.5222 8.08466 11.5804 8.02893V8.02903ZM15.1349 10.89C15.151 10.8535 15.1742 10.8206 15.203 10.7931C15.2319 10.7655 15.2659 10.744 15.3031 10.7297C15.3403 10.7153 15.3799 10.7085 15.4198 10.7095C15.4596 10.7105 15.4989 10.7194 15.5353 10.7357C15.5718 10.7519 15.6047 10.7751 15.6322 10.8041C15.6597 10.833 15.6812 10.8671 15.6956 10.9044C15.7099 10.9416 15.7167 10.9814 15.7157 11.0213C15.7147 11.0612 15.7058 11.1005 15.6896 11.137C15.6735 11.1734 15.6503 11.2064 15.6215 11.2338C15.5926 11.2613 15.5586 11.2829 15.5214 11.2972C15.4842 11.3115 15.4446 11.3184 15.4047 11.3173C15.3649 11.3163 15.3256 11.3075 15.2892 11.2912C15.2527 11.275 15.2198 11.2518 15.1923 11.2228C15.1648 11.1939 15.1433 11.1598 15.129 11.1226C15.1146 11.0853 15.1078 11.0456 15.1088 11.0057C15.1098 10.9658 15.1187 10.9264 15.1349 10.89Z" fill="white"/>
</g>
<defs>
<clipPath id="clip0_26_1621">
<rect width="13.0797" height="13.0797" fill="white" transform="translate(5.28125 5.60779)"/>
</clipPath>
</defs>
</svg>
