<svg width="23" height="24" viewBox="0 0 23 24" fill="none" xmlns="http://www.w3.org/2000/svg">
<rect x="0.00317383" y="0.851562" width="22.5922" height="22.5922" rx="11.2961" fill="white"/>
<path d="M4.77593 14.1639C4.00685 10.0754 6.03923 6.13234 10.7037 5.6078C10.0605 4.92052 9.18172 4.91531 8.77744 4.99901C8.06363 5.22642 8.08598 5.68834 7.27623 6.28505C6.47122 6.74484 6.06694 6.39275 5.4805 6.86936C4.8954 7.3425 5.30362 8.42853 5.05829 8.63967C4.8147 9.06196 4.05896 9.43813 3.92141 9.97143C3.80771 10.6535 4.22999 11.1408 4.21372 11.7254C4.26244 12.2127 3.72867 12.4882 3.80542 12.883C4.03511 13.5282 4.47785 13.9165 4.68662 14.0954C4.73447 14.1291 4.78509 14.2123 4.77593 14.1639Z" fill="#FF0090"/>
<path d="M13.0759 8.50428C12.994 8.50428 12.9155 8.47177 12.8577 8.41389C12.7998 8.35601 12.7673 8.27752 12.7673 8.19566C12.7673 8.11381 12.7998 8.03531 12.8577 7.97744C12.9155 7.91956 12.994 7.88704 13.0759 7.88704C13.1577 7.88704 13.2362 7.91956 13.2941 7.97744C13.352 8.03531 13.3845 8.11381 13.3845 8.19566C13.3845 8.27752 13.352 8.35601 13.2941 8.41389C13.2362 8.47177 13.1577 8.50428 13.0759 8.50428ZM4.956 14.6098C4.21692 11.0565 6.50372 8.08745 10.9321 9.54918C13.5306 11.0693 16.7992 10.9702 16.9466 9.98765C17.3105 8.80971 15.29 6.38212 12.2692 5.74878C6.27639 4.57936 3.04553 11.0565 4.956 14.6098Z" fill="url(#paint0_radial_26_1539)"/>
<path d="M14.7865 15.0062C15.6764 15.1026 16.521 14.889 17.3038 14.251C16.1212 15.57 14.6425 16.2333 12.9459 16.4137C13.756 17.1024 14.5372 17.4127 15.2846 17.2799C13.2079 17.853 11.468 17.2222 9.35151 15.1145C9.24065 15.6819 9.83996 16.5659 10.4576 17.1302C6.87379 15.5765 6.5596 10.7364 10.9297 9.54586C6.39955 7.36929 3.83797 11.5983 5.09653 15.0644C6.32793 17.734 9.60932 19.7891 13.2057 19.3371C14.9526 19.1231 17.5613 17.9187 18.6269 15.0644C17.8758 15.7384 16.5333 16.3254 15.9342 16.3704C17.9619 15.3571 19.0565 13.6351 18.7492 11.2817C18.3292 12.2816 17.7751 13.0495 17.0819 13.577C18.5544 11.2817 18.3017 10.0953 17.2118 8.79138C17.9914 10.9352 16.9829 13.3145 14.7865 15.0062Z" fill="url(#paint1_radial_26_1539)"/>
<path d="M13.746 17.4759C13.5921 17.4471 14.0948 17.6795 13.123 17.4223C12.1512 17.165 11.1618 16.9171 9.35159 15.1144C9.24072 15.6818 9.84004 16.5658 10.4577 17.1301C12.1251 18.293 10.9911 17.7492 13.5317 18.6274C13.7356 18.2216 13.746 17.861 13.746 17.4759Z" fill="url(#paint2_linear_26_1539)"/>
<path d="M10.5157 8.34445C10.5157 8.34445 10.7365 8.01834 10.8225 7.87132C10.9278 7.69121 11.0897 7.36281 11.0897 7.36281C11.0897 7.36281 9.38943 6.80803 8.9722 6.74036C7.6751 7.07705 7.67045 7.62046 8.39555 8.45223C8.47624 8.54478 10.5157 8.34445 10.5157 8.34445Z" fill="url(#paint3_linear_26_1539)"/>
<defs>
<radialGradient id="paint0_radial_26_1539" cx="0" cy="0" r="1" gradientUnits="userSpaceOnUse" gradientTransform="translate(14.317 9.01595) scale(11.3075 8.08878)">
<stop stop-color="#F80090"/>
<stop offset="1" stop-color="#4D008E"/>
</radialGradient>
<radialGradient id="paint1_radial_26_1539" cx="0" cy="0" r="1" gradientUnits="userSpaceOnUse" gradientTransform="translate(14.4165 9.25796) scale(11.4613 8.67002)">
<stop stop-color="#57008E"/>
<stop offset="0.292" stop-color="#5C008E"/>
<stop offset="1" stop-color="#F80090"/>
</radialGradient>
<linearGradient id="paint2_linear_26_1539" x1="10.1421" y1="15.1144" x2="12.1681" y2="18.5216" gradientUnits="userSpaceOnUse">
<stop stop-color="#F70090"/>
<stop offset="0.67" stop-color="#E50090"/>
<stop offset="0.827" stop-color="#D6008F" stop-opacity="0.2"/>
<stop offset="1" stop-color="#C10090" stop-opacity="0"/>
</linearGradient>
<linearGradient id="paint3_linear_26_1539" x1="9.97366" y1="7.98281" x2="9.67969" y2="7.41974" gradientUnits="userSpaceOnUse">
<stop stop-color="#B2008F" stop-opacity="0.151"/>
<stop offset="0.4" stop-color="#F70090" stop-opacity="0.4"/>
<stop offset="0.649" stop-color="#F60090" stop-opacity="0.892"/>
<stop offset="1" stop-color="#FF0090"/>
</linearGradient>
</defs>
</svg>
