<svg width="24" height="25" viewBox="0 0 24 25" fill="none" xmlns="http://www.w3.org/2000/svg">
<g clip-path="url(#clip0_4_160)">
<path d="M21.7483 1.96878C21.4154 2.76788 20.989 3.52474 20.478 4.22354C18.24 1.9868 15.2054 0.730141 12.0413 0.729736C5.49752 0.729736 0.112549 6.11916 0.112549 12.6702C0.112522 14.2878 0.440942 15.8887 1.07791 17.3757C1.71487 18.8627 2.64712 20.2049 3.81815 21.321L4.2581 21.7111C6.40825 23.524 9.12966 24.519 11.942 24.5206C18.1636 24.5206 23.3936 19.6455 23.8366 13.4321C24.1619 10.3905 23.2697 6.54351 21.7483 1.96878ZM5.51294 21.389C5.41716 21.507 5.29626 21.6021 5.15905 21.6675C5.02184 21.7329 4.87178 21.7668 4.71979 21.7669C4.15908 21.7669 3.70036 21.3053 3.70036 20.7446C3.70036 20.1839 4.16205 19.7226 4.71979 19.7226C4.95203 19.7226 5.18149 19.803 5.36115 19.9519C5.79794 20.3049 5.86612 20.9522 5.51294 21.389ZM21.6989 17.8147C18.7554 21.739 12.4688 20.4163 8.43784 20.6053C8.43784 20.6053 7.72218 20.6488 7.00335 20.7664C7.00335 20.7664 7.27275 20.6517 7.62296 20.5185C10.4518 19.5336 11.7903 19.3415 13.5098 18.4588C16.7475 16.8111 19.9482 13.2058 20.6144 9.45485C19.3813 13.0633 15.6445 16.1638 12.2395 17.4244C9.90652 18.2855 5.6926 19.1217 5.6926 19.1217L5.52223 19.0318C2.65324 17.635 2.56629 11.4187 7.78089 9.41156C10.0644 8.53184 12.2488 9.01509 14.7152 8.4265C17.3488 7.80094 20.3944 5.82468 21.6337 3.24776C23.0217 7.37046 24.692 13.8252 21.6989 17.8147Z" fill="#77BC1F"/>
</g>
<defs>
<clipPath id="clip0_4_160">
<rect width="23.7812" height="23.7812" fill="white" transform="translate(0.112549 0.734375)"/>
</clipPath>
</defs>
</svg>
