<svg width="24" height="24" viewBox="0 0 24 24" fill="none" xmlns="http://www.w3.org/2000/svg">
<rect x="0.915649" y="0.851562" width="22.5922" height="22.5922" rx="11.2961" fill="white"/>
<g clip-path="url(#clip0_26_1581)">
<path d="M18.546 5.22078C18.3296 5.7402 18.0525 6.23216 17.7204 6.68638C16.2656 5.23249 14.2932 4.41567 12.2365 4.41541C7.98302 4.41541 4.48279 7.91853 4.48279 12.1767C4.48277 13.2282 4.69624 14.2687 5.11027 15.2353C5.5243 16.2018 6.13026 17.0743 6.89143 17.7997L7.1774 18.0533C8.575 19.2316 10.3439 19.8784 12.172 19.8795C16.216 19.8795 19.6155 16.7106 19.9034 12.6719C20.1149 10.6949 19.535 8.19436 18.546 5.22078ZM7.99304 17.8439C7.93078 17.9206 7.8522 17.9825 7.76302 18.0249C7.67383 18.0674 7.57629 18.0895 7.4775 18.0895C7.11303 18.0895 6.81486 17.7896 6.81486 17.4251C6.81486 17.0606 7.11496 16.7608 7.4775 16.7608C7.62845 16.7608 7.7776 16.8131 7.89438 16.9098C8.17829 17.1392 8.22261 17.56 7.99304 17.8439ZM18.5139 15.5206C16.6006 18.0714 12.5143 17.2117 9.89423 17.3345C9.89423 17.3345 9.42905 17.3628 8.96181 17.4392C8.96181 17.4392 9.13692 17.3647 9.36456 17.2781C11.2033 16.6379 12.0733 16.5131 13.191 15.9393C15.2955 14.8683 17.3759 12.5248 17.809 10.0867C17.0075 12.4322 14.5786 14.4475 12.3653 15.2669C10.8489 15.8267 8.10982 16.3702 8.10982 16.3702L7.99908 16.3118C6.13424 15.4039 6.07772 11.3632 9.46721 10.0586C10.9515 9.48678 12.3713 9.80088 13.9745 9.4183C15.6863 9.01169 17.666 7.72712 18.4715 6.05212C19.3737 8.73188 20.4594 12.9275 18.5139 15.5206Z" fill="#77BC1F"/>
</g>
<defs>
<clipPath id="clip0_26_1581">
<rect width="15.4578" height="15.4578" fill="white" transform="translate(4.48279 4.4187)"/>
</clipPath>
</defs>
</svg>
