<svg width="48" height="48" viewBox="0 0 48 48" fill="none" xmlns="http://www.w3.org/2000/svg">
<g clip-path="url(#clip0_143_24)">
<path d="M36.75 0H11.25C5.0368 0 0 5.0368 0 11.25V36.75C0 42.9632 5.0368 48 11.25 48H36.75C42.9632 48 48 42.9632 48 36.75V11.25C48 5.0368 42.9632 0 36.75 0Z" fill="#242938"/>
<path d="M39.2897 32.2164C34.6744 38.3659 24.8151 36.2901 18.4941 36.5886C18.4941 36.5886 17.3751 36.6508 16.248 36.8364C16.248 36.8364 16.6742 36.6546 17.2177 36.4673C21.6574 34.932 23.7553 34.6236 26.4529 33.2379C31.5214 30.6414 36.5659 24.9861 37.5922 19.1109C35.6629 24.7614 29.7954 29.6246 24.4528 31.5994C20.7958 32.9488 14.1829 34.2621 14.1819 34.2626C14.1849 34.2673 13.9183 34.1243 13.9146 34.1211C9.41719 31.9329 9.28744 22.1923 17.4557 19.0524C21.0369 17.6749 24.4624 18.4316 28.3339 17.5101C32.463 16.5283 37.2454 13.4332 39.1892 9.38681C41.3683 15.8503 43.986 25.9626 39.2897 32.2164ZM39.3699 7.38394C38.8206 8.68931 38.1499 9.86569 37.377 10.9178C33.9744 7.42575 29.2252 5.25 23.9758 5.25C13.6498 5.25 5.25 13.6507 5.25 23.9749C5.25 29.3871 7.56 34.2682 11.2432 37.6897L11.6533 38.0529C10.9686 37.4946 10.8634 36.489 11.4184 35.8035C11.9767 35.1178 12.9832 35.0115 13.6684 35.5669C14.3554 36.1234 14.46 37.1316 13.9039 37.8182C13.3496 38.5052 12.3412 38.6089 11.6552 38.0546L11.9344 38.3018C15.1922 41.0449 19.392 42.7018 23.9758 42.7018C33.8458 42.7018 41.9505 35.0209 42.6442 25.3262C43.158 20.5794 41.7561 14.5521 39.3699 7.38394Z" fill="#5FB832"/>
</g>
<defs>
<clipPath id="clip0_143_24">
<rect width="48" height="48" fill="white"/>
</clipPath>
</defs>
</svg>
