<svg width="25" height="25" viewBox="0 0 25 25" fill="none" xmlns="http://www.w3.org/2000/svg">
<g clip-path="url(#clip0_4_153)">
<path d="M12.3069 5.49097C9.13605 5.49097 7.15496 7.07576 6.36163 10.2467C7.55032 8.66168 8.938 8.06733 10.523 8.46362C11.428 8.68917 12.0747 9.34539 12.7909 10.0726C13.9566 11.2555 15.3058 12.625 18.2523 12.625C21.423 12.625 23.4042 11.04 24.1976 7.86835C23.0085 9.45414 21.6213 10.0488 20.036 9.65231C19.1312 9.42658 18.4852 8.77055 17.7681 8.04336C16.6032 6.86043 15.2543 5.49097 12.3069 5.49097ZM6.36163 12.625C3.19092 12.625 1.20965 14.21 0.416321 17.3816C1.60526 15.7958 2.99238 15.2011 4.57767 15.5976C5.48266 15.8234 6.12939 16.4794 6.84562 17.2066C8.01127 18.3895 9.36049 19.759 12.3069 19.759C15.4777 19.759 17.4589 18.1742 18.2523 15.0033C17.0632 16.5883 15.676 17.1827 14.0907 16.7863C13.1859 16.5608 12.5399 15.9046 11.8228 15.1774C10.6579 13.9944 9.30902 12.625 6.36163 12.625Z" fill="#38BDF8"/>
</g>
<defs>
<clipPath id="clip0_4_153">
<rect width="23.7812" height="23.7812" fill="white" transform="translate(0.415649 0.734375)"/>
</clipPath>
</defs>
</svg>
